<svg id="Capa_1" enable-background="new 0 0 512 512" height="512" viewBox="0 0 512 512" width="512" xmlns="http://www.w3.org/2000/svg"><g><g><path d="m7.5 7.5h497v34.346h-497z" fill="#665e66"/></g><g><path d="m480.256 7.5h24.244v34.346h-24.244z" fill="#544f57"/></g><g><path d="m22.652 41.846h466.695v363.659h-466.695z" fill="#dfeaef"/></g><g><path d="m22.652 41.846h466.695v32.325h-466.695z" fill="#d0e2e7"/></g><g><path d="m106.496 22.652h299.008v402.045h-299.008z" fill="#f6f9f9" transform="matrix(0 1 -1 0 479.675 -32.325)"/></g><g><g><path d="m158.014 114.577v70.711h70.711c.001-39.052-31.658-70.711-70.711-70.711z" fill="#cbe2ff"/></g><g><path d="m158.014 185.289 50 50c12.796-12.796 20.711-30.474 20.711-50z" fill="#ffe07d"/></g><g><path d="m158.014 114.577c-39.053 0-70.711 31.659-70.711 70.711s31.658 70.712 70.711 70.712c19.526 0 37.203-7.916 49.999-20.712l-49.999-49.999z" fill="#e28086"/></g></g><g><path d="m261.051 175.187h32.325v80.813h-32.325z" fill="#9bd069"/></g><g><path d="m325.701 144.882h32.325v111.118h-32.325z" fill="#9bd069"/></g><g><path d="m390.352 106.496h32.325v149.504h-32.325z" fill="#9bd069"/></g><g><circle cx="256" cy="488.337" fill="#ffe07d" r="16.163"/></g><g><path d="m248.5 308.528c0 4.142 3.358 7.5 7.5 7.5h40.407c4.142 0 7.5-3.358 7.5-7.5s-3.358-7.5-7.5-7.5h-40.407c-4.142 0-7.5 3.358-7.5 7.5z"/><path d="m321.232 308.528c0 4.142 3.358 7.5 7.5 7.5h95.965c4.142 0 7.5-3.358 7.5-7.5s-3.358-7.5-7.5-7.5h-95.965c-4.142 0-7.5 3.358-7.5 7.5z"/><path d="m424.697 333.354h-40.407c-4.142 0-7.5 3.358-7.5 7.5s3.358 7.5 7.5 7.5h40.407c4.142 0 7.5-3.358 7.5-7.5s-3.358-7.5-7.5-7.5z"/><path d="m256 348.354h95.965c4.142 0 7.5-3.358 7.5-7.5s-3.358-7.5-7.5-7.5h-95.965c-4.142 0-7.5 3.358-7.5 7.5s3.358 7.5 7.5 7.5z"/><path d="m54.978 295.232c-4.142 0-7.5 3.358-7.5 7.5v70.447c0 4.142 3.358 7.5 7.5 7.5h402.045c4.142 0 7.5-3.358 7.5-7.5v-299.008c0-4.142-3.358-7.5-7.5-7.5h-402.045c-4.142 0-7.5 3.358-7.5 7.5v193.472c0 4.142 3.358 7.5 7.5 7.5s7.5-3.358 7.5-7.5v-185.972h387.045v284.008h-387.045v-62.947c0-4.142-3.358-7.5-7.5-7.5z"/><path d="m504.5 0h-394.321c-4.142 0-7.5 3.358-7.5 7.5s3.358 7.5 7.5 7.5h386.821v19.346h-482v-19.346h60.143c4.142 0 7.5-3.358 7.5-7.5s-3.358-7.5-7.5-7.5h-67.643c-4.142 0-7.5 3.358-7.5 7.5v34.346c0 4.142 3.358 7.5 7.5 7.5h7.652v356.158c0 4.142 3.358 7.5 7.5 7.5h225.848v52.896c-9.381 3.144-16.163 12.011-16.163 22.437 0 13.048 10.616 23.663 23.663 23.663s23.663-10.615 23.663-23.663c0-10.426-6.781-19.293-16.163-22.437v-52.896h225.848c4.142 0 7.5-3.358 7.5-7.5v-283.892c0-4.142-3.358-7.5-7.5-7.5s-7.5 3.358-7.5 7.5v276.392h-451.696v-348.658h451.695v37.226c0 4.142 3.358 7.5 7.5 7.5s7.5-3.358 7.5-7.5v-37.226h7.652c4.142 0 7.5-3.358 7.5-7.5v-34.346c.001-4.142-3.357-7.5-7.499-7.5zm-248.5 497c-4.776 0-8.663-3.886-8.663-8.663s3.886-8.663 8.663-8.663 8.663 3.886 8.663 8.663-3.887 8.663-8.663 8.663z"/><path d="m158.014 107.077c-43.126 0-78.211 35.085-78.211 78.211s35.085 78.211 78.211 78.211c20.863 0 40.479-8.117 55.245-22.855.019-.019.04-.034.059-.053 14.772-14.772 22.908-34.413 22.908-55.304 0-43.124-35.086-78.21-78.212-78.21zm62.751 70.712h-55.251v-55.251c28.869 3.43 51.821 26.382 55.251 55.251zm-62.751 70.711c-34.855 0-63.211-28.356-63.211-63.211 0-32.317 24.379-59.048 55.711-62.769v62.769c0 1.989.79 3.897 2.197 5.303l44.387 44.387c-11.099 8.765-24.726 13.521-39.084 13.521zm49.685-24.133-31.579-31.579h44.667c-1.359 11.575-5.865 22.433-13.088 31.579z"/><path d="m293.376 263.5c4.142 0 7.5-3.358 7.5-7.5v-80.813c0-4.142-3.358-7.5-7.5-7.5h-32.325c-4.142 0-7.5 3.358-7.5 7.5v80.813c0 4.142 3.358 7.5 7.5 7.5zm-24.825-80.813h17.325v65.813h-17.325z"/><path d="m358.026 137.382h-32.325c-4.142 0-7.5 3.358-7.5 7.5v111.118c0 4.142 3.358 7.5 7.5 7.5h32.325c4.142 0 7.5-3.358 7.5-7.5v-111.118c0-4.142-3.358-7.5-7.5-7.5zm-7.5 111.118h-17.325v-96.118h17.325z"/><path d="m422.677 263.5c4.142 0 7.5-3.358 7.5-7.5v-149.504c0-4.142-3.358-7.5-7.5-7.5h-32.325c-4.142 0-7.5 3.358-7.5 7.5v149.504c0 4.142 3.358 7.5 7.5 7.5zm-24.825-149.504h17.325v134.504h-17.325z"/><path d="m183.268 301.028h-53.539c-4.142 0-7.5 3.358-7.5 7.5s3.358 7.5 7.5 7.5h53.539c4.142 0 7.5-3.358 7.5-7.5s-3.358-7.5-7.5-7.5z"/><path d="m211.124 308.528v32.325c0 4.142 3.358 7.5 7.5 7.5s7.5-3.358 7.5-7.5v-32.325c0-4.142-3.358-7.5-7.5-7.5s-7.5 3.358-7.5 7.5z"/><path d="m87.303 316.028h10.102c4.142 0 7.5-3.358 7.5-7.5s-3.358-7.5-7.5-7.5h-10.102c-4.142 0-7.5 3.358-7.5 7.5s3.358 7.5 7.5 7.5z"/><path d="m183.268 333.354h-53.539c-4.142 0-7.5 3.358-7.5 7.5s3.358 7.5 7.5 7.5h53.539c4.142 0 7.5-3.358 7.5-7.5s-3.358-7.5-7.5-7.5z"/><path d="m87.303 348.354h10.102c4.142 0 7.5-3.358 7.5-7.5s-3.358-7.5-7.5-7.5h-10.102c-4.142 0-7.5 3.358-7.5 7.5s3.358 7.5 7.5 7.5z"/></g></g></svg>