<svg id="Capa_1" enable-background="new 0 0 512 512" height="512" viewBox="0 0 512 512" width="512" xmlns="http://www.w3.org/2000/svg"><g><g><path d="m256 504.5c-137.243 0-248.5-111.257-248.5-248.5s111.257-248.5 248.5-248.5z" fill="#ffe07d"/></g><g><path d="m230.908 464.43c-80.374 0-151.822-38.169-197.245-97.357 40.785 81.478 125.021 137.427 222.337 137.427v-41.325c-8.252.828-16.622 1.255-25.092 1.255z" fill="#ffd064"/></g><g><path d="m431.716 80.284c-44.97-44.97-107.095-72.784-175.716-72.784v248.5z" fill="#e28086"/></g><g><path d="m256 256v248.5c137.243 0 248.5-111.257 248.5-248.5 0-68.621-27.814-130.746-72.784-175.716z" fill="#cbe2ff"/></g><g><path d="m453.245 104.857c16.733 33.428 26.164 71.147 26.164 111.073 0 128.773-97.95 234.665-223.408 247.245v41.325c137.243 0 248.5-111.257 248.5-248.5-.001-56.869-19.118-109.265-51.256-151.143z" fill="#bed8fb"/></g><g><path d="m308.528 256h127.28v32.325h-127.28z" fill="#665e66"/></g><g><path d="m191.35 134.78h32.325v121.22h-32.325z" fill="#9bd069"/></g><g><path d="m126.699 175.187h32.325v80.813h-32.325z" fill="#9bd069"/></g><g><path d="m62.049 215.593h32.325v40.407h-32.325z" fill="#9bd069"/></g><g><path d="m437.02 74.981c-48.353-48.352-112.64-74.981-181.02-74.981-39.946 0-78.212 8.947-113.735 26.591-3.709 1.843-5.223 6.344-3.381 10.054 1.843 3.709 6.344 5.224 10.054 3.381 31.203-15.499 64.661-23.867 99.563-24.913v337.863c0 4.142 3.358 7.5 7.5 7.5 4.143 0 7.5-3.358 7.5-7.5v-93.869l168.125-168.126c42.209 44.853 65.374 103.153 65.374 165.019 0 59.247-21.698 116.2-61.099 160.367-2.758 3.091-2.487 7.832.604 10.589 1.431 1.276 3.214 1.903 4.99 1.903 2.063 0 4.118-.847 5.6-2.507 41.854-46.918 64.905-107.417 64.905-170.352 0-68.38-26.629-132.667-74.98-181.019zm-173.52 162.913v-222.766c59.067 1.794 114.493 24.738 157.529 65.237z"/><path d="m411.535 440.099c-41.478 35.078-93.787 55.077-148.035 56.77v-108.818c0-4.142-3.357-7.5-7.5-7.5-4.142 0-7.5 3.358-7.5 7.5v108.833c-129.436-3.971-233.5-110.502-233.5-240.884 0-79.266 39.013-153.489 104.36-198.549 3.41-2.351 4.269-7.022 1.917-10.432-2.351-3.41-7.022-4.27-10.432-1.917-69.408 47.86-110.845 126.7-110.845 210.898 0 68.38 26.629 132.667 74.98 181.02 48.353 48.351 112.64 74.98 181.02 74.98 60.453 0 119.13-21.467 165.221-60.448 3.163-2.675 3.559-7.407.884-10.57-2.675-3.162-7.409-3.558-10.57-.883z"/><path d="m443.309 256c0-4.142-3.357-7.5-7.5-7.5h-127.28c-4.143 0-7.5 3.358-7.5 7.5v32.325c0 4.142 3.357 7.5 7.5 7.5h127.28c4.143 0 7.5-3.358 7.5-7.5zm-15 24.825h-112.28v-17.325h112.28z"/><path d="m121.22 288.325c0 4.142 3.358 7.5 7.5 7.5h94.955c4.142 0 7.5-3.358 7.5-7.5s-3.358-7.5-7.5-7.5h-94.955c-4.142 0-7.5 3.358-7.5 7.5z"/><path d="m179.657 320.65c0-4.142-3.358-7.5-7.5-7.5h-75.762c-4.142 0-7.5 3.358-7.5 7.5s3.358 7.5 7.5 7.5h75.762c4.142 0 7.5-3.358 7.5-7.5z"/><path d="m223.675 313.15h-19.193c-4.142 0-7.5 3.358-7.5 7.5s3.358 7.5 7.5 7.5h19.193c4.142 0 7.5-3.358 7.5-7.5s-3.358-7.5-7.5-7.5z"/><path d="m148.923 360.476h74.752c4.142 0 7.5-3.358 7.5-7.5s-3.358-7.5-7.5-7.5h-74.752c-4.142 0-7.5 3.358-7.5 7.5s3.358 7.5 7.5 7.5z"/><path d="m96.395 345.476c-4.142 0-7.5 3.358-7.5 7.5s3.358 7.5 7.5 7.5h20.203c4.142 0 7.5-3.358 7.5-7.5s-3.358-7.5-7.5-7.5z"/><path d="m288.325 127.795c1.904 0 3.809-.72 5.271-2.164l30.338-29.962c2.946-2.911 2.977-7.659.065-10.606-2.911-2.949-7.659-2.976-10.606-.066l-30.338 29.962c-2.946 2.911-2.977 7.659-.065 10.606 1.466 1.486 3.401 2.23 5.335 2.23z"/><path d="m341.558 74.609c1.853 0 3.709-.683 5.159-2.058l6.385-6.054c3.006-2.85 3.132-7.597.282-10.603-2.85-3.005-7.597-3.131-10.603-.282l-6.385 6.054c-3.006 2.85-3.132 7.597-.282 10.603 1.475 1.556 3.457 2.34 5.444 2.34z"/><path d="m319.788 135.266c1.465 1.465 3.384 2.197 5.304 2.197 1.919 0 3.839-.732 5.304-2.197l52.858-52.857c2.929-2.929 2.929-7.678 0-10.606-2.929-2.929-7.677-2.929-10.607 0l-52.858 52.857c-2.93 2.928-2.93 7.677-.001 10.606z"/><path d="m296.931 147.517-14.285 14.286c-2.929 2.929-2.929 7.678.001 10.606 1.464 1.465 3.384 2.197 5.303 2.197s3.839-.732 5.304-2.197l14.285-14.286c2.929-2.929 2.929-7.678-.001-10.606-2.929-2.93-7.678-2.929-10.607 0z"/><path d="m308.528 328.15h75.763c4.143 0 7.5-3.358 7.5-7.5s-3.357-7.5-7.5-7.5h-75.763c-4.143 0-7.5 3.358-7.5 7.5s3.358 7.5 7.5 7.5z"/><path d="m435.809 313.15h-19.192c-4.143 0-7.5 3.358-7.5 7.5s3.357 7.5 7.5 7.5h19.192c4.143 0 7.5-3.358 7.5-7.5s-3.358-7.5-7.5-7.5z"/><path d="m435.809 345.476h-74.752c-4.143 0-7.5 3.358-7.5 7.5s3.357 7.5 7.5 7.5h74.752c4.143 0 7.5-3.358 7.5-7.5s-3.358-7.5-7.5-7.5z"/><path d="m308.528 360.476h20.203c4.143 0 7.5-3.358 7.5-7.5s-3.357-7.5-7.5-7.5h-20.203c-4.143 0-7.5 3.358-7.5 7.5s3.358 7.5 7.5 7.5z"/><path d="m308.528 392.801h85.864c4.143 0 7.5-3.358 7.5-7.5s-3.357-7.5-7.5-7.5h-85.864c-4.143 0-7.5 3.358-7.5 7.5s3.358 7.5 7.5 7.5z"/><path d="m223.675 263.5c4.142 0 7.5-3.358 7.5-7.5v-121.22c0-4.142-3.358-7.5-7.5-7.5h-32.325c-4.142 0-7.5 3.358-7.5 7.5v121.22c0 4.142 3.358 7.5 7.5 7.5zm-24.825-121.22h17.325v106.22h-17.325z"/><path d="m159.024 167.687h-32.325c-4.142 0-7.5 3.358-7.5 7.5v80.813c0 4.142 3.358 7.5 7.5 7.5h32.325c4.142 0 7.5-3.358 7.5-7.5v-80.813c0-4.142-3.357-7.5-7.5-7.5zm-7.5 80.813h-17.325v-65.813h17.325z"/><path d="m101.874 256v-40.407c0-4.142-3.358-7.5-7.5-7.5h-32.325c-4.142 0-7.5 3.358-7.5 7.5v40.407c0 4.142 3.358 7.5 7.5 7.5h32.325c4.142 0 7.5-3.358 7.5-7.5zm-15-7.5h-17.325v-25.407h17.325z"/></g></g></svg>