<svg id="Capa_1" enable-background="new 0 0 512 512" height="512" viewBox="0 0 512 512" width="512" xmlns="http://www.w3.org/2000/svg"><g><g><path d="m427.728 504.5h-34.346v-497h34.346c9.484 0 17.173 7.689 17.173 17.173v462.654c-.001 9.484-7.689 17.173-17.173 17.173z" fill="#f1f4f6"/></g><g><path d="m393.382 504.5h-285.876v-497h285.876c9.484 0 17.173 7.689 17.173 17.173v462.654c0 9.484-7.689 17.173-17.173 17.173z" fill="#ffe07d"/></g><g><path d="m386.311 7.5v497h7.071c9.484 0 17.173-7.689 17.173-17.173v-462.654c0-9.484-7.689-17.173-17.173-17.173z" fill="#ffd064"/></g><g><path d="m208.522 27.703h101.016v181.829h-101.016z" fill="#f6f9f9" transform="matrix(0 1 -1 0 377.648 -140.413)"/></g><g><path d="m67.1 7.5h40.407v497h-40.407z" fill="#ebb044"/></g><g><path d="m444.9 126.699-34.345 10.102v-101.016l34.345 10.101z" fill="#cbe2ff"/></g><g><path d="m444.9 227.715-34.345 10.102v-101.016l34.345 10.101z" fill="#e28086"/></g><g><path d="m444.9 328.732-34.345 10.101v-101.016l34.345 10.102z" fill="#9bd069"/></g><g><path d="m427.728 0h-360.628c-4.143 0-7.5 3.358-7.5 7.5v80.879c0 4.142 3.357 7.5 7.5 7.5s7.5-3.358 7.5-7.5v-73.379h25.406v482h-25.406v-373.571c0-4.142-3.357-7.5-7.5-7.5s-7.5 3.358-7.5 7.5v381.071c0 4.142 3.357 7.5 7.5 7.5h360.628c13.604 0 24.673-11.068 24.673-24.673v-73.22c0-4.142-3.357-7.5-7.5-7.5s-7.5 3.358-7.5 7.5v73.22c0 5.333-4.339 9.673-9.673 9.673h-11.65c1.271-2.972 1.978-6.241 1.978-9.673v-142.882l19.346-5.69v40.316c0 4.142 3.357 7.5 7.5 7.5s7.5-3.358 7.5-7.5v-354.398c-.002-13.605-11.07-24.673-24.674-24.673zm9.672 222.104-19.346 5.69v-80.969l19.346 5.69zm-.265-85.303.265-.078v.156zm.265-15.714-19.346 5.69v-80.969l19.346 5.69zm0 116.652v.156l-.265-.078zm0-213.066v11.19l-19.346-5.69v-5.5c0-3.432-.706-6.701-1.978-9.673h11.65c5.336 0 9.674 4.339 9.674 9.673zm-46.039 472.327h-276.355v-482h278.376c5.334 0 9.673 4.339 9.673 9.673v11.197.052 451.406c0 5.333-4.339 9.673-9.673 9.673h-2.021zm26.694-168.19v-80.97l19.346 5.69v69.59z"/><path d="m317.62 94.955h-64.65c-4.143 0-7.5 3.358-7.5 7.5s3.357 7.5 7.5 7.5h64.65c4.143 0 7.5-3.358 7.5-7.5s-3.357-7.5-7.5-7.5z"/><path d="m200.441 109.955h20.203c4.143 0 7.5-3.358 7.5-7.5s-3.357-7.5-7.5-7.5h-20.203c-4.143 0-7.5 3.358-7.5 7.5s3.358 7.5 7.5 7.5z"/><path d="m200.441 142.28h117.179c4.143 0 7.5-3.358 7.5-7.5s-3.357-7.5-7.5-7.5h-117.179c-4.143 0-7.5 3.358-7.5 7.5s3.358 7.5 7.5 7.5z"/><path d="m349.945 60.61h-42.749c-4.143 0-7.5 3.358-7.5 7.5s3.357 7.5 7.5 7.5h35.249v86.016h-166.829v-86.016h96.534c4.143 0 7.5-3.358 7.5-7.5s-3.357-7.5-7.5-7.5h-104.034c-4.143 0-7.5 3.358-7.5 7.5v101.016c0 4.142 3.357 7.5 7.5 7.5h181.829c4.143 0 7.5-3.358 7.5-7.5v-101.016c0-4.142-3.357-7.5-7.5-7.5z"/><path d="m242.868 432.35h-74.752c-4.143 0-7.5 3.358-7.5 7.5s3.357 7.5 7.5 7.5h74.752c4.143 0 7.5-3.358 7.5-7.5s-3.357-7.5-7.5-7.5z"/><path d="m198.421 464.675h-30.305c-4.143 0-7.5 3.358-7.5 7.5s3.357 7.5 7.5 7.5h30.305c4.143 0 7.5-3.358 7.5-7.5s-3.358-7.5-7.5-7.5z"/><path d="m242.868 400.024h-74.752c-4.143 0-7.5 3.358-7.5 7.5s3.357 7.5 7.5 7.5h74.752c4.143 0 7.5-3.358 7.5-7.5s-3.357-7.5-7.5-7.5z"/></g></g></svg>