<svg id="Capa_1" enable-background="new 0 0 512 512" height="512" viewBox="0 0 512 512" width="512" xmlns="http://www.w3.org/2000/svg"><g><g><path d="m125.211 69.877h325.968v434.623h-325.968z" fill="#d0e2e7"/></g><g><path d="m93.016 37.682h325.968v434.623h-325.968z" fill="#dfeaef"/></g><g><path d="m60.822 7.5h325.968v432.611h-325.968z" fill="#f6f9f9"/></g><g><path d="m366.668 7.5h20.121v432.611h-20.121z" fill="#f1f4f6"/></g><g><path d="m143.32 47.743h160.972v60.364h-160.972z" fill="#cbe2ff"/></g><g><g><circle cx="118.168" cy="177.526" fill="#9bd069" r="17.103"/></g></g><g><g><circle cx="118.168" cy="243.927" fill="#e28086" r="17.103"/></g></g><g><g><circle cx="118.168" cy="310.328" fill="#ffe07d" r="17.103"/></g></g><g><g><circle cx="118.168" cy="376.729" fill="#cbe2ff" r="17.103"/></g></g><g><path d="m451.178 62.376h-24.694v-24.694c0-4.142-3.357-7.5-7.5-7.5h-24.694v-22.682c0-4.142-3.357-7.5-7.5-7.5h-325.968c-4.143 0-7.5 3.358-7.5 7.5v330.929c0 4.142 3.357 7.5 7.5 7.5s7.5-3.358 7.5-7.5v-323.429h310.967v87.929c0 4.142 3.357 7.5 7.5 7.5s7.5-3.358 7.5-7.5v-57.747h17.194v419.624h-310.966v-17.194h286.272c4.143 0 7.5-3.358 7.5-7.5v-302.134c0-4.142-3.357-7.5-7.5-7.5s-7.5 3.358-7.5 7.5v294.634h-310.967v-59.164c0-4.142-3.357-7.5-7.5-7.5s-7.5 3.358-7.5 7.5v66.664c0 4.142 3.357 7.5 7.5 7.5h24.694v24.694c0 4.142 3.357 7.5 7.5 7.5h24.694v24.694c0 4.142 3.357 7.5 7.5 7.5h325.967c4.143 0 7.5-3.358 7.5-7.5v-434.624c.001-4.142-3.357-7.5-7.499-7.5zm-7.5 434.624h-310.967v-17.194h286.272c4.143 0 7.5-3.358 7.5-7.5v-394.93h17.194v419.624z"/><path d="m304.291 40.243h-160.971c-4.143 0-7.5 3.358-7.5 7.5v60.365c0 4.142 3.357 7.5 7.5 7.5h160.971c4.143 0 7.5-3.358 7.5-7.5v-60.365c0-4.142-3.357-7.5-7.5-7.5zm-7.5 60.364h-145.971v-45.364h145.971z"/><path d="m118.168 152.923c-13.566 0-24.604 11.037-24.604 24.604 0 13.566 11.037 24.603 24.604 24.603s24.604-11.037 24.604-24.603c-.001-13.567-11.038-24.604-24.604-24.604zm0 34.206c-5.295 0-9.604-4.308-9.604-9.603s4.309-9.604 9.604-9.604 9.604 4.308 9.604 9.604c-.001 5.295-4.309 9.603-9.604 9.603z"/><path d="m215.757 152.923h-48.291c-4.143 0-7.5 3.358-7.5 7.5s3.357 7.5 7.5 7.5h48.291c4.143 0 7.5-3.358 7.5-7.5s-3.358-7.5-7.5-7.5z"/><path d="m346.547 152.923h-49.298c-4.143 0-7.5 3.358-7.5 7.5s3.357 7.5 7.5 7.5h49.298c4.143 0 7.5-3.358 7.5-7.5s-3.358-7.5-7.5-7.5z"/><path d="m272.555 160.423c0-4.142-3.357-7.5-7.5-7.5h-17.104c-4.143 0-7.5 3.358-7.5 7.5s3.357 7.5 7.5 7.5h17.104c4.142 0 7.5-3.358 7.5-7.5z"/><path d="m167.466 202.129h18.109c4.143 0 7.5-3.358 7.5-7.5s-3.357-7.5-7.5-7.5h-18.109c-4.143 0-7.5 3.358-7.5 7.5s3.357 7.5 7.5 7.5z"/><path d="m346.547 187.129h-79.48c-4.143 0-7.5 3.358-7.5 7.5s3.357 7.5 7.5 7.5h79.48c4.143 0 7.5-3.358 7.5-7.5s-3.358-7.5-7.5-7.5z"/><path d="m234.872 187.129h-17.102c-4.143 0-7.5 3.358-7.5 7.5s3.357 7.5 7.5 7.5h17.103c4.143 0 7.5-3.358 7.5-7.5s-3.358-7.5-7.501-7.5z"/><path d="m118.168 268.53c13.566 0 24.604-11.037 24.604-24.603s-11.037-24.604-24.604-24.604-24.604 11.037-24.604 24.604c0 13.566 11.038 24.603 24.604 24.603zm0-34.206c5.295 0 9.604 4.308 9.604 9.604 0 5.295-4.309 9.603-9.604 9.603s-9.604-4.308-9.604-9.603c0-5.296 4.309-9.604 9.604-9.604z"/><path d="m167.466 234.324h48.291c4.143 0 7.5-3.358 7.5-7.5s-3.357-7.5-7.5-7.5h-48.291c-4.143 0-7.5 3.358-7.5 7.5s3.357 7.5 7.5 7.5z"/><path d="m346.547 219.324h-49.298c-4.143 0-7.5 3.358-7.5 7.5s3.357 7.5 7.5 7.5h49.298c4.143 0 7.5-3.358 7.5-7.5s-3.358-7.5-7.5-7.5z"/><path d="m272.555 226.824c0-4.142-3.357-7.5-7.5-7.5h-17.104c-4.143 0-7.5 3.358-7.5 7.5s3.357 7.5 7.5 7.5h17.104c4.142 0 7.5-3.358 7.5-7.5z"/><path d="m167.466 268.53h18.109c4.143 0 7.5-3.358 7.5-7.5s-3.357-7.5-7.5-7.5h-18.109c-4.143 0-7.5 3.358-7.5 7.5s3.357 7.5 7.5 7.5z"/><path d="m346.547 253.53h-79.48c-4.143 0-7.5 3.358-7.5 7.5s3.357 7.5 7.5 7.5h79.48c4.143 0 7.5-3.358 7.5-7.5s-3.358-7.5-7.5-7.5z"/><path d="m242.372 261.03c0-4.142-3.357-7.5-7.5-7.5h-17.102c-4.143 0-7.5 3.358-7.5 7.5s3.357 7.5 7.5 7.5h17.103c4.142 0 7.499-3.358 7.499-7.5z"/><path d="m118.168 334.931c13.566 0 24.604-11.037 24.604-24.603s-11.037-24.604-24.604-24.604-24.604 11.037-24.604 24.604c0 13.566 11.038 24.603 24.604 24.603zm0-34.206c5.295 0 9.604 4.308 9.604 9.604 0 5.295-4.309 9.603-9.604 9.603s-9.604-4.308-9.604-9.603c0-5.296 4.309-9.604 9.604-9.604z"/><path d="m167.466 300.725h48.291c4.143 0 7.5-3.358 7.5-7.5s-3.357-7.5-7.5-7.5h-48.291c-4.143 0-7.5 3.358-7.5 7.5s3.357 7.5 7.5 7.5z"/><path d="m346.547 285.725h-49.298c-4.143 0-7.5 3.358-7.5 7.5s3.357 7.5 7.5 7.5h49.298c4.143 0 7.5-3.358 7.5-7.5s-3.358-7.5-7.5-7.5z"/><path d="m247.951 300.725h17.104c4.143 0 7.5-3.358 7.5-7.5s-3.357-7.5-7.5-7.5h-17.104c-4.143 0-7.5 3.358-7.5 7.5s3.358 7.5 7.5 7.5z"/><path d="m167.466 334.931h18.109c4.143 0 7.5-3.358 7.5-7.5s-3.357-7.5-7.5-7.5h-18.109c-4.143 0-7.5 3.358-7.5 7.5s3.357 7.5 7.5 7.5z"/><path d="m346.547 319.931h-79.48c-4.143 0-7.5 3.358-7.5 7.5s3.357 7.5 7.5 7.5h79.48c4.143 0 7.5-3.358 7.5-7.5s-3.358-7.5-7.5-7.5z"/><path d="m210.27 327.431c0 4.142 3.357 7.5 7.5 7.5h17.103c4.143 0 7.5-3.358 7.5-7.5s-3.357-7.5-7.5-7.5h-17.103c-4.143 0-7.5 3.358-7.5 7.5z"/><path d="m118.168 401.332c13.566 0 24.604-11.037 24.604-24.604 0-13.566-11.037-24.603-24.604-24.603s-24.604 11.037-24.604 24.603c0 13.567 11.038 24.604 24.604 24.604zm0-34.207c5.295 0 9.604 4.308 9.604 9.603s-4.309 9.604-9.604 9.604-9.604-4.308-9.604-9.604c0-5.294 4.309-9.603 9.604-9.603z"/><path d="m223.257 359.625c0-4.142-3.357-7.5-7.5-7.5h-48.291c-4.143 0-7.5 3.358-7.5 7.5s3.357 7.5 7.5 7.5h48.291c4.142 0 7.5-3.357 7.5-7.5z"/><path d="m346.547 352.125h-49.298c-4.143 0-7.5 3.358-7.5 7.5s3.357 7.5 7.5 7.5h49.298c4.143 0 7.5-3.358 7.5-7.5s-3.358-7.5-7.5-7.5z"/><path d="m247.951 367.125h17.104c4.143 0 7.5-3.358 7.5-7.5s-3.357-7.5-7.5-7.5h-17.104c-4.143 0-7.5 3.358-7.5 7.5s3.358 7.5 7.5 7.5z"/><path d="m167.466 386.332c-4.143 0-7.5 3.358-7.5 7.5s3.357 7.5 7.5 7.5h18.109c4.143 0 7.5-3.358 7.5-7.5s-3.357-7.5-7.5-7.5z"/><path d="m267.066 401.332h79.48c4.143 0 7.5-3.358 7.5-7.5s-3.357-7.5-7.5-7.5h-79.48c-4.143 0-7.5 3.358-7.5 7.5s3.358 7.5 7.5 7.5z"/><path d="m217.77 401.332h17.103c4.143 0 7.5-3.358 7.5-7.5s-3.357-7.5-7.5-7.5h-17.103c-4.143 0-7.5 3.358-7.5 7.5s3.357 7.5 7.5 7.5z"/></g></g></svg>