<svg id="Capa_1" enable-background="new 0 0 512 512" height="512" viewBox="0 0 512 512" width="512" xmlns="http://www.w3.org/2000/svg"><g><g><path d="m239.837 108.517 70.712-101.016h39.396l-70.711 101.016z" fill="#544f57"/></g><g><path d="m272.163 108.517-70.712-101.016h-39.396l70.711 101.016z" fill="#665e66"/></g><g><path d="m239.837 84.273h32.325v80.813h-32.325z" fill="#dfeaef" transform="matrix(0 1 -1 0 380.679 -131.321)"/></g><g><path d="m272.163 108.517h24.244v32.325h-24.244z" fill="#d0e2e7"/></g><g><path d="m124.679 161.045v323.252c0 11.158 9.045 20.203 20.203 20.203h222.235c11.158 0 20.203-9.045 20.203-20.203v-323.252c0-11.158-9.045-20.203-20.203-20.203h-222.235c-11.158 0-20.203 9.045-20.203 20.203zm163.969 39.72c-2.929 2.919-6.97 4.727-11.435 4.727h-42.427c-8.93 0-16.163-7.233-16.163-16.163s7.233-16.163 16.163-16.163h42.427c8.93 0 16.163 7.233 16.163 16.163 0 4.466-1.808 8.506-4.728 11.436z" fill="#cbe2ff"/></g><g><path d="m368.128 140.893v334.312c0 5.579-4.523 10.102-10.102 10.102h-233.296c.53 10.685 9.335 19.193 20.152 19.193h222.235c11.158 0 20.203-9.045 20.203-20.203v-323.252c.001-10.817-8.507-19.622-19.192-20.152z" fill="#bed8fb"/></g><g><path d="m239.837 135.791h32.325v42.427h-32.325z" fill="#665e66" transform="matrix(0 1 -1 0 413.005 -98.996)"/></g><g><path d="m195.39 247.919h121.219v101.016h-121.219z" fill="#e28086" transform="matrix(0 1 -1 0 554.427 42.427)"/></g><g><path d="m205.492 326.712v32.325h101.016v-32.325c0-11.158-9.045-20.203-20.203-20.203h-60.61c-11.158-.001-20.203 9.045-20.203 20.203z" fill="#ffd064"/></g><g><circle cx="256" cy="288.326" fill="#ffe07d" r="18.183"/></g><g><path d="m387.321 228.167c-4.142 0-7.5 3.358-7.5 7.5v248.63c0 7.004-5.699 12.703-12.704 12.703h-222.235c-7.005 0-12.704-5.699-12.704-12.703v-33.94c0-4.142-3.358-7.5-7.5-7.5s-7.5 3.358-7.5 7.5v33.94c0 15.275 12.428 27.703 27.704 27.703h222.235c15.276 0 27.704-12.428 27.704-27.703v-248.63c0-4.142-3.358-7.5-7.5-7.5z"/><path d="m367.118 133.342h-63.211v-24.825c0-4.142-3.358-7.5-7.5-7.5h-2.768l62.451-89.215c2.375-3.393 1.55-8.07-1.843-10.445s-8.069-1.55-10.445 1.843l-68.103 97.29-10.544-15.063 51.539-73.624c2.375-3.394 1.55-8.07-1.843-10.445-3.394-2.375-8.069-1.55-10.445 1.843l-48.406 69.148-48.405-69.149c-2.375-3.394-7.053-4.219-10.445-1.843-3.394 2.375-4.219 7.052-1.843 10.445l62.451 89.215h-21.087l-68.472-97.817c-2.376-3.394-7.053-4.219-10.445-1.843-3.394 2.375-4.219 7.052-1.843 10.445l62.451 89.215h-2.768c-4.142 0-7.5 3.358-7.5 7.5v24.825h-63.211c-15.276 0-27.704 12.428-27.704 27.704v254.294c0 4.142 3.358 7.5 7.5 7.5s7.5-3.358 7.5-7.5v-254.295c0-7.005 5.699-12.704 12.704-12.704h82.404v18.551c-9.381 3.144-16.163 12.011-16.163 22.437 0 13.048 10.615 23.663 23.663 23.663h42.427c6.314 0 12.255-2.456 16.729-6.916.006-.006.012-.012.018-.018 4.459-4.475 6.916-10.416 6.916-16.729 0-10.426-6.781-19.293-16.163-22.437v-18.551h82.404c7.005 0 12.704 5.699 12.704 12.704v39.598c0 4.142 3.358 7.5 7.5 7.5s7.5-3.358 7.5-7.5v-39.598c-.001-15.275-12.429-27.703-27.704-27.703zm-144.025-17.325h65.813v17.325h-65.813zm60.252 79.444c-1.642 1.632-3.819 2.531-6.132 2.531h-42.427c-4.776 0-8.663-3.886-8.663-8.663 0-4.776 3.886-8.663 8.663-8.663h42.427c4.776 0 8.663 3.886 8.663 8.663 0 2.313-.899 4.49-2.531 6.132zm-13.632-29.794h-27.427v-17.325h27.427z"/><path d="m327.722 388.913h-80.813c-4.142 0-7.5 3.358-7.5 7.5s3.358 7.5 7.5 7.5h80.813c4.142 0 7.5-3.358 7.5-7.5s-3.358-7.5-7.5-7.5z"/><path d="m176.778 396.413c0 4.142 3.358 7.5 7.5 7.5h30.305c4.142 0 7.5-3.358 7.5-7.5s-3.358-7.5-7.5-7.5h-30.305c-4.142 0-7.5 3.358-7.5 7.5z"/><path d="m327.722 423.258h-80.813c-4.142 0-7.5 3.358-7.5 7.5s3.358 7.5 7.5 7.5h80.813c4.142 0 7.5-3.358 7.5-7.5s-3.358-7.5-7.5-7.5z"/><path d="m184.278 438.258h30.305c4.142 0 7.5-3.358 7.5-7.5s-3.358-7.5-7.5-7.5h-30.305c-4.142 0-7.5 3.358-7.5 7.5s3.358 7.5 7.5 7.5z"/><path d="m327.722 457.604h-80.813c-4.142 0-7.5 3.358-7.5 7.5s3.358 7.5 7.5 7.5h80.813c4.142 0 7.5-3.358 7.5-7.5s-3.358-7.5-7.5-7.5z"/><path d="m184.278 472.604h30.305c4.142 0 7.5-3.358 7.5-7.5s-3.358-7.5-7.5-7.5h-30.305c-4.142 0-7.5 3.358-7.5 7.5s3.358 7.5 7.5 7.5z"/><path d="m306.508 230.317h-101.016c-4.142 0-7.5 3.358-7.5 7.5v121.22c0 4.142 3.358 7.5 7.5 7.5h101.016c4.142 0 7.5-3.358 7.5-7.5v-121.22c0-4.142-3.358-7.5-7.5-7.5zm-7.5 15v56.781c-3.807-1.973-8.127-3.089-12.704-3.089h-6.958c1.496-3.256 2.336-6.872 2.336-10.683 0-14.162-11.521-25.683-25.683-25.683s-25.683 11.521-25.683 25.683c0 3.811.841 7.427 2.336 10.683h-6.958c-4.577 0-8.896 1.118-12.704 3.091v-56.783zm-53.691 43.009c0-5.891 4.792-10.683 10.683-10.683s10.683 4.792 10.683 10.683-4.792 10.683-10.683 10.683-10.683-4.793-10.683-10.683zm53.691 63.211h-86.016v-24.825c0-7.004 5.699-12.703 12.704-12.703h60.609c7.005 0 12.704 5.699 12.704 12.703v24.825z"/></g></g></svg>