<svg id="Capa_1" enable-background="new 0 0 512 512" height="512" viewBox="0 0 512 512" width="512" xmlns="http://www.w3.org/2000/svg"><g><g><path d="m70.13 7.5h371.74v497h-371.74z" fill="#ffc250"/></g><g><path d="m70.13 7.5v60.068l23.775 66.569c1.436 4.02 5.244 6.704 9.513 6.704h305.164c4.269 0 8.077-2.684 9.513-6.704l.002-.004c.694-1.943 3.57-1.445 3.57.618v369.749h20.203v-497z" fill="#ebb044"/></g><g><path d="m70.13 7.5 38.012 106.434c1.436 4.02 5.244 6.704 9.513 6.704h276.689c4.269 0 8.077-2.684 9.513-6.704l38.013-106.434z" fill="#ffe07d"/></g><g><path d="m412.575 7.5-40.406 113.138h22.176c4.269 0 8.077-2.684 9.513-6.704l38.012-106.434z" fill="#ffd064"/></g><g><circle cx="256" cy="64.069" fill="#665e66" r="24.244"/></g><g><circle cx="256" cy="177.207" fill="#665e66" r="24.244"/></g><g><path d="m122.659 389.341h48.488v70.711h-48.488z" fill="#9bd069"/></g><g><path d="m441.87 149.541c4.142 0 7.5-3.358 7.5-7.5v-134.541c0-4.142-3.358-7.5-7.5-7.5h-371.74c-4.142 0-7.5 3.358-7.5 7.5v353.286c0 4.142 3.358 7.5 7.5 7.5s7.5-3.358 7.5-7.5v-309.987l23.449 65.658c2.496 6.987 9.157 11.681 16.576 11.681h106.601v49.069c0 14.92 10.349 27.461 24.244 30.841v288.952h-170.87v-101.201c0-4.142-3.358-7.5-7.5-7.5s-7.5 3.358-7.5 7.5v108.701c0 4.142 3.358 7.5 7.5 7.5h371.74c4.142 0 7.5-3.358 7.5-7.5v-327.429c0-4.142-3.358-7.5-7.5-7.5s-7.5 3.358-7.5 7.5v319.929h-170.87v-288.952c13.895-3.38 24.244-15.921 24.244-30.841v-49.069h106.601c7.419 0 14.081-4.694 16.576-11.682l23.449-65.658v91.242c0 4.143 3.358 7.501 7.5 7.501zm-185.87 44.41c-9.233 0-16.744-7.511-16.744-16.744s7.511-16.744 16.744-16.744 16.744 7.511 16.744 16.744-7.511 16.744-16.744 16.744zm16.744-43.696c-4.864-3.033-10.601-4.792-16.744-4.792s-11.88 1.759-16.744 4.792v-22.117h33.488zm-33.488-59.234c4.864 3.033 10.601 4.792 16.744 4.792s11.88-1.759 16.744-4.792v22.117h-33.488zm0-26.952c0-9.233 7.511-16.744 16.744-16.744s16.744 7.511 16.744 16.744c0 9.232-7.511 16.744-16.744 16.744s-16.744-7.511-16.744-16.744zm157.539 47.342c-.369 1.033-1.354 1.727-2.45 1.727h-106.601v-49.069c0-17.504-14.24-31.744-31.744-31.744s-31.744 14.24-31.744 31.744v49.069h-106.601c-1.097 0-2.081-.694-2.45-1.727l-34.433-96.411h350.455z"/><path d="m115.159 357.016c0 4.142 3.358 7.5 7.5 7.5s7.5-3.358 7.5-7.5v-75.762c0-4.142-3.358-7.5-7.5-7.5s-7.5 3.358-7.5 7.5z"/><path d="m122.659 256.429c4.142 0 7.5-3.358 7.5-7.5v-19.193c0-4.142-3.358-7.5-7.5-7.5s-7.5 3.358-7.5 7.5v19.193c0 4.142 3.358 7.5 7.5 7.5z"/><path d="m154.984 311.988c4.142 0 7.5-3.358 7.5-7.5v-74.752c0-4.142-3.358-7.5-7.5-7.5s-7.5 3.358-7.5 7.5v74.752c0 4.142 3.358 7.5 7.5 7.5z"/><path d="m147.484 357.016c0 4.142 3.358 7.5 7.5 7.5s7.5-3.358 7.5-7.5v-20.203c0-4.142-3.358-7.5-7.5-7.5s-7.5 3.358-7.5 7.5z"/><path d="m194.809 357.016v-85.864c0-4.142-3.358-7.5-7.5-7.5s-7.5 3.358-7.5 7.5v85.864c0 4.142 3.358 7.5 7.5 7.5s7.5-3.358 7.5-7.5z"/><path d="m115.159 460.053c0 4.142 3.358 7.5 7.5 7.5h48.488c4.142 0 7.5-3.358 7.5-7.5v-70.711c0-4.142-3.358-7.5-7.5-7.5h-48.488c-4.142 0-7.5 3.358-7.5 7.5zm15-63.212h33.488v55.711h-33.488z"/></g></g></svg>