<svg id="Capa_1" enable-background="new 0 0 512 512" height="512" viewBox="0 0 512 512" width="512" xmlns="http://www.w3.org/2000/svg"><g><g><g><path d="m287.315 482.276h-30.305l-20.203-32.325h70.711z" fill="#e2a770"/></g><g><path d="m236.807 102.455h35.356v347.496h-35.356z" fill="#ffe07d"/></g><g><path d="m272.163 102.455h35.356v347.496h-35.356z" fill="#ebb044"/></g><g><path d="m236.807 70.13h70.711v32.325h-70.711z" fill="#dfeaef"/></g><g><path d="m285.295 70.13h22.224v32.325h-22.224z" fill="#d0e2e7"/></g><g><path d="m287.315 7.5h-30.305c-11.158 0-20.203 9.045-20.203 20.203v42.427h70.711v-42.427c0-11.158-9.045-20.203-20.203-20.203z" fill="#e28086"/></g><g><path d="m285.295 70.13v-42.427c0-11.158-9.045-20.203-20.203-20.203h22.224c11.158 0 20.203 9.045 20.203 20.203v42.427z" fill="#dd636e"/></g></g><g><path d="m414.596 7.5h-50.508c-5.579 0-10.102 4.523-10.102 10.102v101.016h70.711v-101.016c0-5.579-4.523-10.102-10.101-10.102z" fill="#cbe2ff"/></g><g><path d="m414.596 7.5h-20.203c5.579 0 10.102 4.523 10.102 10.102v101.016h20.203v-101.016c-.001-5.579-4.524-10.102-10.102-10.102z" fill="#bed8fb"/></g><g><path d="m424.697 118.618h-70.711v343.455c0 5.579 4.523 10.102 10.102 10.102h50.508c5.579 0 10.102-4.523 10.102-10.102v-343.455z" fill="#f6f9f9"/></g><g><path d="m424.697 118.618h-70.711v343.455c0 5.579 4.523 10.102 10.102 10.102h50.508c5.579 0 10.102-4.523 10.102-10.102v-343.455z" fill="#f1f4f6"/></g><g><path d="m404.494 118.618v343.455c0 5.579-4.523 10.102-10.102 10.102h20.203c5.579 0 10.102-4.523 10.102-10.102v-343.455z" fill="#dfeaef"/></g><g><path d="m413.585 472.175h-48.488v22.224c0 5.579 4.523 10.102 10.102 10.102h28.285c5.579 0 10.102-4.523 10.102-10.102v-22.224z" fill="#bed8fb"/></g><g><g><path d="m87.303 223.675h70.711v32.325h-70.711z" fill="#ffe07d"/></g><g><path d="m87.303 47.907h70.711v175.768h-70.711z" fill="#665e66"/></g><g><path d="m136.801 7.5h-28.285c-5.579 0-10.102 4.523-10.102 10.102v30.305h48.488v-30.305c0-5.579-4.522-10.102-10.101-10.102z" fill="#dfeaef"/></g><g><path d="m176.197 70.13h-18.183v121.22h32.325v-107.078c0-7.81-6.331-14.142-14.142-14.142z" fill="#dfeaef"/></g><g><path d="m87.303 256v182.363c0 7.573 2.128 14.994 6.142 21.415l14.061 22.498h30.305l14.061-22.498c4.014-6.422 6.142-13.842 6.142-21.415v-182.363z" fill="#665e66"/></g><g><path d="m135.791 223.675h22.224v32.325h-22.224z" fill="#ffd064"/></g><g><path d="m135.791 47.907h22.224v175.768h-22.224z" fill="#544f57"/></g><g><path d="m135.791 256v182.363c0 7.573-2.128 14.994-6.142 21.415l-14.061 22.498h22.224l14.061-22.498c4.014-6.422 6.142-13.842 6.142-21.415v-182.363c-.001 0-12.646 0-22.224 0z" fill="#544f57"/></g></g><g><path d="m287.315 0h-30.305c-15.275 0-27.703 12.428-27.703 27.703v422.248c0 1.448.417 2.795 1.128 3.941.007.011.006.023.013.034l32.212 52.653c1.978 3.344 5.619 5.421 9.504 5.421 3.887 0 7.529-2.079 9.505-5.424l32.211-52.65c.009-.014.01-.029.018-.044.707-1.144 1.122-2.488 1.122-3.932v-110.834c0-4.142-3.357-7.5-7.5-7.5s-7.5 3.358-7.5 7.5v103.335h-20.355v-332.496h20.355v193.991c0 4.142 3.357 7.5 7.5 7.5s7.5-3.358 7.5-7.5v-276.243c-.001-15.275-12.429-27.703-27.705-27.703zm-30.305 15h30.306c7.005 0 12.703 5.699 12.703 12.703v34.927h-55.711v-34.927c-.001-7.004 5.697-12.703 12.702-12.703zm26.148 459.776h-21.991l-10.828-17.325h43.647zm-18.495-32.325h-20.356v-332.496h20.356zm-20.356-347.496v-17.325h55.711v17.325z"/><path d="m392.372 143.443h-6.062c-4.143 0-7.5 3.358-7.5 7.5s3.357 7.5 7.5 7.5h6.062c4.143 0 7.5-3.358 7.5-7.5s-3.357-7.5-7.5-7.5z"/><path d="m176.197 62.63h-10.683v-14.723c0-4.142-3.358-7.5-7.5-7.5h-3.612v-22.805c0-9.706-7.896-17.602-17.601-17.602h-28.285c-9.706 0-17.602 7.896-17.602 17.602v22.805h-3.612c-4.142 0-7.5 3.358-7.5 7.5v95.502c0 4.142 3.358 7.5 7.5 7.5s7.5-3.358 7.5-7.5v-88.002h55.711v160.768h-55.71v-37.67c0-4.142-3.358-7.5-7.5-7.5s-7.5 3.358-7.5 7.5v259.858c0 8.988 2.518 17.768 7.282 25.391l26.069 42.823c1.977 3.345 5.619 5.423 9.505 5.423 3.887 0 7.529-2.079 9.505-5.424l26.069-42.823c4.764-7.622 7.282-16.402 7.282-25.391v-239.512h24.825c4.142 0 7.5-3.358 7.5-7.5v-107.078c-.001-11.933-9.709-21.642-21.643-21.642zm-70.282-45.028c0-1.435 1.167-2.602 2.602-2.602h28.285c1.435 0 2.602 1.167 2.602 2.602v22.805h-33.488v-22.805zm44.599 213.573v17.325h-55.711v-17.325zm-5.001 224.628-11.858 18.973h-21.992l-11.858-18.973c-3.272-5.236-5.002-11.267-5.002-17.44v-174.863h55.711v174.863c0 6.174-1.729 12.205-5.001 17.44zm37.326-271.953h-17.325v-106.22h10.683c3.663 0 6.642 2.98 6.642 6.643z"/><path d="m414.596 0h-50.509c-9.705 0-17.602 7.896-17.602 17.602v444.472c0 7.413 4.612 13.756 11.112 16.346v15.979c0 9.706 7.896 17.602 17.602 17.602h28.284c9.705 0 17.602-7.896 17.602-17.602v-15.979c6.5-2.59 11.112-8.934 11.112-16.346v-263.03c0-4.142-3.357-7.5-7.5-7.5s-7.5 3.358-7.5 7.5v263.029c0 1.435-1.167 2.602-2.602 2.602h-50.509c-1.435 0-2.602-1.167-2.602-2.602v-335.955h55.712v37.909c0 4.142 3.357 7.5 7.5 7.5s7.5-3.358 7.5-7.5v-146.425c.001-9.706-7.895-17.602-17.6-17.602zm-11.113 497h-28.284c-1.435 0-2.602-1.167-2.602-2.602v-14.724h33.487v14.724c.001 1.435-1.166 2.602-2.601 2.602zm-41.998-385.882v-93.516c0-1.435 1.167-2.602 2.602-2.602h50.509c1.435 0 2.602 1.167 2.602 2.602v93.516z"/><path d="m392.372 175.768h-6.062c-4.143 0-7.5 3.358-7.5 7.5s3.357 7.5 7.5 7.5h6.062c4.143 0 7.5-3.358 7.5-7.5s-3.357-7.5-7.5-7.5z"/><path d="m392.372 208.093h-6.062c-4.143 0-7.5 3.358-7.5 7.5s3.357 7.5 7.5 7.5h6.062c4.143 0 7.5-3.358 7.5-7.5s-3.357-7.5-7.5-7.5z"/></g></g></svg>