<svg id="Capa_1" enable-background="new 0 0 512 512" height="512" viewBox="0 0 512 512" width="512" xmlns="http://www.w3.org/2000/svg"><g><g><path d="m484.297 504.5h-456.594c-11.158 0-20.203-9.045-20.203-20.203v-353.557h497v353.557c0 11.158-9.045 20.203-20.203 20.203z" fill="#f1f4f6"/></g><g><path d="m480.256 130.74v353.557c0 11.158-9.045 20.203-20.203 20.203h24.244c11.158 0 20.203-9.045 20.203-20.203v-353.557z" fill="#dfeaef"/></g><g><path d="m504.5 130.74h-497v-60.61c0-11.158 9.045-20.203 20.203-20.203h456.594c11.158 0 20.203 9.045 20.203 20.203z" fill="#e28086"/></g><g><path d="m484.297 49.927h-24.244c11.158 0 20.203 9.045 20.203 20.203v60.61h24.244v-60.61c0-11.158-9.045-20.203-20.203-20.203z" fill="#dd636e"/></g><g><g><path d="m235.797 197.411h40.407v60.61h-40.407z" fill="#665e66" transform="matrix(0 1 -1 0 483.716 -28.285)"/></g><g><path d="m328.732 197.411h40.407v60.61h-40.407z" fill="#665e66" transform="matrix(0 1 -1 0 576.65 -121.22)"/></g><g><path d="m49.927 270.142h40.407v60.61h-40.407z" fill="#665e66" transform="matrix(0 1 -1 0 370.577 230.317)"/></g><g><path d="m142.862 270.142h40.407v60.61h-40.407z" fill="#665e66" transform="matrix(0 1 -1 0 463.512 137.382)"/></g><g><path d="m235.797 270.142h40.407v60.61h-40.407z" fill="#665e66" transform="matrix(0 1 -1 0 556.447 44.447)"/></g><g><path d="m328.732 270.142h40.407v60.61h-40.407z" fill="#665e66" transform="matrix(0 1 -1 0 649.382 -48.488)"/></g><g><path d="m49.927 342.874h40.407v60.61h-40.407z" fill="#665e66" transform="matrix(0 1 -1 0 443.309 303.049)"/></g><g><path d="m142.862 342.874h40.407v60.61h-40.407z" fill="#665e66" transform="matrix(0 1 -1 0 536.244 210.114)"/></g><g><path d="m235.797 342.874h40.407v60.61h-40.407z" fill="#cbe2ff" transform="matrix(0 1 -1 0 629.179 117.179)"/></g><g><path d="m49.927 415.606h40.407v60.61h-40.407z" fill="#665e66" transform="matrix(0 1 -1 0 516.041 375.781)"/></g><g><path d="m142.862 415.606h40.407v60.61h-40.407z" fill="#665e66" transform="matrix(0 1 -1 0 608.976 282.846)"/></g><g><path d="m235.797 415.606h40.407v60.61h-40.407z" fill="#665e66" transform="matrix(0 1 -1 0 701.911 189.911)"/></g><g><path d="m328.732 415.606h40.407v60.61h-40.407z" fill="#665e66" transform="matrix(0 1 -1 0 794.846 96.976)"/></g><g><path d="m421.667 197.411h40.407v60.61h-40.407z" fill="#e28086" transform="matrix(0 1 -1 0 669.585 -214.155)"/></g><g><path d="m421.667 270.142h40.407v60.61h-40.407z" fill="#e28086" transform="matrix(0 1 -1 0 742.317 -141.423)"/></g><g><path d="m421.667 342.874h40.407v60.61h-40.407z" fill="#e28086" transform="matrix(0 1 -1 0 815.049 -68.691)"/></g><g><path d="m421.667 415.606h40.407v60.61h-40.407z" fill="#e28086" transform="matrix(0 1 -1 0 887.781 4.041)"/></g><g><path d="m328.732 342.874h40.407v60.61h-40.407z" fill="#cbe2ff" transform="matrix(0 1 -1 0 722.114 24.244)"/></g></g><g><g><g><path d="m421.667 92.354c-11.158 0-20.203-9.045-20.203-20.203v-44.448c0-11.158 9.045-20.203 20.203-20.203 11.158 0 20.203 9.045 20.203 20.203v44.447c0 11.158-9.045 20.204-20.203 20.204z" fill="#ffe07d"/></g></g><g><g><path d="m338.833 92.354c-11.158 0-20.203-9.045-20.203-20.203v-44.448c0-11.158 9.045-20.203 20.203-20.203 11.158 0 20.203 9.045 20.203 20.203v44.447c.001 11.158-9.045 20.204-20.203 20.204z" fill="#ffe07d"/></g></g><g><g><path d="m256 92.354c-11.158 0-20.203-9.045-20.203-20.203v-44.448c0-11.158 9.045-20.203 20.203-20.203 11.158 0 20.203 9.045 20.203 20.203v44.447c0 11.158-9.045 20.204-20.203 20.204z" fill="#ffe07d"/></g></g><g><g><path d="m173.167 92.354c-11.158 0-20.203-9.045-20.203-20.203v-44.448c0-11.158 9.045-20.203 20.203-20.203 11.158 0 20.203 9.045 20.203 20.203v44.447c0 11.158-9.045 20.204-20.203 20.204z" fill="#ffe07d"/></g></g><g><g><path d="m90.333 92.354c-11.158 0-20.203-9.045-20.203-20.203v-44.448c0-11.158 9.045-20.203 20.203-20.203 11.158 0 20.203 9.045 20.203 20.203v44.447c.001 11.158-9.045 20.204-20.203 20.204z" fill="#ffe07d"/></g></g></g><g><path d="m504.5 259.616c-4.143 0-7.5 3.358-7.5 7.5v217.181c0 7.004-5.698 12.703-12.703 12.703h-456.594c-7.005 0-12.703-5.699-12.703-12.703v-91.52c0-4.142-3.357-7.5-7.5-7.5s-7.5 3.358-7.5 7.5v91.52c0 15.275 12.428 27.703 27.703 27.703h456.594c15.275 0 27.703-12.428 27.703-27.703v-217.181c0-4.142-3.357-7.5-7.5-7.5z"/><path d="m484.3 42.43h-34.93v-14.727c0-15.275-12.428-27.703-27.703-27.703s-27.703 12.428-27.703 27.703v14.727h-27.428v-14.727c0-15.275-12.428-27.703-27.703-27.703s-27.703 12.428-27.703 27.703v14.727h-27.427v-14.727c0-15.275-12.428-27.703-27.703-27.703s-27.703 12.428-27.703 27.703v14.727h-27.427v-14.727c0-15.275-12.428-27.703-27.703-27.703s-27.703 12.428-27.703 27.703v14.727h-27.428v-14.727c0-15.275-12.428-27.703-27.703-27.703s-27.703 12.428-27.703 27.703v14.727h-34.93c-15.274 0-27.7 12.426-27.7 27.7v287.513c0 4.142 3.357 7.5 7.5 7.5s7.5-3.358 7.5-7.5v-219.403h96.259c4.143 0 7.5-3.358 7.5-7.5s-3.357-7.5-7.5-7.5h-96.259v-53.11c0-7.002 5.697-12.7 12.7-12.7h34.93v14.72c0 15.275 12.428 27.703 27.703 27.703s27.703-12.428 27.703-27.703v-14.72h27.428v14.72c0 15.275 12.428 27.703 27.703 27.703s27.703-12.427 27.703-27.703v-14.72h27.427v14.72c0 15.275 12.428 27.703 27.703 27.703s27.703-12.428 27.703-27.703v-14.72h27.427v14.72c0 15.275 12.428 27.703 27.703 27.703s27.703-12.428 27.703-27.703v-14.72h27.428v14.72c0 15.275 12.428 27.703 27.703 27.703s27.703-12.427 27.703-27.703v-14.72h34.93c7.003 0 12.7 5.697 12.7 12.7v53.11h-350.674c-4.143 0-7.5 3.358-7.5 7.5s3.357 7.5 7.5 7.5h350.674v93.831c0 4.142 3.357 7.5 7.5 7.5s7.5-3.358 7.5-7.5v-161.941c0-15.274-12.426-27.7-27.7-27.7zm-381.264 29.72c0 7.004-5.698 12.703-12.703 12.703s-12.703-5.698-12.703-12.703v-44.447c0-7.004 5.698-12.703 12.703-12.703s12.703 5.699 12.703 12.703zm82.834 0c0 7.004-5.698 12.703-12.703 12.703s-12.703-5.699-12.703-12.703v-44.447c0-7.004 5.698-12.703 12.703-12.703s12.703 5.699 12.703 12.703zm70.13 12.704c-7.005 0-12.703-5.699-12.703-12.703v-22.163c0-.02.003-.039.003-.058s-.003-.038-.003-.058v-22.169c0-7.004 5.698-12.703 12.703-12.703s12.703 5.699 12.703 12.703v22.169c0 .02-.003.039-.003.058s.003.038.003.058v22.162c0 7.005-5.698 12.704-12.703 12.704zm95.536-12.704c0 7.004-5.698 12.703-12.703 12.703s-12.703-5.698-12.703-12.703v-44.447c0-7.004 5.698-12.703 12.703-12.703s12.703 5.699 12.703 12.703zm82.834 0c0 7.004-5.698 12.703-12.703 12.703s-12.703-5.699-12.703-12.703v-44.447c0-7.004 5.698-12.703 12.703-12.703s12.703 5.699 12.703 12.703z"/><path d="m472.175 161.626h-432.35c-4.143 0-7.5 3.358-7.5 7.5s3.357 7.5 7.5 7.5h432.35c4.143 0 7.5-3.358 7.5-7.5s-3.358-7.5-7.5-7.5z"/><path d="m293.805 207.512c0-4.142-3.357-7.5-7.5-7.5h-60.609c-4.143 0-7.5 3.358-7.5 7.5v40.406c0 4.142 3.357 7.5 7.5 7.5h60.609c4.143 0 7.5-3.358 7.5-7.5zm-15 32.906h-45.609v-25.406h45.609z"/><path d="m386.74 207.512c0-4.142-3.357-7.5-7.5-7.5h-60.61c-4.143 0-7.5 3.358-7.5 7.5v40.406c0 4.142 3.357 7.5 7.5 7.5h60.61c4.143 0 7.5-3.358 7.5-7.5zm-15 32.906h-45.61v-25.406h45.61z"/><path d="m479.675 207.512c0-4.142-3.357-7.5-7.5-7.5h-60.609c-4.143 0-7.5 3.358-7.5 7.5v40.406c0 4.142 3.357 7.5 7.5 7.5h60.609c4.143 0 7.5-3.358 7.5-7.5zm-15 32.906h-45.609v-25.406h45.609z"/><path d="m32.325 320.65c0 4.142 3.357 7.5 7.5 7.5h60.609c4.143 0 7.5-3.358 7.5-7.5v-40.406c0-4.142-3.357-7.5-7.5-7.5h-60.609c-4.143 0-7.5 3.358-7.5 7.5zm15-32.906h45.609v25.406h-45.609z"/><path d="m200.87 280.244c0-4.142-3.357-7.5-7.5-7.5h-60.61c-4.143 0-7.5 3.358-7.5 7.5v40.406c0 4.142 3.357 7.5 7.5 7.5h60.61c4.143 0 7.5-3.358 7.5-7.5zm-15 32.906h-45.61v-25.406h45.61z"/><path d="m293.805 280.244c0-4.142-3.357-7.5-7.5-7.5h-60.609c-4.143 0-7.5 3.358-7.5 7.5v40.406c0 4.142 3.357 7.5 7.5 7.5h60.609c4.143 0 7.5-3.358 7.5-7.5zm-15 32.906h-45.609v-25.406h45.609z"/><path d="m386.74 280.244c0-4.142-3.357-7.5-7.5-7.5h-60.61c-4.143 0-7.5 3.358-7.5 7.5v40.406c0 4.142 3.357 7.5 7.5 7.5h60.61c4.143 0 7.5-3.358 7.5-7.5zm-15 32.906h-45.61v-25.406h45.61z"/><path d="m479.675 280.244c0-4.142-3.357-7.5-7.5-7.5h-60.609c-4.143 0-7.5 3.358-7.5 7.5v40.406c0 4.142 3.357 7.5 7.5 7.5h60.609c4.143 0 7.5-3.358 7.5-7.5zm-15 32.906h-45.609v-25.406h45.609z"/><path d="m32.325 393.382c0 4.142 3.357 7.5 7.5 7.5h60.609c4.143 0 7.5-3.358 7.5-7.5v-40.407c0-4.142-3.357-7.5-7.5-7.5h-60.609c-4.143 0-7.5 3.358-7.5 7.5zm15-32.906h45.609v25.407h-45.609z"/><path d="m200.87 352.976c0-4.142-3.357-7.5-7.5-7.5h-60.61c-4.143 0-7.5 3.358-7.5 7.5v40.407c0 4.142 3.357 7.5 7.5 7.5h60.61c4.143 0 7.5-3.358 7.5-7.5zm-15 32.906h-45.61v-25.407h45.61z"/><path d="m293.805 352.976c0-4.142-3.357-7.5-7.5-7.5h-60.609c-4.143 0-7.5 3.358-7.5 7.5v40.407c0 4.142 3.357 7.5 7.5 7.5h60.609c4.143 0 7.5-3.358 7.5-7.5zm-15 32.906h-45.609v-25.407h45.609z"/><path d="m386.74 352.976c0-4.142-3.357-7.5-7.5-7.5h-60.61c-4.143 0-7.5 3.358-7.5 7.5v40.407c0 4.142 3.357 7.5 7.5 7.5h60.61c4.143 0 7.5-3.358 7.5-7.5zm-15 32.906h-45.61v-25.407h45.61z"/><path d="m479.675 352.976c0-4.142-3.357-7.5-7.5-7.5h-60.609c-4.143 0-7.5 3.358-7.5 7.5v40.407c0 4.142 3.357 7.5 7.5 7.5h60.609c4.143 0 7.5-3.358 7.5-7.5zm-15 32.906h-45.609v-25.407h45.609z"/><path d="m32.325 466.114c0 4.142 3.357 7.5 7.5 7.5h60.609c4.143 0 7.5-3.358 7.5-7.5v-40.406c0-4.142-3.357-7.5-7.5-7.5h-60.609c-4.143 0-7.5 3.358-7.5 7.5zm15-32.906h45.609v25.406h-45.609z"/><path d="m193.37 418.208h-60.61c-4.143 0-7.5 3.358-7.5 7.5v40.406c0 4.142 3.357 7.5 7.5 7.5h60.61c4.143 0 7.5-3.358 7.5-7.5v-40.406c0-4.143-3.357-7.5-7.5-7.5zm-7.5 40.406h-45.61v-25.406h45.61z"/><path d="m286.305 418.208h-60.609c-4.143 0-7.5 3.358-7.5 7.5v40.406c0 4.142 3.357 7.5 7.5 7.5h60.609c4.143 0 7.5-3.358 7.5-7.5v-40.406c0-4.143-3.358-7.5-7.5-7.5zm-7.5 40.406h-45.609v-25.406h45.609z"/><path d="m379.24 418.208h-60.61c-4.143 0-7.5 3.358-7.5 7.5v40.406c0 4.142 3.357 7.5 7.5 7.5h60.61c4.143 0 7.5-3.358 7.5-7.5v-40.406c0-4.143-3.357-7.5-7.5-7.5zm-7.5 40.406h-45.61v-25.406h45.61z"/><path d="m472.175 418.208h-60.609c-4.143 0-7.5 3.358-7.5 7.5v40.406c0 4.142 3.357 7.5 7.5 7.5h60.609c4.143 0 7.5-3.358 7.5-7.5v-40.406c0-4.143-3.358-7.5-7.5-7.5zm-7.5 40.406h-45.609v-25.406h45.609z"/></g></g></svg>