<svg id="Capa_1" enable-background="new 0 0 512 512" height="512" viewBox="0 0 512 512" width="512" xmlns="http://www.w3.org/2000/svg"><g><g><path d="m417.626 169.126c0-88.881-71.744-161.006-160.48-161.622-89.175-.62-162.773 72.446-162.772 161.623.001 56.485 28.979 106.197 72.878 135.093 11.342 7.466 18.036 20.255 18.036 33.834v27.044h141.423v-27.238c0-13.594 6.849-26.258 18.196-33.745 43.81-28.911 72.719-78.572 72.719-134.989z" fill="#ffe07d"/></g><g><path d="m369.577 54.149c14.729 25.525 23.159 55.142 23.159 86.73 0 95.979-77.807 173.785-173.786 173.785-16.088 0-31.662-2.196-46.448-6.287 8.12 7.596 12.786 18.356 12.786 29.677v27.044h141.423v-27.238c0-13.594 6.849-26.258 18.196-33.745 43.81-28.911 72.719-78.572 72.719-134.989 0-44.988-18.388-85.675-48.049-114.977z" fill="#ffd064"/></g><g><path d="m320.65 456.012h-129.301c-5.579 0-10.102-4.523-10.102-10.102v-46.467h149.504v46.467c.001 5.579-4.522 10.102-10.101 10.102z" fill="#f1f4f6"/></g><g><path d="m308.023 399.443v46.467c0 5.579-4.523 10.102-10.102 10.102h22.729c5.579 0 10.102-4.523 10.102-10.102v-46.467z" fill="#dfeaef"/></g><g><path d="m328.732 399.443h-145.464c-5.579 0-10.102-4.523-10.102-10.102v-14.142c0-5.579 4.523-10.102 10.102-10.102h145.463c5.579 0 10.102 4.523 10.102 10.102v14.142c0 5.579-4.522 10.102-10.101 10.102z" fill="#665e66"/></g><g><path d="m328.732 365.097h-30.738c5.579 0 10.102 4.523 10.102 10.102v14.142c0 5.579-4.523 10.102-10.102 10.102h30.738c5.579 0 10.102-4.523 10.102-10.102v-14.142c-.001-5.579-4.523-10.102-10.102-10.102z" fill="#544f57"/></g><g><path d="m289.672 504.5h-67.344c-4.078 0-7.756-2.452-9.325-6.216l-17.613-42.271h121.22l-17.613 42.271c-1.569 3.764-5.247 6.216-9.325 6.216z" fill="#665e66"/></g><g><path d="m290.85 456.012-17.613 42.271c-1.568 3.764-5.246 6.216-9.325 6.216h25.759c4.078 0 7.756-2.452 9.325-6.216l17.613-42.271z" fill="#544f57"/></g><g><g><g><path d="m363.148 180.615v-33.081l-31.804-5.214c-1.633-5.643-3.887-11.025-6.679-16.07l18.817-26.196-23.392-23.39-26.196 18.817c-5.044-2.793-10.426-5.046-16.07-6.679l-5.214-31.804h-33.081l-5.214 31.804c-5.643 1.633-11.025 3.887-16.07 6.679l-26.196-18.817-23.392 23.392 18.816 26.196c-2.793 5.044-5.046 10.426-6.679 16.07l-31.804 5.214v33.081l31.804 5.214c1.633 5.643 3.887 11.025 6.679 16.07l-18.816 26.196 23.392 23.392 26.196-18.817c5.044 2.793 10.426 5.046 16.07 6.679l5.214 31.804h33.081l5.214-31.804c5.643-1.633 11.025-3.887 16.07-6.679l26.196 18.817 23.392-23.392-18.817-26.196c2.793-5.044 5.046-10.426 6.679-16.07zm-107.077 4.353c-11.539 0-20.893-9.354-20.893-20.893s9.354-20.893 20.893-20.893 20.893 9.354 20.893 20.893-9.354 20.893-20.893 20.893z" fill="#f1f4f6"/></g><g><path d="m363.148 180.615v-33.081l-31.804-5.214c-1.02-3.524-2.282-6.947-3.766-10.248.093 1.733.143 3.477.143 5.233 0 53.279-43.191 96.471-96.471 96.471-4.208 0-8.353-.271-12.418-.794 4.876 2.646 10.058 4.795 15.485 6.366l5.214 31.804h33.081l5.214-31.804c5.643-1.633 11.025-3.887 16.069-6.679l26.196 18.816 23.392-23.392-18.816-26.196c2.793-5.044 5.046-10.426 6.679-16.07z" fill="#dfeaef"/></g></g></g><g><path d="m375.982 49.93c-31.675-31.883-73.86-49.614-118.784-49.926-59.396-.391-115.454 31.265-146.324 82.67-2.133 3.551-.982 8.159 2.568 10.291s8.158.982 10.291-2.568c28.152-46.88 79.259-75.723 133.361-75.393 84.382.586 153.031 69.725 153.031 154.122 0 51.949-25.925 100.072-69.35 128.729-13.504 8.911-21.565 23.866-21.565 40.005v19.737h-39.1v-85.834l4.373-26.677c2.984-1.05 5.913-2.268 8.769-3.645l22.463 16.134c2.981 2.143 7.08 1.81 9.679-.788l23.392-23.392c2.598-2.598 2.931-6.695.788-9.679l-16.135-22.462c1.377-2.856 2.595-5.785 3.645-8.769l27.277-4.471c3.626-.594 6.287-3.728 6.287-7.401v-33.081c0-3.674-2.661-6.807-6.287-7.401l-27.277-4.471c-1.05-2.983-2.268-5.913-3.645-8.769l16.135-22.462c2.143-2.984 1.81-7.081-.788-9.679l-23.392-23.392c-2.598-2.598-6.696-2.931-9.679-.788l-22.463 16.135c-2.854-1.376-5.784-2.594-8.769-3.645l-4.472-27.278c-.595-3.625-3.728-6.287-7.401-6.287h-33.08c-3.674 0-6.807 2.661-7.401 6.287l-4.472 27.278c-2.984 1.05-5.914 2.268-8.769 3.645l-22.463-16.135c-2.982-2.143-7.081-1.811-9.679.788l-23.392 23.392c-2.598 2.598-2.931 6.695-.788 9.679l16.135 22.462c-1.376 2.855-2.594 5.785-3.644 8.768l-27.278 4.472c-3.626.594-6.287 3.728-6.287 7.401v33.081c0 3.674 2.661 6.807 6.287 7.401l27.278 4.472c1.05 2.983 2.268 5.913 3.644 8.768l-16.135 22.462c-2.143 2.984-1.81 7.081.788 9.679l23.392 23.392c2.599 2.599 6.697 2.931 9.679.788l22.463-16.134c2.855 1.377 5.784 2.594 8.769 3.645l4.24 25.868c-.002.066-.01.131-.01.197v86.445h-39.1v-19.544c0-16.283-8.005-31.273-21.413-40.098-43.521-28.646-69.502-76.806-69.502-128.828 0-16.517 2.646-32.8 7.867-48.397 1.314-3.928-.804-8.178-4.731-9.493-3.93-1.313-8.178.804-9.493 4.732-5.734 17.135-8.643 35.02-8.643 53.158 0 57.084 28.506 109.928 76.255 141.357 9.18 6.042 14.66 16.348 14.66 27.569v20.429c-7.028 2.31-12.122 8.925-12.122 16.717v14.142c0 6.197 3.227 11.645 8.081 14.782v41.787c0 9.375 7.374 17.039 16.622 17.552l15.71 37.707c2.743 6.579 9.121 10.83 16.248 10.83h67.344c7.127 0 13.505-4.251 16.248-10.832l15.71-37.705c9.249-.513 16.622-8.177 16.622-17.552v-41.787c4.854-3.137 8.081-8.585 8.081-14.782v-14.142c0-7.792-5.094-14.406-12.122-16.717v-20.621c0-11.083 5.543-21.358 14.827-27.485 47.644-31.441 76.088-84.245 76.088-141.249.002-44.967-17.451-87.298-49.142-119.196zm-154.101 176.178c-2.537-1.404-5.655-1.22-8.008.47l-21.022 15.1-14.383-14.382 15.101-21.021c1.69-2.354 1.874-5.472.47-8.007-2.548-4.605-4.579-9.491-6.036-14.523-.805-2.779-3.136-4.848-5.991-5.316l-25.517-4.183v-20.34l25.517-4.183c2.855-.468 5.187-2.537 5.991-5.316 1.457-5.032 3.488-9.918 6.036-14.523 1.404-2.536 1.221-5.653-.47-8.007l-15.101-21.021 14.383-14.382 21.022 15.1c2.354 1.691 5.474 1.874 8.008.47 4.604-2.549 9.489-4.58 14.521-6.036 2.779-.805 4.849-3.136 5.316-5.991l4.183-25.517h20.34l4.183 25.517c.468 2.855 2.537 5.187 5.316 5.991 5.032 1.456 9.918 3.487 14.521 6.036 2.534 1.404 5.654 1.221 8.008-.47l21.022-15.1 14.383 14.382-15.101 21.021c-1.69 2.354-1.874 5.472-.47 8.007 2.55 4.608 4.581 9.494 6.036 14.522.804 2.78 3.136 4.849 5.991 5.317l25.517 4.183v20.34l-25.517 4.183c-2.855.468-5.188 2.537-5.991 5.317-1.455 5.028-3.486 9.914-6.036 14.522-1.404 2.536-1.221 5.653.47 8.007l15.101 21.021-14.383 14.382-21.022-15.1c-2.353-1.691-5.47-1.875-8.008-.47-4.604 2.549-9.49 4.581-14.521 6.036-2.779.805-4.849 3.136-5.316 5.991l-4.183 25.517h-20.34l-4.183-25.517c-.468-2.855-2.537-5.187-5.316-5.991-5.031-1.456-9.917-3.487-14.521-6.036zm25.008 52.544h18.223v78.945h-18.223zm45.185 216.745c-.405.974-1.349 1.603-2.402 1.603h-67.344c-1.054 0-1.997-.629-2.402-1.601l-13.286-31.887h9.094c4.143 0 7.5-3.358 7.5-7.5s-3.357-7.5-7.5-7.5h-24.385c-1.435 0-2.602-1.167-2.602-2.602v-38.968h93.823c4.143 0 7.5-3.358 7.5-7.5s-3.357-7.5-7.5-7.5h-99.303c-1.435 0-2.602-1.167-2.602-2.602v-14.142c0-1.435 1.167-2.602 2.602-2.602h145.463c1.435 0 2.602 1.167 2.602 2.602v14.142c0 1.435-1.167 2.602-2.602 2.602h-11.126c-4.143 0-7.5 3.358-7.5 7.5s3.357 7.5 7.5 7.5h5.646v38.968c0 1.435-1.167 2.602-2.602 2.602h-69.793c-4.143 0-7.5 3.358-7.5 7.5s3.357 7.5 7.5 7.5h54.502z"/><path d="m284.465 164.075c0-15.656-12.737-28.393-28.394-28.393s-28.394 12.737-28.394 28.393 12.737 28.393 28.394 28.393 28.394-12.737 28.394-28.393zm-41.787 0c0-7.385 6.009-13.393 13.394-13.393s13.394 6.008 13.394 13.393-6.009 13.393-13.394 13.393c-7.386 0-13.394-6.008-13.394-13.393z"/><path d="m312.322 164.075c0-31.017-25.234-56.25-56.251-56.25s-56.251 25.234-56.251 56.25 25.234 56.25 56.251 56.25 56.251-25.234 56.251-56.25zm-97.502 0c0-22.746 18.505-41.25 41.251-41.25s41.251 18.505 41.251 41.25-18.505 41.25-41.251 41.25-41.251-18.505-41.251-41.25z"/></g></g></svg>