<svg id="Capa_1" enable-background="new 0 0 512 512" height="512" viewBox="0 0 512 512" width="512" xmlns="http://www.w3.org/2000/svg"><g><g><path d="m484.297 7.5h-228.297v210.197c0 8.88 7.199 16.079 16.079 16.079h.138c4.472 0 8.686-1.917 11.784-5.142 8.231-8.57 20.022-13.692 33-12.974 21.676 1.2 39.136 18.969 39.983 40.662.944 24.205-18.398 44.125-42.394 44.125-12.012 0-22.853-4.997-30.57-13.021-3.107-3.231-7.322-5.162-11.805-5.162h-.136c-8.88 0-16.079 7.199-16.079 16.079v206.157h228.297c11.158 0 20.203-9.045 20.203-20.203v-456.594c0-11.158-9.045-20.203-20.203-20.203z" fill="#ffe07d"/></g><g><path d="m484.297 7.5h-26.264c11.158 0 20.203 9.045 20.203 20.203v456.594c0 11.158-9.045 20.203-20.203 20.203h26.264c11.158 0 20.203-9.045 20.203-20.203v-456.594c0-11.158-9.045-20.203-20.203-20.203z" fill="#ffd064"/></g><g><path d="m256 504.5v-206.157c0-8.88 7.199-16.079 16.079-16.079h.136c4.482 0 8.698 1.931 11.805 5.162 7.717 8.024 18.557 13.021 30.57 13.021 23.995 0 43.338-19.92 42.394-44.125-.846-21.693-18.306-39.462-39.983-40.662-12.978-.718-24.769 4.404-33 12.974-3.098 3.226-7.311 5.142-11.784 5.142h-.138c-8.88 0-16.079-7.199-16.079-16.079v-210.197h-228.297c-11.158 0-20.203 9.045-20.203 20.203v456.594c0 11.158 9.045 20.203 20.203 20.203z" fill="#e28086"/></g><g><g><path d="m245.815 233.776h.138c4.472 0 8.686-1.917 11.784-5.142.46-.479.936-.944 1.418-1.401-1.973-2.67-3.154-5.961-3.154-9.536v-210.197h-26.264v210.197c-.001 8.881 7.198 16.079 16.078 16.079z" fill="#dd636e"/></g><g><path d="m356.983 256.322c-.846-21.693-18.306-39.462-39.983-40.662-5.456-.302-10.697.44-15.557 2.024 16.462 5.393 28.574 20.663 29.275 38.638.764 19.58-11.749 36.35-29.259 42.047 4.134 1.346 8.545 2.078 13.129 2.078 23.997 0 43.339-19.92 42.395-44.125z" fill="#dd636e"/></g><g><path d="m257.756 287.426c-3.107-3.231-7.322-5.162-11.805-5.162h-.136c-8.88 0-16.079 7.199-16.079 16.079v206.157h26.264v-206.157c0-3.574 1.18-6.864 3.153-9.534-.476-.45-.943-.91-1.397-1.383z" fill="#dd636e"/></g></g><g><g><path d="m364.087-16.744h32.325v161.626h-32.325z" fill="#9bd069" transform="matrix(0 1 -1 0 444.319 -316.181)"/></g></g><g><g><path d="m364.087 273.173h32.325v161.626h-32.325z" fill="#cbe2ff" transform="matrix(0 1 -1 0 734.236 -26.264)"/></g></g><g><g><g><path d="m131.75 318.125c-9.484 0-17.173-7.689-17.173-17.173v-33.513c0-9.484 7.689-17.173 17.173-17.173 12.276 0 23.699-4.911 32.167-13.829 8.461-8.912 12.769-20.6 12.129-32.912-1.197-23.067-20.248-41.501-43.372-41.966-22.464-.435-41.756 15.944-44.853 38.141-.285 2.039-.429 4.127-.429 6.208 0 9.484-7.689 17.173-17.173 17.173s-17.173-7.689-17.173-17.173c0-3.664.256-7.351.759-10.957 5.5-39.415 39.704-68.543 79.56-67.731 41.041.827 74.855 33.562 76.98 74.525 1.132 21.811-6.511 42.53-21.521 58.34-10.796 11.37-24.786 19.203-39.901 22.609v18.257c0 9.485-7.689 17.174-17.173 17.174z" fill="#ffe07d"/></g></g><g><circle cx="131.75" cy="367.623" fill="#ffe07d" r="17.173"/></g></g><g><path d="m484.297 0h-456.594c-15.275 0-27.703 12.428-27.703 27.703v33.726c0 4.142 3.358 7.5 7.5 7.5s7.5-3.358 7.5-7.5v-33.726c0-7.004 5.699-12.703 12.703-12.703h220.797v118.985c0 4.142 3.358 7.5 7.5 7.5s7.5-3.358 7.5-7.5v-118.985h220.797c7.004 0 12.703 5.699 12.703 12.703v374.06c0 4.142 3.358 7.5 7.5 7.5s7.5-3.358 7.5-7.5v-374.06c0-15.275-12.428-27.703-27.703-27.703z"/><path d="m504.5 429.321c-4.142 0-7.5 3.358-7.5 7.5v47.476c0 7.004-5.699 12.703-12.703 12.703h-220.797v-198.657c0-4.73 3.849-8.579 8.579-8.579h.136c2.353 0 4.625 1.016 6.399 2.861 9.502 9.881 22.278 15.322 35.975 15.322 13.705 0 26.486-5.441 35.989-15.322 9.499-9.876 14.435-22.873 13.899-36.596-.992-25.43-21.664-46.452-47.062-47.858-14.584-.799-28.729 4.758-38.823 15.268-1.757 1.83-4.021 2.837-6.375 2.837h-.138c-4.73 0-8.579-3.849-8.579-8.579v-48.697c0-4.142-3.358-7.5-7.5-7.5s-7.5 3.358-7.5 7.5v48.697c0 13.001 10.578 23.579 23.579 23.579h.138c6.381 0 12.647-2.714 17.193-7.447 7.062-7.354 16.968-11.243 27.176-10.681 17.756.983 32.209 15.683 32.903 33.466.375 9.608-3.078 18.705-9.722 25.613-6.648 6.913-15.589 10.72-25.177 10.72-9.579 0-18.516-3.807-25.164-10.72-4.629-4.813-10.741-7.463-17.211-7.463h-.136c-13.001 0-23.579 10.578-23.579 23.579v198.657h-220.797c-7.004 0-12.703-5.699-12.703-12.703v-387.833c0-4.142-3.358-7.5-7.5-7.5s-7.5 3.358-7.5 7.5v387.833c0 15.275 12.428 27.703 27.703 27.703h456.594c15.275 0 27.703-12.428 27.703-27.703v-47.476c0-4.142-3.358-7.5-7.5-7.5z"/><path d="m468.563 47.907c0-4.142-3.358-7.5-7.5-7.5h-161.626c-4.142 0-7.5 3.358-7.5 7.5v32.325c0 4.142 3.358 7.5 7.5 7.5h161.626c4.142 0 7.5-3.358 7.5-7.5zm-15 24.825h-146.626v-17.325h146.626z"/><path d="m299.437 117.026h110.108c4.142 0 7.5-3.358 7.5-7.5s-3.358-7.5-7.5-7.5h-110.108c-4.142 0-7.5 3.358-7.5 7.5s3.358 7.5 7.5 7.5z"/><path d="m461.063 102.026h-19.193c-4.142 0-7.5 3.358-7.5 7.5s3.358 7.5 7.5 7.5h19.193c4.142 0 7.5-3.358 7.5-7.5s-3.358-7.5-7.5-7.5z"/><path d="m461.063 134.352h-74.752c-4.142 0-7.5 3.358-7.5 7.5s3.358 7.5 7.5 7.5h74.752c4.142 0 7.5-3.358 7.5-7.5s-3.358-7.5-7.5-7.5z"/><path d="m299.437 149.352h54.549c4.142 0 7.5-3.358 7.5-7.5s-3.358-7.5-7.5-7.5h-54.549c-4.142 0-7.5 3.358-7.5 7.5s3.358 7.5 7.5 7.5z"/><path d="m299.437 181.677h120.209c4.142 0 7.5-3.358 7.5-7.5s-3.358-7.5-7.5-7.5h-120.209c-4.142 0-7.5 3.358-7.5 7.5s3.358 7.5 7.5 7.5z"/><path d="m468.563 337.823c0-4.142-3.358-7.5-7.5-7.5h-161.626c-4.142 0-7.5 3.358-7.5 7.5v32.325c0 4.142 3.358 7.5 7.5 7.5h161.626c4.142 0 7.5-3.358 7.5-7.5zm-15 24.825h-146.626v-17.325h146.626z"/><path d="m299.437 406.943h110.108c4.142 0 7.5-3.358 7.5-7.5s-3.358-7.5-7.5-7.5h-110.108c-4.142 0-7.5 3.358-7.5 7.5s3.358 7.5 7.5 7.5z"/><path d="m461.063 391.943h-19.193c-4.142 0-7.5 3.358-7.5 7.5s3.358 7.5 7.5 7.5h19.193c4.142 0 7.5-3.358 7.5-7.5s-3.358-7.5-7.5-7.5z"/><path d="m468.563 431.768c0-4.142-3.358-7.5-7.5-7.5h-74.752c-4.142 0-7.5 3.358-7.5 7.5s3.358 7.5 7.5 7.5h74.752c4.142 0 7.5-3.358 7.5-7.5z"/><path d="m299.437 439.268h54.549c4.142 0 7.5-3.358 7.5-7.5s-3.358-7.5-7.5-7.5h-54.549c-4.142 0-7.5 3.358-7.5 7.5s3.358 7.5 7.5 7.5z"/><path d="m299.437 471.593h120.209c4.142 0 7.5-3.358 7.5-7.5s-3.358-7.5-7.5-7.5h-120.209c-4.142 0-7.5 3.358-7.5 7.5s3.358 7.5 7.5 7.5z"/><path d="m156.423 288.48c14.452-4.32 27.439-12.275 37.84-23.23 16.441-17.317 24.813-40.008 23.572-63.893-2.328-44.871-39.365-80.729-84.317-81.634-43.669-.88-81.115 31.007-87.141 74.192-.551 3.952-.831 7.987-.831 11.994 0 13.604 11.068 24.673 24.673 24.673s24.673-11.068 24.673-24.673c0-1.734.12-3.474.357-5.172 2.57-18.421 18.608-32.036 37.274-31.679 19.211.387 35.039 15.698 36.034 34.856.531 10.237-3.048 19.954-10.079 27.359-7.037 7.412-16.53 11.493-26.728 11.493-13.604 0-24.673 11.068-24.673 24.673v33.513c0 13.604 11.068 24.673 24.673 24.673s24.673-11.068 24.673-24.673zm-9.149-13.102c-3.421.771-5.852 3.81-5.852 7.316v18.257c0 5.333-4.339 9.673-9.673 9.673s-9.673-4.339-9.673-9.673v-33.513c0-5.333 4.339-9.673 9.673-9.673 14.353 0 27.708-5.741 37.606-16.166 9.891-10.418 14.927-24.079 14.18-38.464-1.4-26.975-23.675-48.531-50.717-49.076-.342-.007-.679-.01-1.019-.01-25.829 0-47.835 19.014-51.407 44.612-.333 2.382-.501 4.82-.501 7.246 0 5.333-4.339 9.673-9.673 9.673s-9.673-4.339-9.673-9.673c0-3.315.231-6.653.688-9.92 4.976-35.664 35.914-62.013 71.981-61.269 37.128.748 67.719 30.36 69.641 67.415 1.025 19.736-5.89 38.483-19.47 52.787-9.735 10.255-22.221 17.329-36.111 20.458z"/><path d="m131.75 342.95c-13.604 0-24.673 11.068-24.673 24.673s11.068 24.673 24.673 24.673 24.673-11.068 24.673-24.673-11.069-24.673-24.673-24.673zm0 34.346c-5.333 0-9.673-4.339-9.673-9.673s4.339-9.673 9.673-9.673 9.673 4.339 9.673 9.673-4.34 9.673-9.673 9.673z"/></g></g></svg>