<svg id="Capa_1" enable-background="new 0 0 512 512" height="512" viewBox="0 0 512 512" width="512" xmlns="http://www.w3.org/2000/svg"><g><g><path d="m256 470.154h248.5v34.346h-248.5z" fill="#c19d8e"/></g><g><path d="m479.246 470.154h25.254v34.346h-25.254z" fill="#b17a4a"/></g><g><g><path d="m158.014 385.944 60.554 16.231c22.08 5.919 37.432 25.928 37.432 48.786v53.539h-248.5v-53.539c0-22.859 15.352-42.868 37.431-48.786l60.554-16.231z" fill="#f6f9f9"/></g><g><path d="m226.478 405.017c2.755 6.263 4.268 13.153 4.268 20.324v79.159h25.254v-53.539c0-20.015-11.771-37.845-29.522-45.944z" fill="#f1f4f6"/></g><g><path d="m105.486 342.874h52.528v43.07h-52.528z" fill="#f1b986"/></g><g><path d="m73.161 273.173v18.183c0 32.358 26.231 58.589 58.589 58.589s58.589-26.231 58.589-58.589v-18.183z" fill="#f1d0a5"/></g><g><path d="m176.197 191.35h-24.244c0-10.042-8.141-18.183-18.183-18.183h-20.203c-22.316 0-40.407 18.091-40.407 40.406v59.6c0 22.316 18.091 40.406 40.407 40.406h36.366c22.316 0 40.407-18.091 40.407-40.406v-67.681c-.001-7.811-6.332-14.142-14.143-14.142z" fill="#665e66"/></g><g><path d="m176.197 191.35h-17.173c7.811 0 14.142 6.332 14.142 14.142v67.681c0 22.316-18.091 40.406-40.407 40.406h17.173c22.316 0 40.407-18.091 40.407-40.406v-67.681c0-7.811-6.331-14.142-14.142-14.142z" fill="#544f57"/></g></g><g><g><path d="m406.514 340.854 60.554 16.231c22.079 5.918 37.431 25.927 37.431 48.786v64.284h-248.499v-64.284c0-22.859 15.352-42.868 37.431-48.786l60.554-16.231z" fill="#f6f9f9"/></g><g><path d="m390.352 414.596 20.203 55.558h-59.478l19.071-55.558z" fill="#e28086"/></g><g><path d="m404.911 387.669-24.661-20.551-24.661 20.551 14.559 26.926v.001h20.204v-.001z" fill="#dd636e"/></g><g><path d="m353.986 340.854-30.931 8.29 14.768 53.33 42.427-35.356v-26.264z" fill="#dfeaef"/></g><g><path d="m406.514 340.854 30.931 8.29-14.768 53.33-42.427-35.356v-26.264z" fill="#dfeaef"/></g><g><path d="m474.978 359.926c2.755 6.263 4.268 13.153 4.268 20.324v89.904h25.254v-64.284c0-20.015-11.771-37.845-29.522-45.944z" fill="#f1f4f6"/></g><g><path d="m380.25 367.118c-14.505 0-26.264-11.759-26.264-26.264v-32.325h52.528v32.325c0 14.505-11.759 26.264-26.264 26.264z" fill="#b78b7a"/></g><g><path d="m353.986 329.152c8.198 2.994 17.043 4.63 26.264 4.63s18.067-1.637 26.264-4.63v-20.624h-52.528z" fill="#aa7a63"/></g><g><path d="m321.661 198.421v58.589c0 32.358 26.231 58.589 58.589 58.589s58.589-26.231 58.589-58.589v-58.589z" fill="#b78b7a"/></g><g><path d="m418.636 198.421v78.793c0 10.998-3.037 21.285-8.308 30.078 17.077-10.238 28.511-28.922 28.511-50.281v-58.589h-20.203z" fill="#aa7a63"/></g><g><path d="m420.656 218.624h18.183v-39.396c0-12.274-9.95-22.224-22.224-22.224h-16.163v41.417c.001 11.158 9.047 20.203 20.204 20.203z" fill="#544f57"/></g><g><path d="m380.25 218.624h-58.589v-39.396c0-22.316 18.091-40.407 40.406-40.407h20.203c10.042 0 18.183 8.141 18.183 18.183v41.417c0 11.158-9.045 20.203-20.203 20.203z" fill="#665e66"/></g></g><g><path d="m484.297 7.5h-208.094c-11.158 0-20.203 9.045-20.203 20.203v58.589c0 11.158 9.045 20.203 20.203 20.203h11.112v34.346l55.559-34.346h141.423c11.158 0 20.203-9.045 20.203-20.203v-58.589c0-11.158-9.045-20.203-20.203-20.203z" fill="#cbe2ff"/></g><g><path d="m27.703 40.835h208.094c11.158 0 20.203 9.045 20.203 20.203v58.589c0 11.158-9.045 20.203-20.203 20.203h-11.112v34.346l-55.559-34.346h-141.423c-11.158 0-20.203-9.045-20.203-20.203v-58.588c0-11.158 9.045-20.204 20.203-20.204z" fill="#9bd069"/></g><g><path d="m469.01 349.84-54.996-14.741v-21.305c19.339-11.543 32.325-32.672 32.325-56.784v-77.783c0-16.39-13.334-29.724-29.724-29.724h-9.782c-3.217-10.514-13.01-18.183-24.563-18.183h-20.204c-26.416 0-47.906 21.491-47.906 47.906v77.783c0 24.112 12.986 45.241 32.325 56.784v21.305l-54.995 14.742c-25.312 6.785-42.99 29.825-42.99 56.03v6.196c-7.31-8.091-16.92-14.168-27.99-17.135l-54.996-14.741v-32.05c19.339-11.543 32.325-32.672 32.325-56.784v-85.864c0-11.934-9.708-21.642-21.642-21.642h-17.861c-3.216-10.515-13.012-18.183-24.566-18.183h-20.204c-26.416 0-47.906 21.491-47.906 47.907v77.782c0 24.112 12.986 45.241 32.325 56.784v32.05l-54.995 14.741c-25.312 6.785-42.99 29.825-42.99 56.03v53.539c0 4.142 3.358 7.5 7.5 7.5h248.5 182.036c4.142 0 7.5-3.358 7.5-7.5s-3.358-7.5-7.5-7.5h-174.536v-19.346h233.5v19.346h-23.929c-4.142 0-7.5 3.358-7.5 7.5s3.358 7.5 7.5 7.5h31.429c4.142 0 7.5-3.358 7.5-7.5v-98.629c0-26.205-17.678-49.246-42.99-56.031zm-104.678 20.78-13.547 11.289c-.012.01-.024.02-.037.031l-8.799 7.332-9.648-34.841 15.53-4.163c2.555 8.784 8.584 16.101 16.501 20.352zm11.172 51.476h9.595l14.749 40.559h-38.266zm10.376-15h-11.26l-9.513-17.595 15.144-12.62 15.144 12.62zm23.871-25.156c-.012-.01-.024-.02-.037-.031l-13.547-11.289c7.917-4.251 13.945-11.568 16.501-20.352l15.53 4.163-9.648 34.841zm21.588-202.712v31.896h-10.683c-7.005 0-12.704-5.699-12.704-12.703v-33.917h8.663c8.119 0 14.724 6.605 14.724 14.724zm-102.178 0c0-18.145 14.762-32.906 32.906-32.906h20.204c5.891 0 10.683 4.792 10.683 10.683v41.417c0 7.004-5.699 12.703-12.703 12.703h-51.089v-31.897zm0 77.782v-30.886h51.089c7.962 0 15.145-3.381 20.203-8.777 5.058 5.396 12.241 8.777 20.204 8.777h10.683v30.886c0 28.171-22.918 51.089-51.089 51.089s-51.09-22.918-51.09-51.089zm51.089 66.09c6.518 0 12.812-.963 18.764-2.729v20.483c0 10.347-8.417 18.764-18.764 18.764s-18.764-8.417-18.764-18.764v-20.484c5.952 1.766 12.246 2.73 18.764 2.73zm-299.589-109.527c0-18.145 14.762-32.907 32.906-32.907h20.204c5.891 0 10.683 4.792 10.683 10.683v30.305c0 4.142 3.358 7.5 7.5 7.5s7.5-3.358 7.5-7.5v-22.804h16.744c3.663 0 6.642 2.979 6.642 6.642v67.681c0 18.145-14.762 32.906-32.906 32.906h-36.366c-18.145 0-32.906-14.762-32.906-32.906v-59.6zm4.118 97.864c8.02 6.049 17.992 9.642 28.788 9.642h36.366c10.797 0 20.768-3.593 28.788-9.642-7.817 18.216-25.926 31.009-46.971 31.009s-39.154-12.794-46.971-31.009zm46.971 46.008c6.518 0 12.812-.963 18.764-2.729v23.728h-37.528v-23.728c5.952 1.766 12.246 2.729 18.764 2.729zm-116.75 93.516c0-19.429 13.107-36.511 31.874-41.542l59.6-15.975h50.553l59.6 15.975c18.767 5.031 31.874 22.113 31.874 41.542v46.039h-38.539v-12.703c0-4.142-3.358-7.5-7.5-7.5s-7.5 3.358-7.5 7.5v12.703h-126.423v-12.703c0-4.142-3.358-7.5-7.5-7.5s-7.5 3.358-7.5 7.5v12.703h-38.539zm248.5-45.09c0-19.429 13.107-36.511 31.874-41.542l22.439-6.014 12.783 46.161c.68 2.455 2.559 4.397 4.991 5.157.734.229 1.488.341 2.237.341 1.731 0 3.436-.6 4.802-1.738l10.726-8.939 8.636 15.974-16.265 47.384h-28.683v-12.703c0-4.142-3.358-7.5-7.5-7.5s-7.5 3.358-7.5 7.5v12.703h-38.54zm233.5 56.783h-38.539v-12.703c0-4.142-3.358-7.5-7.5-7.5s-7.5 3.358-7.5 7.5v12.703h-27.654l-17.256-47.455 8.598-15.903 10.726 8.939c1.366 1.138 3.07 1.738 4.802 1.738.749 0 1.503-.112 2.237-.341 2.432-.76 4.311-2.702 4.991-5.157l12.783-46.161 22.439 6.014c18.766 5.031 31.873 22.114 31.873 41.543z"/><path d="m484.297 0h-208.094c-15.275 0-27.703 12.428-27.703 27.703v8.729c-3.808-1.974-8.126-3.097-12.703-3.097h-156.018c-4.142 0-7.5 3.358-7.5 7.5s3.358 7.5 7.5 7.5h156.018c7.004 0 12.703 5.699 12.703 12.703v58.589c0 7.005-5.699 12.704-12.703 12.704h-11.112c-4.142 0-7.5 3.358-7.5 7.5v20.892l-44.115-27.271c-1.185-.732-2.551-1.121-3.944-1.121h-141.423c-7.004 0-12.703-5.699-12.703-12.704v-58.588c0-7.004 5.699-12.703 12.703-12.703h17.047c4.142 0 7.5-3.358 7.5-7.5s-3.358-7.5-7.5-7.5h-17.047c-15.275-.001-27.703 12.427-27.703 27.703v58.589c0 15.276 12.428 27.704 27.703 27.704h139.292l53.746 33.225c1.207.746 2.574 1.121 3.944 1.121 1.257 0 2.515-.315 3.652-.949 2.375-1.324 3.848-3.831 3.848-6.551v-26.845h3.612c15.275 0 27.703-12.428 27.703-27.704v-8.729c3.808 1.974 8.126 3.097 12.703 3.097h3.612v26.845c0 2.72 1.473 5.227 3.848 6.551 1.137.634 2.395.949 3.652.949 1.369 0 2.737-.375 3.944-1.121l53.746-33.225h82.156c4.142 0 7.5-3.358 7.5-7.5s-3.358-7.5-7.5-7.5h-84.287c-1.393 0-2.759.388-3.944 1.121l-44.115 27.271v-20.892c0-4.142-3.358-7.5-7.5-7.5h-11.112c-7.004 0-12.703-5.699-12.703-12.704v-58.589c0-7.004 5.699-12.703 12.703-12.703h208.094c7.004 0 12.703 5.699 12.703 12.703v58.589c0 7.005-5.699 12.704-12.703 12.704h-22.101c-4.142 0-7.5 3.358-7.5 7.5s3.358 7.5 7.5 7.5h22.101c15.275 0 27.703-12.428 27.703-27.704v-58.589c0-15.275-12.428-27.703-27.703-27.703z"/></g></g></svg>