<svg id="Capa_1" enable-background="new 0 0 512 512" height="512" viewBox="0 0 512 512" width="512" xmlns="http://www.w3.org/2000/svg"><g><g><path d="m290.353 390.321h22.229c5.58 0 10.104 4.524 10.104 10.104v23.24h-42.438v-23.24c.001-5.58 4.525-10.104 10.105-10.104z" fill="#e28086"/></g><g><path d="m394.33 504.5h-276.676c-5.58 0-10.104-4.524-10.104-10.104v-60.626c0-5.58 4.524-10.104 10.104-10.104h240.118c7.654 0 14.652 4.325 18.075 11.171l27.52 55.04c3.36 6.718-1.526 14.623-9.037 14.623z" fill="#665e66"/></g><g><path d="m403.367 489.877-27.52-55.04c-3.423-6.846-10.421-11.171-18.075-11.171h-28.207c7.654 0 14.652 4.325 18.075 11.171l27.52 55.04c3.359 6.718-1.526 14.623-9.038 14.623h28.207c7.512 0 12.398-7.905 9.038-14.623z" fill="#544f57"/></g><g><path d="m272.166 15.452-15.156 15.156c-10.603 10.603-10.603 27.793 0 38.396 10.603 10.603 27.793 10.603 38.396 0l15.156-15.156c10.603-10.603 10.603-27.793 0-38.396-10.603-10.603-27.794-10.603-38.396 0z" fill="#665e66"/></g><g><path d="m310.562 15.452c-2.499-2.499-5.366-4.401-8.424-5.722 4.284 9.918 2.382 21.868-5.722 29.972l-15.156 15.156c-8.104 8.104-20.054 10.006-29.972 5.722 1.321 3.058 3.223 5.925 5.722 8.424 10.603 10.603 27.793 10.603 38.396 0l15.156-15.156c10.603-10.602 10.603-27.793 0-38.396z" fill="#544f57"/></g><g><path d="m410.076 486.523-27.521-55.04c-4.723-9.448-14.22-15.318-24.783-15.318h-27.585v-15.74c0-9.707-7.897-17.604-17.604-17.604h-22.229c-9.707 0-17.604 7.897-17.604 17.604v15.74h-75.978c-4.142 0-7.5 3.358-7.5 7.5s3.358 7.5 7.5 7.5h161.001c4.845 0 9.2 2.692 11.367 7.025l27.52 55.04c.565 1.13.172 2.073-.113 2.535-.285.461-.952 1.235-2.216 1.235h-39.138c-4.143 0-7.5 3.358-7.5 7.5s3.357 7.5 7.5 7.5h39.138c6.146 0 11.744-3.121 14.975-8.349 3.23-5.227 3.518-11.63.77-17.128zm-122.327-86.097c0-1.436 1.168-2.604 2.604-2.604h22.229c1.437 0 2.604 1.168 2.604 2.604v15.74h-27.438v-15.74z"/><path d="m320.141 497h-77.862v-16.75c0-4.142-3.358-7.5-7.5-7.5s-7.5 3.358-7.5 7.5v16.75h-14.302v-16.75c0-4.142-3.358-7.5-7.5-7.5s-7.5 3.358-7.5 7.5v16.75h-14.302v-16.75c0-4.142-3.358-7.5-7.5-7.5s-7.5 3.358-7.5 7.5v16.75h-14.303v-16.75c0-4.142-3.358-7.5-7.5-7.5s-7.5 3.358-7.5 7.5v16.75h-21.718c-1.436 0-2.604-1.168-2.604-2.604v-60.626c0-1.436 1.168-2.604 2.604-2.604h44.059c4.142 0 7.5-3.358 7.5-7.5s-3.358-7.5-7.5-7.5h-7.341v-203.541c0-19.588 7.628-38.004 21.479-51.855l81.738-81.737c5.512 3.527 11.917 5.425 18.619 5.425 9.255 0 17.956-3.604 24.5-10.149l15.158-15.156c13.509-13.51 13.509-35.493-.001-49.003-6.545-6.546-15.246-10.15-24.501-10.15-9.256 0-17.957 3.604-24.502 10.149l-15.156 15.156c-11.689 11.689-13.256 29.716-4.719 43.115l-81.743 81.742c-16.684 16.685-25.873 38.867-25.873 62.462v203.541h-21.718c-9.707 0-17.604 7.897-17.604 17.604v60.625c0 9.707 7.897 17.604 17.604 17.604h202.487c4.143 0 7.5-3.358 7.5-7.5s-3.356-7.498-7.499-7.498zm-57.828-461.088 15.156-15.156c3.711-3.712 8.646-5.756 13.895-5.756 5.248 0 10.184 2.044 13.895 5.755 7.662 7.662 7.662 20.128.001 27.79l-15.158 15.157c-3.711 3.711-8.646 5.755-13.894 5.755-5.249 0-10.184-2.044-13.895-5.755-7.662-7.662-7.662-20.129 0-27.79z"/></g></g></svg>