<svg id="Capa_1" enable-background="new 0 0 512 512" height="512" viewBox="0 0 512 512" width="512" xmlns="http://www.w3.org/2000/svg"><g><g><path d="m504.5 330.752h-497v-292.947c0-16.737 13.568-30.305 30.305-30.305h436.39c16.737 0 30.305 13.568 30.305 30.305z" fill="#cbe2ff"/></g><g><path d="m474.195 7.5h-22.224c16.737 0 30.305 13.568 30.305 30.305v292.947h22.224v-292.947c0-16.737-13.568-30.305-30.305-30.305z" fill="#bed8fb"/></g><g><path d="m474.195 391.362h-436.39c-16.737 0-30.305-13.568-30.305-30.305v-30.305h497v30.305c0 16.737-13.568 30.305-30.305 30.305z" fill="#f1f4f6"/></g><g><path d="m482.276 330.752v30.305c0 16.737-13.568 30.305-30.305 30.305h22.224c16.737 0 30.305-13.568 30.305-30.305v-30.305z" fill="#dfeaef"/></g><g><path d="m311.559 391.362h-111.118l-15.152 80.813h141.422z" fill="#d0e2e7"/></g><g><g><path d="m190.339 241.858 60.554 16.231c22.079 5.918 37.431 25.927 37.431 48.786v23.877h-248.5v-23.877c0-22.859 15.352-42.868 37.431-48.786l60.554-16.231z" fill="#f6f9f9"/></g><g><path d="m137.811 241.858-30.931 8.29 14.768 50.299 42.427-32.325v-26.264z" fill="#dfeaef"/></g><g><path d="m190.339 241.858 30.931 8.29-14.768 50.299-42.427-32.325v-26.264z" fill="#dfeaef"/></g><g><path d="m258.804 260.93c2.755 6.263 4.268 13.153 4.268 20.324v49.498h25.254v-23.877c-.001-20.016-11.772-37.846-29.522-45.945z" fill="#f1f4f6"/></g><g><path d="m164.075 268.122c-14.505 0-26.264-11.759-26.264-26.264v-32.325h52.528v32.325c0 14.505-11.758 26.264-26.264 26.264z" fill="#f1d0a5"/></g><g><path d="m137.811 230.156c8.198 2.994 17.043 4.63 26.264 4.63s18.067-1.637 26.264-4.63v-20.624h-52.528z" fill="#f1b986"/></g><g><path d="m105.486 99.425v58.589c0 32.358 26.231 58.589 58.589 58.589s58.589-26.231 58.589-58.589v-58.589z" fill="#f1d0a5"/></g><g><path d="m202.461 99.425v78.793c0 10.998-3.037 21.285-8.308 30.078 17.077-10.238 28.511-28.922 28.511-50.281v-58.59z" fill="#f1b986"/></g><g><path d="m204.482 119.628h18.183v-39.396c0-12.274-9.95-22.224-22.224-22.224h-16.163v41.417c0 11.158 9.046 20.203 20.204 20.203z" fill="#544f57"/></g><g><path d="m164.075 119.628h-58.589v-39.396c0-22.316 18.091-40.407 40.407-40.407h20.203c10.042 0 18.183 8.141 18.183 18.183v41.417c-.001 11.158-9.046 20.203-20.204 20.203z" fill="#665e66"/></g></g><g><path d="m350.955 504.5h-189.91c-8.926 0-16.163-7.236-16.163-16.163 0-8.926 7.236-16.163 16.163-16.163h189.911c8.926 0 16.163 7.236 16.163 16.163-.001 8.927-7.237 16.163-16.164 16.163z" fill="#f1f4f6"/></g><g><path d="m350.955 472.175h-26.264c8.926 0 16.163 7.236 16.163 16.163s-7.236 16.163-16.163 16.163h26.264c8.926 0 16.163-7.236 16.163-16.163s-7.236-16.163-16.163-16.163z" fill="#dfeaef"/></g><g><path d="m460.053 39.825h-167.687c-5.579 0-10.102 4.523-10.102 10.102v180.819c0 5.579 4.523 10.102 10.102 10.102h21.213v22.224l35.356-22.224h111.118c5.579 0 10.102-4.523 10.102-10.102v-180.819c-.001-5.579-4.523-10.102-10.102-10.102z" fill="#9bd069"/></g><g><path d="m474.195 0h-373.007c-4.143 0-7.5 3.358-7.5 7.5s3.357 7.5 7.5 7.5h373.008c12.574 0 22.804 10.23 22.804 22.805v285.447h-28.868c-4.143 0-7.5 3.358-7.5 7.5s3.357 7.5 7.5 7.5h28.868v22.805c0 12.575-10.23 22.805-22.805 22.805h-436.39c-12.575 0-22.805-10.23-22.805-22.805v-22.805h418.107c4.143 0 7.5-3.358 7.5-7.5s-3.357-7.5-7.5-7.5h-137.282v-16.377c0-26.206-17.678-49.246-42.99-56.03l-54.995-14.741v-21.306c19.339-11.543 32.325-32.672 32.325-56.784v-77.782c0-16.39-13.334-29.724-29.724-29.724h-9.783c-3.217-10.514-13.01-18.183-24.563-18.183h-20.203c-26.416 0-47.907 21.491-47.907 47.907v77.782c0 24.112 12.986 45.241 32.325 56.784v21.306l-54.995 14.741c-25.313 6.784-42.99 29.825-42.99 56.03v16.377h-17.325v-285.447c0-12.575 10.23-22.805 22.805-22.805h28.32c4.143 0 7.5-3.358 7.5-7.5s-3.357-7.5-7.5-7.5h-28.32c-20.846 0-37.805 16.959-37.805 37.805v323.252c0 20.846 16.959 37.805 37.805 37.805h153.6l-12.34 65.813h-18.02c-13.048 0-23.663 10.615-23.663 23.663s10.615 23.662 23.663 23.662h189.91c13.048 0 23.663-10.615 23.663-23.663s-10.615-23.663-23.663-23.663h-18.02l-12.34-65.813h153.6c20.846 0 37.805-16.959 37.805-37.805v-323.251c0-20.846-16.959-37.805-37.805-37.805zm-326.646 271.285-21.776 16.591-9.534-32.471 15.416-4.132c2.49 8.556 8.278 15.717 15.894 20.012zm48.945-20.013 15.416 4.132-9.534 32.471-21.776-16.591c7.618-4.294 13.405-11.455 15.894-20.012zm18.671-171.04v31.896h-10.684c-7.005 0-12.703-5.699-12.703-12.703v-33.917h8.663c8.119 0 14.724 6.605 14.724 14.724zm-102.18 0c0-18.145 14.762-32.907 32.907-32.907h20.203c5.891 0 10.683 4.792 10.683 10.683v41.417c0 7.004-5.698 12.703-12.703 12.703h-51.09zm0 77.782v-30.886h51.09c7.962 0 15.145-3.381 20.203-8.777 5.058 5.396 12.241 8.777 20.203 8.777h10.684v30.886c0 28.171-22.919 51.089-51.09 51.089s-51.09-22.918-51.09-51.089zm51.09 66.09c6.518 0 12.812-.964 18.765-2.73v20.484c0 10.347-8.418 18.764-18.765 18.764s-18.765-8.417-18.765-18.764v-20.484c5.953 1.766 12.247 2.73 18.765 2.73zm-116.75 82.771c0-19.429 13.106-36.512 31.873-41.542l22.549-6.044 12.705 43.271c.695 2.369 2.513 4.244 4.858 5.013.765.251 1.553.374 2.337.374 1.622 0 3.223-.526 4.546-1.534l37.882-28.862 37.882 28.862c1.323 1.008 2.924 1.534 4.546 1.534.783 0 1.573-.123 2.337-.374 2.346-.77 4.163-2.645 4.858-5.013l12.705-43.271 22.549 6.044c18.767 5.03 31.873 22.113 31.873 41.542v16.377h-38.539v-12.703c0-4.142-3.357-7.5-7.5-7.5s-7.5 3.358-7.5 7.5v12.703h-126.422v-12.703c0-4.142-3.357-7.5-7.5-7.5s-7.5 3.358-7.5 7.5v12.703h-38.539zm270.349 157.8h-80.067c-4.143 0-7.5 3.358-7.5 7.5s3.357 7.5 7.5 7.5h113.348c4.776 0 8.663 3.886 8.663 8.663s-3.887 8.662-8.663 8.662h-189.91c-4.776 0-8.663-3.886-8.663-8.663s3.887-8.663 8.663-8.663h41.473c4.143 0 7.5-3.358 7.5-7.5s-3.357-7.5-7.5-7.5h-8.192l12.34-65.813h98.669z"/><path d="m309.952 269.636c1.131.625 2.38.936 3.627.936 1.388 0 2.773-.385 3.991-1.15l33.525-21.073h108.957c9.705 0 17.602-7.896 17.602-17.602v-180.82c0-9.706-7.896-17.602-17.602-17.602h-167.686c-9.705 0-17.602 7.896-17.602 17.602v180.819c0 9.706 7.896 17.602 17.602 17.602h13.713v14.724c0 2.729 1.484 5.243 3.873 6.564zm-17.586-36.288c-1.435 0-2.602-1.167-2.602-2.602v-180.819c0-1.435 1.167-2.602 2.602-2.602h167.687c1.435 0 2.602 1.167 2.602 2.602v180.819c0 1.435-1.167 2.602-2.602 2.602h-111.118c-1.412 0-2.796.399-3.991 1.15l-23.864 15v-8.651c0-4.142-3.357-7.5-7.5-7.5h-21.214z"/><path d="m316.609 81.671h119.199c4.143 0 7.5-3.358 7.5-7.5s-3.357-7.5-7.5-7.5h-119.199c-4.143 0-7.5 3.358-7.5 7.5s3.358 7.5 7.5 7.5z"/><path d="m316.609 113.996h119.199c4.143 0 7.5-3.358 7.5-7.5s-3.357-7.5-7.5-7.5h-119.199c-4.143 0-7.5 3.358-7.5 7.5s3.358 7.5 7.5 7.5z"/><path d="m316.609 143.291h67.682c4.143 0 7.5-3.358 7.5-7.5s-3.357-7.5-7.5-7.5h-67.682c-4.143 0-7.5 3.358-7.5 7.5s3.358 7.5 7.5 7.5z"/><path d="m435.809 128.291h-19.192c-4.143 0-7.5 3.358-7.5 7.5s3.357 7.5 7.5 7.5h19.192c4.143 0 7.5-3.358 7.5-7.5s-3.358-7.5-7.5-7.5z"/><path d="m435.809 160.616h-54.549c-4.143 0-7.5 3.358-7.5 7.5s3.357 7.5 7.5 7.5h54.549c4.143 0 7.5-3.358 7.5-7.5s-3.358-7.5-7.5-7.5z"/><path d="m316.609 175.616h32.325c4.143 0 7.5-3.358 7.5-7.5s-3.357-7.5-7.5-7.5h-32.325c-4.143 0-7.5 3.358-7.5 7.5s3.358 7.5 7.5 7.5z"/><path d="m394.393 207.941c4.143 0 7.5-3.358 7.5-7.5s-3.357-7.5-7.5-7.5h-77.783c-4.143 0-7.5 3.358-7.5 7.5s3.357 7.5 7.5 7.5z"/></g></g></svg>