<svg id="Capa_1" enable-background="new 0 0 512 512" height="512" viewBox="0 0 512 512" width="512" xmlns="http://www.w3.org/2000/svg"><g><g><g><path d="m7.503 328.732h98.531l-2.374-30.84c-.808-10.526-9.586-18.658-20.143-18.658h-53.498c-10.556 0-19.335 8.132-20.143 18.658z" fill="#da4a54"/></g></g><g><g><path d="m305.266 328.732h-98.531l2.374-30.84c.808-10.526 9.586-18.658 20.143-18.658h53.498c10.556 0 19.335 8.132 20.143 18.658z" fill="#da4a54"/></g></g><g><g><path d="m504.497 328.732h-98.531l2.374-30.84c.808-10.526 9.586-18.658 20.143-18.658h53.498c10.556 0 19.335 8.132 20.143 18.658z" fill="#da4a54"/></g></g><g><path d="m7.5 363.077h497v141.423h-497z" fill="#c19d8e"/></g><g><path d="m478.236 363.077h26.264v141.423h-26.264z" fill="#b78b7a"/></g><g><path d="m7.5 328.732h497v34.346h-497z" fill="#665e66"/></g><g><path d="m478.236 328.732h26.264v34.346h-26.264z" fill="#544f57"/></g><g><g><path d="m451.969 410.555h-111.118l8.667-112.667c.81-10.526 9.587-18.654 20.144-18.654h53.497c10.557 0 19.334 8.128 20.144 18.654z" fill="#e28086"/></g><g><path d="m443.302 297.887c-.81-10.526-9.587-18.654-20.144-18.654h-20.203c10.557 0 19.334 8.128 20.144 18.654l8.667 112.667h20.203z" fill="#dd636e"/></g><g><path d="m451.969 444.9h-111.118c-5.579 0-10.102-4.523-10.102-10.102v-14.142c0-5.579 4.523-10.102 10.102-10.102h111.118c5.579 0 10.102 4.523 10.102 10.102v14.142c0 5.58-4.523 10.102-10.102 10.102z" fill="#da4a54"/></g></g><g><path d="m89.323 213.573h333.354v34.346h-333.354z" fill="#665e66"/></g><g><path d="m170.136-23.815h171.728v303.049h-171.728z" fill="#f6f9f9" transform="matrix(0 1 -1 0 383.709 -128.291)"/></g><g><g><path d="m340.854 76.191h32.325v103.037h-32.325z" fill="#9bd069"/></g><g><path d="m308.528 97.404h32.325v81.823h-32.325z" fill="#e28086"/></g><g><path d="m276.203 137.811h32.325v41.417h-32.325z" fill="#ffe07d"/></g></g><g><path d="m89.323 7.5h333.354v34.346h-333.354z" fill="#665e66"/></g><g><g><path d="m60.031 410.555h111.118l-8.667-112.667c-.81-10.526-9.587-18.654-20.144-18.654h-53.496c-10.557 0-19.334 8.128-20.144 18.654z" fill="#e28086"/></g><g><path d="m68.698 297.887c.81-10.526 9.587-18.654 20.144-18.654h20.203c-10.557 0-19.334 8.128-20.144 18.654l-8.667 112.667h-20.203z" fill="#dd636e"/></g><g><path d="m60.031 444.9h111.118c5.579 0 10.102-4.523 10.102-10.102v-14.142c0-5.579-4.523-10.102-10.102-10.102h-111.118c-5.579 0-10.102 4.523-10.102 10.102v14.142c0 5.58 4.523 10.102 10.102 10.102z" fill="#da4a54"/></g></g><g><path d="m511.971 328.153h.007l-2.379-30.831c-1.091-14.351-13.223-25.592-27.618-25.592l-112.319.004c-14.386 0-26.519 11.235-27.621 25.579l-1.84 23.917h-27.99l-1.841-23.912c-1.101-14.346-13.232-25.584-27.62-25.584h-53.498c-14.388 0-26.52 11.238-27.62 25.582l-1.841 23.914h-27.991l-1.84-23.917c-1.103-14.343-13.235-25.579-27.621-25.579l-112.319-.004c-14.396 0-26.527 11.241-27.617 25.583l-2.38 30.84c.002.002.004.004.006.006-.014.189-.029.378-.029.571v34.347.003 141.42c0 4.142 3.357 7.5 7.5 7.5h497c4.143 0 7.5-3.358 7.5-7.5v-141.42-.003-34.347c0-.195-.015-.386-.029-.577zm-171.12 109.247c-1.435 0-2.602-1.167-2.602-2.602v-14.142c0-1.435 1.167-2.602 2.602-2.602h111.1.01.009c1.434.001 2.6 1.168 2.6 2.602v14.142c0 1.435-1.167 2.602-2.602 2.602zm112.922-101.17h43.227v19.35h-41.738zm40.87-37.763 1.757 22.763h-43.78l-1.84-23.917c-.292-3.797-1.363-7.372-3.038-10.583h34.239c6.599 0 12.161 5.152 12.662 11.737zm-124.982-11.733h53.497c6.597 0 12.16 5.152 12.666 11.729l8.046 104.592h-94.921l8.046-104.592c.506-6.577 6.069-11.729 12.666-11.729zm-153.075 11.731c.505-6.578 6.068-11.731 12.665-11.731h53.498c6.597 0 12.16 5.153 12.665 11.733l1.752 22.763h-82.333zm-156.555 138.935c-1.435 0-2.602-1.167-2.602-2.602v-14.142c0-1.435 1.167-2.602 2.602-2.602h111.1.01.009c1.434.001 2.6 1.168 2.6 2.602v14.142c0 1.435-1.167 2.602-2.602 2.602zm-45.031-101.17h43.227l-1.489 19.35h-41.738zm140.005-37.767 8.046 104.592h-94.921l8.046-104.592c.506-6.577 6.069-11.729 12.666-11.729h53.497c6.597 0 12.16 5.152 12.666 11.729zm-124.985-11.733h34.239c-1.675 3.211-2.746 6.786-3.038 10.583l-1.84 23.917h-43.78l1.757-22.771c.5-6.577 6.062-11.729 12.662-11.729zm-15.02 210.27v-126.42h40.584l-2.613 33.964c-6.198 2.727-10.542 8.918-10.542 16.113v14.142c0 9.706 7.896 17.602 17.602 17.602h48.059v44.599zm108.09 0v-44.6h48.06c9.705 0 17.602-7.896 17.602-17.602v-14.142c0-7.194-4.344-13.386-10.542-16.113l-2.613-33.964h84.154c4.143 0 7.5-3.358 7.5-7.5s-3.357-7.5-7.5-7.5h-85.308l-1.489-19.35h166.093l-1.489 19.35h-42.771c-4.143 0-7.5 3.358-7.5 7.5s3.357 7.5 7.5 7.5h41.618l-2.613 33.964c-6.198 2.727-10.542 8.918-10.542 16.113v14.142c0 9.706 7.896 17.602 17.602 17.602h48.06v44.6zm280.82 0v-44.6h48.059c9.705 0 17.602-7.896 17.602-17.602v-14.142c0-7.194-4.344-13.386-10.542-16.113l-2.613-33.964h40.584v126.421z"/><path d="m380.679 179.228v-103.037c0-4.142-3.357-7.5-7.5-7.5h-32.325c-4.143 0-7.5 3.358-7.5 7.5v13.713h-24.825c-4.143 0-7.5 3.358-7.5 7.5v32.907h-24.825c-4.143 0-7.5 3.358-7.5 7.5v41.417c0 4.142 3.357 7.5 7.5 7.5h32.325 32.325 32.325c4.142 0 7.5-3.358 7.5-7.5zm-96.976-33.917h17.325v26.417h-17.325zm32.325-7.5v-32.907h17.325v66.823h-17.325zm49.651 33.917h-17.325v-74.324-13.713h17.325z"/><path d="m138.821 83.691h61.62c4.143 0 7.5-3.358 7.5-7.5s-3.357-7.5-7.5-7.5h-61.62c-4.143 0-7.5 3.358-7.5 7.5s3.358 7.5 7.5 7.5z"/><path d="m251.959 68.691h-19.192c-4.143 0-7.5 3.358-7.5 7.5s3.357 7.5 7.5 7.5h19.192c4.143 0 7.5-3.358 7.5-7.5s-3.357-7.5-7.5-7.5z"/><path d="m251.959 101.016h-60.609c-4.143 0-7.5 3.358-7.5 7.5s3.357 7.5 7.5 7.5h60.609c4.143 0 7.5-3.358 7.5-7.5s-3.357-7.5-7.5-7.5z"/><path d="m138.821 116.016h20.203c4.143 0 7.5-3.358 7.5-7.5s-3.357-7.5-7.5-7.5h-20.203c-4.143 0-7.5 3.358-7.5 7.5s3.358 7.5 7.5 7.5z"/><path d="m210.543 133.341h-71.722c-4.143 0-7.5 3.358-7.5 7.5s3.357 7.5 7.5 7.5h71.722c4.143 0 7.5-3.358 7.5-7.5s-3.357-7.5-7.5-7.5z"/><path d="m89.323 255.418h333.354c4.143 0 7.5-3.358 7.5-7.5v-34.345c0-4.142-3.357-7.5-7.5-7.5h-7.652v-156.727h7.652c4.143 0 7.5-3.358 7.5-7.5v-34.346c0-4.142-3.357-7.5-7.5-7.5h-333.354c-4.143 0-7.5 3.358-7.5 7.5v34.346c0 4.142 3.357 7.5 7.5 7.5h7.652v156.728h-7.652c-4.143 0-7.5 3.358-7.5 7.5v34.345c0 4.142 3.358 7.499 7.5 7.499zm7.5-34.345h247.891c4.143 0 7.5-3.358 7.5-7.5s-3.357-7.5-7.5-7.5h-232.738v-156.727h17.274c4.143 0 7.5-3.358 7.5-7.5s-3.357-7.5-7.5-7.5h-32.427v-19.346h318.354v19.346h-250.908c-4.143 0-7.5 3.358-7.5 7.5s3.357 7.5 7.5 7.5h235.756v156.728h-20.261c-4.143 0-7.5 3.358-7.5 7.5s3.357 7.5 7.5 7.5h35.413v19.345h-318.354z"/></g></g></svg>