<svg id="Capa_1" enable-background="new 0 0 512 512" height="512" viewBox="0 0 512 512" width="512" xmlns="http://www.w3.org/2000/svg"><g><g><path d="m346.915 504.5h-181.83c-16.737 0-30.305-13.568-30.305-30.305v-466.695h242.44v466.695c0 16.737-13.568 30.305-30.305 30.305z" fill="#665e66"/></g><g><path d="m353.986 7.5v466.695c0 16.737-13.568 30.305-30.305 30.305h23.234c16.737 0 30.305-13.568 30.305-30.305v-466.695z" fill="#544f57"/></g><g><path d="m167.106 39.825h177.789v141.423h-177.789z" fill="#cbe2ff"/></g><g><path d="m328.732 39.825v115.159c0 5.579-4.523 10.102-10.102 10.102h-151.524v16.163h177.789v-141.424z" fill="#bed8fb"/></g><g><circle cx="191.35" cy="239.837" fill="#f1f4f6" r="24.244"/></g><g><circle cx="320.65" cy="239.837" fill="#f1f4f6" r="24.244"/></g><g><circle cx="256" cy="311.559" fill="#e28086" r="40.407"/></g><g><circle cx="256" cy="311.559" r="16.163"/></g><g><g><g><circle cx="175.187" cy="398.433" r="12.122"/></g><g><circle cx="215.593" cy="398.433" r="12.122"/></g><g><circle cx="256" cy="398.433" r="12.122"/></g><g><circle cx="296.406" cy="398.433" r="12.122"/></g><g><circle cx="336.813" cy="398.433" r="12.122"/></g></g><g><g><circle cx="175.187" cy="438.839" r="12.122"/></g><g><circle cx="215.593" cy="438.839" r="12.122"/></g><g><circle cx="256" cy="438.839" r="12.122"/></g><g><circle cx="296.406" cy="438.839" r="12.122"/></g><g><circle cx="336.813" cy="438.839" r="12.122"/></g></g></g><g><path d="m134.78 383.632c-4.142 0-7.5-3.358-7.5-7.5v-368.632c0-4.142 3.358-7.5 7.5-7.5h242.44c4.142 0 7.5 3.358 7.5 7.5v120.482c0 4.142-3.358 7.5-7.5 7.5s-7.5-3.358-7.5-7.5v-112.982h-227.44v361.132c0 4.142-3.358 7.5-7.5 7.5z"/></g><g><path d="m346.915 512h-181.83c-20.846 0-37.805-16.959-37.805-37.805v-63.043c0-4.142 3.358-7.5 7.5-7.5s7.5 3.358 7.5 7.5v63.043c0 12.575 10.23 22.805 22.805 22.805h181.829c12.575 0 22.805-10.23 22.805-22.805v-311.231c0-4.142 3.358-7.5 7.5-7.5s7.5 3.358 7.5 7.5v311.231c.001 20.846-16.959 37.805-37.804 37.805z"/></g><g><path d="m344.895 188.748h-177.79c-4.142 0-7.5-3.358-7.5-7.5v-141.423c0-4.142 3.358-7.5 7.5-7.5h177.789c4.142 0 7.5 3.358 7.5 7.5v141.423c.001 4.142-3.357 7.5-7.499 7.5zm-170.29-15h162.789v-126.423h-162.789z"/></g><g><path d="m191.35 271.582c-17.504 0-31.744-14.24-31.744-31.744s14.24-31.744 31.744-31.744c17.503 0 31.744 14.24 31.744 31.744s-14.241 31.744-31.744 31.744zm0-48.489c-9.233 0-16.744 7.511-16.744 16.744s7.511 16.744 16.744 16.744c9.232 0 16.744-7.511 16.744-16.744s-7.512-16.744-16.744-16.744z"/></g><g><path d="m320.65 271.582c-17.503 0-31.744-14.24-31.744-31.744s14.24-31.744 31.744-31.744 31.744 14.24 31.744 31.744-14.24 31.744-31.744 31.744zm0-48.489c-9.232 0-16.744 7.511-16.744 16.744s7.511 16.744 16.744 16.744 16.744-7.511 16.744-16.744-7.511-16.744-16.744-16.744z"/></g><g><path d="m256 359.465c-26.416 0-47.907-21.491-47.907-47.906 0-26.416 21.491-47.907 47.907-47.907s47.907 21.491 47.907 47.907-21.491 47.906-47.907 47.906zm0-80.813c-18.145 0-32.907 14.762-32.907 32.907s14.762 32.906 32.907 32.906 32.907-14.762 32.907-32.906c0-18.145-14.762-32.907-32.907-32.907z"/></g><g><g><path d="m207.512 154.402c-4.142 0-7.5-3.358-7.5-7.5v-12.122c0-4.142 3.358-7.5 7.5-7.5s7.5 3.358 7.5 7.5v12.122c0 4.142-3.358 7.5-7.5 7.5z"/></g><g><path d="m239.837 154.402c-4.142 0-7.5-3.358-7.5-7.5v-42.427c0-4.142 3.358-7.5 7.5-7.5s7.5 3.358 7.5 7.5v42.427c0 4.142-3.358 7.5-7.5 7.5z"/></g><g><path d="m272.163 154.402c-4.142 0-7.5-3.358-7.5-7.5v-32.325c0-4.142 3.358-7.5 7.5-7.5s7.5 3.358 7.5 7.5v32.325c0 4.142-3.358 7.5-7.5 7.5z"/></g><g><path d="m304.488 154.402c-4.142 0-7.5-3.358-7.5-7.5v-52.528c0-4.142 3.358-7.5 7.5-7.5s7.5 3.358 7.5 7.5v52.528c0 4.142-3.358 7.5-7.5 7.5z"/></g></g></g></svg>