<svg id="Capa_1" enable-background="new 0 0 512 512" height="512" viewBox="0 0 512 512" width="512" xmlns="http://www.w3.org/2000/svg"><g><g><path d="m504.5 174.177-80.813-60.61v25.254h-51.518c-44.632 0-80.813 36.181-80.813 80.813v74.752l71.846.279v-75.031c0-5.579 4.523-10.102 10.102-10.102h50.383v25.254z" fill="#9bd069"/></g><g><path d="m363.202 294.665v-31.428l-23.63-23.63c-1.552-1.552-4.001-1.752-5.784-.471l-25.828 18.552c-2.701 1.94-6.499.367-7.037-2.915l-5.144-31.382c-.355-2.166-2.227-3.757-4.423-3.757v74.752z" fill="#7dbe3b"/></g><g><path d="m7.5 174.177 80.813-60.61v25.254h51.518c44.632 0 80.813 36.181 80.813 80.813v74.752l-71.846.279v-75.031c0-5.579-4.523-10.102-10.102-10.102h-50.383v25.254z" fill="#ffe07d"/></g><g><path d="m204.04 257.688-25.828-18.552c-1.783-1.281-4.231-1.081-5.784.471l-23.63 23.63v31.428l71.846-.279v-74.752c-2.195 0-4.068 1.59-4.423 3.757l-5.144 31.382c-.538 3.281-4.336 4.855-7.037 2.915z" fill="#ffd064"/></g><g><path d="m291.356 300.447v-212.134h25.254l-60.61-80.813-60.61 80.813h25.254v212.134z" fill="#e28086"/></g><g><path d="m220.644 219.634h70.711v80.813h-70.711z" fill="#dd636e"/></g><g><g><g><path d="m387.321 393.464v-40.571l-39.004-6.394c-2.003-6.921-4.767-13.522-8.192-19.708l23.077-32.127-28.688-28.688-32.127 23.077c-6.186-3.425-12.787-6.188-19.708-8.192l-6.394-39.004h-40.571l-6.394 39.004c-6.921 2.003-13.522 4.767-19.708 8.192l-32.127-23.077-28.688 28.688 23.077 32.127c-3.425 6.186-6.188 12.787-8.192 19.708l-39.004 6.394v40.571l39.004 6.394c2.003 6.921 4.767 13.522 8.192 19.708l-23.077 32.127 28.688 28.688 32.127-23.077c6.186 3.425 12.787 6.188 19.708 8.192l6.394 39.004h40.571l6.394-39.004c6.921-2.003 13.522-4.767 19.708-8.192l32.127 23.077 28.688-28.688-23.077-32.127c3.425-6.186 6.188-12.787 8.192-19.708zm-131.321 5.338c-14.152 0-25.624-11.472-25.624-25.624s11.472-25.624 25.624-25.624 25.624 11.472 25.624 25.624-11.472 25.624-25.624 25.624z" fill="#f1f4f6"/></g><g><path d="m387.321 393.464v-40.571l-39.004-6.394c-1.251-4.322-2.799-8.519-4.619-12.569.114 2.125.175 4.264.175 6.418 0 65.342-52.971 118.313-118.313 118.313-5.161 0-10.244-.332-15.23-.973 5.98 3.245 12.335 5.881 18.991 7.807l6.394 39.004h40.571l6.394-39.004c6.921-2.003 13.522-4.767 19.708-8.192l32.127 23.077 28.688-28.688-23.077-32.127c3.425-6.186 6.188-12.787 8.192-19.708z" fill="#dfeaef"/></g></g></g><g><path d="m509 168.177-80.813-60.61c-2.272-1.705-5.313-1.979-7.854-.708-2.541 1.27-4.146 3.867-4.146 6.708v17.754h-44.019c-30.518 0-57.468 15.562-73.338 39.165l-.005-23.589c-.001-4.142-3.358-7.499-7.5-7.499h-.001c-4.142.001-7.5 3.359-7.499 7.501l.021 94.719-.16-.974c-.595-3.625-3.728-6.287-7.401-6.287h-40.57c-3.674 0-6.807 2.661-7.401 6.287l-.169 1.031v-153.362c0-4.142-3.358-7.5-7.5-7.5h-10.255l45.61-60.813 45.61 60.813h-10.254c-4.142 0-7.5 3.358-7.5 7.5v23.58c0 4.142 3.358 7.5 7.5 7.5s7.5-3.358 7.5-7.5v-16.08h17.754c2.841 0 5.438-1.605 6.708-4.146 1.271-2.541.997-5.582-.708-7.854l-60.61-80.813c-1.417-1.889-3.639-3-6-3s-4.583 1.111-6 3l-60.61 80.813c-1.705 2.272-1.979 5.313-.708 7.854 1.27 2.541 3.867 4.146 6.708 4.146h17.754v74.635c-15.873-23.582-42.811-39.127-73.313-39.127h-44.018v-17.754c0-2.841-1.605-5.438-4.146-6.708s-5.581-.998-7.854.708l-80.813 60.61c-1.889 1.417-3 3.639-3 6s1.111 4.583 3 6l80.813 60.61c1.323.993 2.907 1.5 4.501 1.5 1.143 0 2.292-.261 3.353-.792 2.541-1.27 4.146-3.867 4.146-6.708v-17.754h2.241c4.142 0 7.5-3.358 7.5-7.5s-3.358-7.5-7.5-7.5h-9.741c-4.142 0-7.5 3.358-7.5 7.5v10.254l-60.813-45.61 60.813-45.61v10.254c0 4.142 3.358 7.5 7.5 7.5h51.519c40.425 0 73.313 32.888 73.313 73.313v59.25c-.977.446-1.948.905-2.912 1.381l-28.372-20.379c-2.983-2.144-7.081-1.81-9.679.788l-15.885 15.885v-56.924c0-9.706-7.896-17.602-17.602-17.602h-5.522c-4.142 0-7.5 3.358-7.5 7.5s3.358 7.5 7.5 7.5h5.522c1.435 0 2.602 1.167 2.602 2.602v75.03h.001c0 1.526.461 3.059 1.407 4.376l20.38 28.372c-1.992 4.03-3.72 8.188-5.168 12.432l-34.453 5.648c-3.625.594-6.287 3.728-6.287 7.401v40.571c0 3.674 2.661 6.807 6.287 7.401l34.453 5.648c1.448 4.245 3.176 8.402 5.168 12.432l-20.38 28.372c-2.144 2.984-1.81 7.081.788 9.679l28.688 28.688c2.597 2.597 6.694 2.932 9.679.788l28.372-20.379c4.03 1.992 8.187 3.72 12.432 5.167l5.648 34.453c.595 3.625 3.728 6.287 7.401 6.287h40.57c3.674 0 6.807-2.661 7.401-6.287l5.648-34.453c4.245-1.448 8.402-3.175 12.432-5.167l28.372 20.379c2.983 2.144 7.08 1.81 9.679-.788l28.688-28.688c2.598-2.598 2.932-6.695.788-9.679l-20.38-28.372c1.992-4.03 3.72-8.188 5.168-12.432l34.453-5.648c3.625-.594 6.287-3.728 6.287-7.401v-40.571c0-3.674-2.661-6.807-6.287-7.401l-34.453-5.648c-1.448-4.245-3.176-8.402-5.168-12.432l20.38-28.372c.946-1.317 1.408-2.85 1.407-4.375h.001v-75.03c0-1.435 1.167-2.602 2.602-2.602h5.522c4.142 0 7.5-3.358 7.5-7.5s-3.358-7.5-7.5-7.5h-5.522c-9.706 0-17.602 7.896-17.602 17.602v56.924l-15.885-15.885c-2.597-2.598-6.694-2.932-9.679-.788l-28.372 20.379c-.964-.476-1.935-.935-2.913-1.381l-.013-58.971c.003-.093.014-.185.014-.279 0-40.425 32.888-73.313 73.313-73.313h51.519c4.142 0 7.5-3.358 7.5-7.5v-10.254l60.817 45.609-60.813 45.61v-10.254c0-4.142-3.358-7.5-7.5-7.5h-9.741c-4.142 0-7.5 3.358-7.5 7.5s3.358 7.5 7.5 7.5h2.241v17.754c0 2.841 1.605 5.438 4.146 6.708 1.062.531 2.209.792 3.353.792 1.594 0 3.178-.507 4.501-1.5l80.813-60.61c1.889-1.417 3-3.639 3-6s-1.111-4.584-3-6zm-202.237 126.968 26.953-19.36 19.678 19.678-19.36 26.953c-1.691 2.354-1.874 5.472-.47 8.008 3.188 5.758 5.728 11.868 7.549 18.161.804 2.779 3.136 4.848 5.991 5.316l32.718 5.363v27.83l-32.718 5.363c-2.855.468-5.187 2.537-5.991 5.316-1.821 6.292-4.361 12.402-7.549 18.161-1.404 2.536-1.221 5.654.47 8.008l19.36 26.953-19.679 19.678-26.952-19.36c-2.354-1.69-5.471-1.874-8.008-.47-5.758 3.187-11.868 5.727-18.161 7.549-2.779.804-4.848 3.136-5.316 5.991l-5.363 32.717h-27.829l-5.364-32.718c-.468-2.855-2.537-5.187-5.316-5.991-6.293-1.822-12.403-4.362-18.161-7.549-2.536-1.403-5.653-1.22-8.008.47l-26.952 19.36-19.679-19.678 19.36-26.953c1.691-2.354 1.874-5.472.47-8.008-3.188-5.759-5.728-11.869-7.549-18.161-.804-2.779-3.136-4.848-5.991-5.316l-32.718-5.363v-27.83l32.718-5.363c2.855-.468 5.187-2.537 5.991-5.316 1.822-6.292 4.361-12.403 7.549-18.161 1.404-2.536 1.221-5.654-.47-8.008l-19.36-26.953 19.678-19.678 26.953 19.36c2.354 1.691 5.472 1.874 8.008.47 5.759-3.188 11.87-5.728 18.161-7.548 2.779-.805 4.848-3.136 5.316-5.991l5.364-32.718h27.829l5.364 32.718c.468 2.855 2.537 5.187 5.316 5.991 6.291 1.82 12.401 4.36 18.161 7.548 2.535 1.405 5.653 1.222 8.007-.469z"/><path d="m222.876 373.179c0 18.265 14.859 33.124 33.124 33.124s33.124-14.859 33.124-33.124c0-18.264-14.859-33.124-33.124-33.124s-33.124 14.86-33.124 33.124zm51.248 0c0 9.994-8.13 18.124-18.124 18.124s-18.124-8.13-18.124-18.124c0-9.993 8.13-18.124 18.124-18.124s18.124 8.131 18.124 18.124z"/><path d="m188.711 373.179c0 37.103 30.186 67.289 67.289 67.289s67.289-30.186 67.289-67.289-30.186-67.289-67.289-67.289-67.289 30.186-67.289 67.289zm119.578 0c0 28.832-23.457 52.289-52.289 52.289s-52.289-23.457-52.289-52.289 23.457-52.289 52.289-52.289 52.289 23.457 52.289 52.289z"/></g></g></svg>