<svg id="Capa_1" enable-background="new 0 0 512 512" height="512" viewBox="0 0 512 512" width="512" xmlns="http://www.w3.org/2000/svg"><g><g><circle cx="256" cy="256" fill="#665e66" r="248.5"/></g><g><path d="m423.446 72.391c40.306 44.172 64.891 102.937 64.891 167.446 0 18.904-2.119 37.313-6.12 55.007-.819 3.621-5.293 4.936-7.918 2.311-3.521-3.521-8.176-5.326-12.863-5.326-3.696 0-7.411 1.124-10.602 3.415l-15.784 11.337-3.144-19.177c-1.44-8.79-9.036-15.242-17.943-15.242h-33.081c-8.907 0-16.503 6.452-17.943 15.242l-3.144 19.177-15.784-11.337c-3.19-2.292-6.905-3.415-10.602-3.415-4.686 0-9.343 1.805-12.863 5.326l-23.392 23.392c-6.299 6.298-7.108 16.231-1.911 23.465l11.338 15.784-19.178 3.144c-8.789 1.441-15.241 9.036-15.241 17.943v33.081c0 8.907 6.452 16.502 15.241 17.943l19.178 3.144-11.338 15.784c-5.196 7.234-4.387 17.167 1.911 23.465 2.625 2.625 1.311 7.099-2.311 7.918-17.695 4.001-36.103 6.12-55.007 6.12-64.51 0-123.274-24.585-167.446-64.891 45.444 49.802 110.874 81.053 183.606 81.054 137.094 0 248.505-111.41 248.504-248.503 0-72.732-31.252-138.163-81.054-183.607zm-26.023 322.321c1.495 0 2.71 1.216 2.71 2.71s-1.215 2.71-2.71 2.71-2.71-1.216-2.71-2.71 1.215-2.71 2.71-2.71z" fill="#544f57"/></g><g><circle cx="256" cy="256" fill="#f6f9f9" r="202.033"/></g><g><path d="m454.609 293.16c-1.313.533-2.581 1.227-3.775 2.085l-15.784 11.337-3.144-19.177c-1.44-8.79-9.036-15.242-17.943-15.242h-33.081c-8.907 0-16.503 6.452-17.943 15.242l-3.144 19.177-15.784-11.337c-3.19-2.292-6.905-3.415-10.602-3.415-4.686 0-9.343 1.805-12.863 5.326l-23.392 23.392c-6.299 6.298-7.108 16.231-1.911 23.465l11.338 15.784-19.178 3.144c-8.79 1.441-15.241 9.036-15.241 17.943v33.081c0 8.907 6.452 16.502 15.241 17.943l19.178 3.144-11.338 15.784c-.856 1.192-1.533 2.462-2.066 3.772 40.268-7.491 76.333-26.923 104.39-54.487-.049.003-.096.015-.146.015-1.495 0-2.71-1.216-2.71-2.71s1.215-2.71 2.71-2.71 2.71 1.216 2.71 2.71c0 .05-.012.097-.015.146 27.57-28.065 47.005-64.137 54.493-104.412z" fill="#f1f4f6"/></g><g><path d="m430.989 154.97c-34.934-60.378-100.216-101.003-174.989-101.003-111.58 0-202.033 90.454-202.033 202.033h202.033z" fill="#e28086"/></g><g><circle cx="256" cy="256" fill="#665e66" r="20.203"/></g><g><g><g><path d="m504.5 413.963v-33.081l-31.804-5.214c-1.634-5.643-3.887-11.025-6.679-16.07l18.817-26.196-23.392-23.392-26.196 18.817c-5.044-2.793-10.426-5.046-16.07-6.679l-5.214-31.804h-33.081l-5.214 31.804c-5.643 1.634-11.025 3.887-16.07 6.679l-26.195-18.817-23.392 23.392 18.816 26.195c-2.793 5.044-5.046 10.426-6.679 16.07l-31.804 5.214v33.081l31.804 5.214c1.634 5.643 3.887 11.025 6.679 16.07l-18.816 26.195 23.392 23.392 26.195-18.817c5.044 2.793 10.426 5.046 16.07 6.679l5.214 31.804h33.081l5.214-31.804c5.643-1.634 11.025-3.887 16.07-6.679l26.196 18.817 23.392-23.392-18.817-26.196c2.793-5.044 5.046-10.426 6.679-16.07zm-107.077 4.353c-11.539 0-20.893-9.354-20.893-20.893s9.354-20.893 20.893-20.893 20.893 9.354 20.893 20.893-9.354 20.893-20.893 20.893z" fill="#ffe07d"/></g><g><path d="m504.5 413.963v-33.081l-31.804-5.214c-1.02-3.524-2.282-6.947-3.766-10.248.093 1.733.143 3.477.143 5.233 0 53.279-43.191 96.471-96.471 96.471-4.208 0-8.353-.271-12.418-.794 4.876 2.646 10.058 4.795 15.485 6.366l5.214 31.804h33.081l5.214-31.804c5.643-1.634 11.025-3.887 16.069-6.679l26.196 18.816 23.392-23.392-18.816-26.196c2.792-5.044 5.046-10.426 6.679-16.07z" fill="#ffd064"/></g></g></g><g><path d="m451.997 206.215c3.975-1.166 6.251-5.333 5.085-9.308-12.484-42.554-38.907-80.846-74.401-107.824-36.681-27.879-80.486-42.616-126.681-42.616-115.536 0-209.532 93.996-209.532 209.533 0 49.737 17.731 97.954 49.929 135.769 1.484 1.742 3.593 2.638 5.715 2.638 1.719 0 3.447-.588 4.858-1.79 3.153-2.686 3.533-7.419.849-10.573-28.268-33.2-44.516-75.04-46.197-118.544h167.715c2.607 9.255 9.908 16.556 19.163 19.163v84.455c0 4.142 3.357 7.5 7.5 7.5s7.5-3.358 7.5-7.5v-84.455c11.642-3.279 20.203-13.987 20.203-26.663 0-2.361-.298-4.652-.857-6.842l145.25-83.858c5.987 11.288 10.907 23.267 14.593 35.829 1.166 3.975 5.329 6.255 9.308 5.086zm-195.997 62.488c-7.005 0-12.703-5.699-12.703-12.703s5.698-12.703 12.703-12.703 12.703 5.699 12.703 12.703-5.698 12.703-12.703 12.703zm19.327-32.524c-4.995-4.872-11.815-7.882-19.327-7.882-4.918 0-9.538 1.294-13.546 3.551l-45.437-45.437c-2.929-2.929-7.677-2.929-10.607 0-2.929 2.929-2.929 7.678 0 10.606l45.437 45.438c-1.064 1.89-1.911 3.916-2.511 6.045h-167.71c3.957-103.802 89.621-187.033 194.374-187.033 67.542 0 129.483 35.6 164.556 90.867z"/><path d="m256 80.813c-4.143 0-7.5 3.358-7.5 7.5v20.203c0 4.142 3.357 7.5 7.5 7.5s7.5-3.358 7.5-7.5v-20.203c0-4.142-3.357-7.5-7.5-7.5z"/><path d="m178.651 107.029c-2.07-3.588-6.659-4.816-10.245-2.745-3.587 2.071-4.816 6.658-2.745 10.245l10.102 17.497c1.389 2.406 3.91 3.751 6.502 3.751 1.272 0 2.563-.324 3.743-1.006 3.587-2.071 4.816-6.658 2.745-10.245z"/><path d="m132.025 175.763-17.497-10.102c-3.59-2.072-8.175-.842-10.245 2.745-2.071 3.587-.842 8.174 2.745 10.245l17.497 10.102c1.182.682 2.471 1.006 3.743 1.006 2.592 0 5.113-1.346 6.502-3.751 2.072-3.587.842-8.174-2.745-10.245z"/><path d="m124.525 323.247-17.497 10.102c-3.587 2.071-4.816 6.658-2.745 10.245 1.389 2.406 3.91 3.751 6.502 3.751 1.272 0 2.563-.324 3.743-1.006l17.497-10.102c3.587-2.071 4.816-6.658 2.745-10.245-2.07-3.589-6.66-4.817-10.245-2.745z"/><path d="m175.763 379.975-10.102 17.497c-2.071 3.587-.842 8.174 2.745 10.245 1.182.682 2.471 1.006 3.743 1.006 2.592 0 5.113-1.346 6.502-3.751l10.102-17.497c2.071-3.587.842-8.174-2.745-10.245-3.589-2.073-8.176-.843-10.245 2.745z"/><path d="m256 395.984c-4.143 0-7.5 3.358-7.5 7.5v20.203c0 4.142 3.357 7.5 7.5 7.5s7.5-3.358 7.5-7.5v-20.203c0-4.142-3.357-7.5-7.5-7.5z"/><path d="m403.483 248.5c-4.143 0-7.5 3.358-7.5 7.5s3.357 7.5 7.5 7.5h20.203c4.143 0 7.5-3.358 7.5-7.5s-3.357-7.5-7.5-7.5z"/><path d="m343.594 104.284c-3.589-2.072-8.175-.843-10.245 2.745l-10.102 17.497c-2.071 3.587-.842 8.174 2.745 10.245 1.182.682 2.471 1.006 3.743 1.006 2.592 0 5.113-1.346 6.502-3.751l10.102-17.497c2.071-3.588.842-8.175-2.745-10.245z"/><path d="m397.423 369.03c-15.656 0-28.394 12.737-28.394 28.393s12.737 28.393 28.394 28.393c15.655 0 28.393-12.737 28.393-28.393s-12.738-28.393-28.393-28.393zm0 41.786c-7.385 0-13.394-6.008-13.394-13.393s6.009-13.393 13.394-13.393 13.393 6.008 13.393 13.393-6.008 13.393-13.393 13.393z"/><path d="m505.713 373.481-20.514-3.363c17.557-35.254 26.801-74.481 26.801-114.118 0-68.379-26.629-132.666-74.981-181.019s-112.64-74.981-181.019-74.981c-61.135 0-120.319 21.9-166.649 61.667-3.144 2.698-3.504 7.433-.807 10.576s7.432 3.504 10.576.806c43.612-37.433 99.326-58.049 156.88-58.049 132.888 0 241 108.112 241 241 0 23.4-3.425 46.646-10.049 68.913l-20.205-20.205c-1.732-1.732-4.13-2.451-6.421-2.107 3.457-15.211 5.207-30.814 5.207-46.601 0-7.792-.433-15.646-1.286-23.347-.456-4.117-4.169-7.085-8.28-6.628-4.117.457-7.084 4.164-6.628 8.281.792 7.153 1.194 14.453 1.194 21.694 0 20.241-3.095 40.147-9.185 59.212l-6.743 4.843c-2.854-1.377-5.784-2.594-8.769-3.645l-4.472-27.278c-.595-3.625-3.728-6.287-7.401-6.287h-33.08c-3.674 0-6.807 2.661-7.401 6.287l-4.472 27.278c-2.984 1.05-5.914 2.268-8.77 3.645l-22.461-16.135c-2.985-2.144-7.082-1.811-9.68.788l-23.39 23.392c-2.598 2.598-2.931 6.695-.788 9.679l16.135 22.462c-1.377 2.855-2.595 5.785-3.644 8.768l-27.278 4.472c-3.626.595-6.287 3.728-6.287 7.401v33.081c0 3.674 2.661 6.807 6.287 7.401l27.277 4.471c1.05 2.983 2.268 5.913 3.645 8.769l-4.844 6.743c-19.065 6.089-38.971 9.185-59.211 9.185-45.312 0-89.427-15.916-124.22-44.816-3.184-2.646-7.914-2.21-10.562.978-2.646 3.186-2.209 7.915.978 10.562 37.479 31.132 84.999 48.277 133.804 48.277 15.787 0 31.39-1.75 46.601-5.207-.344 2.29.375 4.688 2.107 6.419l20.206 20.206c-22.267 6.624-45.513 10.049-68.914 10.049-132.888 0-241-108.112-241-241 0-58.621 21.297-115.12 59.968-159.088 2.735-3.11 2.432-7.849-.679-10.585s-7.851-2.432-10.585.679c-41.08 46.708-63.704 106.724-63.704 168.994 0 68.379 26.629 132.666 74.981 181.019s112.64 74.981 181.019 74.981c39.637 0 78.865-9.244 114.119-26.801l3.363 20.514c.595 3.625 3.728 6.287 7.401 6.287h33.08c3.674 0 6.807-2.661 7.401-6.287l4.472-27.278c2.984-1.05 5.913-2.268 8.769-3.645l22.463 16.134c2.981 2.143 7.08 1.81 9.679-.788l23.392-23.392c2.598-2.598 2.931-6.695.788-9.679l-16.135-22.462c1.376-2.855 2.594-5.785 3.644-8.768l27.278-4.472c3.626-.594 6.287-3.728 6.287-7.401v-33.081c-.001-3.673-2.662-6.805-6.288-7.4zm-8.713 34.112-25.517 4.183c-2.855.468-5.187 2.537-5.991 5.316-1.457 5.032-3.488 9.918-6.036 14.523-1.404 2.536-1.221 5.653.47 8.007l15.101 21.021-14.383 14.382-21.022-15.1c-2.353-1.69-5.47-1.875-8.008-.47-4.604 2.549-9.49 4.581-14.521 6.036-2.779.805-4.849 3.136-5.316 5.991l-4.184 25.518h-20.34l-4.183-25.517c-.468-2.855-2.537-5.187-5.316-5.991-5.03-1.456-9.917-3.487-14.523-6.037-2.535-1.404-5.653-1.22-8.008.471l-21.021 15.1-14.383-14.382 15.101-21.021c1.69-2.354 1.874-5.472.47-8.007-2.55-4.608-4.581-9.494-6.036-14.522-.804-2.78-3.136-4.849-5.991-5.317l-25.517-4.183v-20.34l25.517-4.183c2.855-.468 5.188-2.537 5.991-5.317 1.455-5.028 3.486-9.914 6.036-14.522 1.404-2.536 1.221-5.653-.47-8.007l-15.101-21.021 14.383-14.382 21.021 15.1c2.354 1.691 5.472 1.875 8.009.47 4.604-2.549 9.49-4.58 14.523-6.037 2.778-.805 4.848-3.136 5.315-5.991l4.183-25.517h20.34l4.183 25.517c.468 2.855 2.537 5.186 5.315 5.991 5.034 1.457 9.92 3.488 14.522 6.037 2.534 1.404 5.654 1.221 8.008-.47l21.022-15.1 14.383 14.382-15.101 21.021c-1.69 2.354-1.874 5.472-.47 8.007 2.548 4.605 4.579 9.491 6.036 14.523.805 2.779 3.136 4.847 5.991 5.315l25.518 4.183z"/><path d="m397.423 341.172c-31.017 0-56.251 25.234-56.251 56.25s25.234 56.25 56.251 56.25 56.251-25.234 56.251-56.25-25.235-56.25-56.251-56.25zm0 97.501c-22.746 0-41.251-18.505-41.251-41.25s18.505-41.25 41.251-41.25 41.251 18.505 41.251 41.25-18.505 41.25-41.251 41.25z"/></g></g></svg>