<svg id="Capa_1" enable-background="new 0 0 512 512" height="512" viewBox="0 0 512 512" width="512" xmlns="http://www.w3.org/2000/svg"><g><g><path d="m80.232 7.5c-5.579 0-10.102 4.523-10.102 10.102v476.797c0 5.579 4.523 10.102 10.102 10.102h44.447v-497.001z" fill="#544f57"/></g><g><path d="m401.463 504.5h-276.784v-497h276.785c22.316 0 40.406 18.091 40.406 40.407v416.187c0 22.315-18.091 40.406-40.407 40.406z" fill="#cbe2ff"/></g><g><path d="m226.705 26.693h101.016v183.85h-101.016z" fill="#f6f9f9" transform="matrix(0 1 -1 0 395.831 -158.596)"/></g><g><path d="m401.463 7.5h-21.213c22.316 0 40.406 18.091 40.406 40.407v416.187c0 22.316-18.091 40.406-40.406 40.406h21.213c22.316 0 40.406-18.091 40.406-40.406v-416.187c.001-22.316-18.09-40.407-40.406-40.407z" fill="#bed8fb"/></g><g><path d="m369.138 7.5h32.325v497h-32.325z" fill="#e28086"/></g><g><path d="m441.87 95.232c4.143 0 7.5-3.358 7.5-7.5v-39.825c0-26.416-21.49-47.907-47.906-47.907h-321.233c-9.705 0-17.601 7.896-17.601 17.602v106.97c0 4.142 3.357 7.5 7.5 7.5s7.5-3.358 7.5-7.5v-106.97c0-1.435 1.167-2.602 2.602-2.602h36.947v482h-36.948c-1.435 0-2.602-1.167-2.602-2.602v-334.779c0-4.142-3.357-7.5-7.5-7.5s-7.5 3.358-7.5 7.5v334.779c0 9.706 7.896 17.602 17.602 17.602h321.232c26.416 0 47.906-21.491 47.906-47.907v-341.336c0-4.142-3.357-7.5-7.5-7.5s-7.5 3.358-7.5 7.5v341.336c0 15.564-10.865 28.63-25.406 32.034v-480.254c14.541 3.404 25.406 16.47 25.406 32.034v39.825c.001 4.142 3.359 7.5 7.501 7.5zm-80.231 66.394h-168.85v-86.016h168.85zm-229.46-146.626h229.46v45.61h-176.35c-4.143 0-7.5 3.358-7.5 7.5v101.016c0 4.142 3.357 7.5 7.5 7.5h176.35v82.785c0 4.142 3.357 7.5 7.5 7.5s7.5-3.358 7.5-7.5v-244.411h17.325v482h-17.325v-202.563c0-4.142-3.357-7.5-7.5-7.5s-7.5 3.358-7.5 7.5v202.563h-229.46z"/><path d="m221.654 109.955h59.6c4.143 0 7.5-3.358 7.5-7.5s-3.357-7.5-7.5-7.5h-59.6c-4.143 0-7.5 3.358-7.5 7.5s3.358 7.5 7.5 7.5z"/><path d="m313.579 109.955h19.193c4.143 0 7.5-3.358 7.5-7.5s-3.357-7.5-7.5-7.5h-19.193c-4.143 0-7.5 3.358-7.5 7.5s3.358 7.5 7.5 7.5z"/><path d="m332.772 127.28h-54.549c-4.143 0-7.5 3.358-7.5 7.5s3.357 7.5 7.5 7.5h54.549c4.143 0 7.5-3.358 7.5-7.5s-3.357-7.5-7.5-7.5z"/><path d="m221.654 142.28h24.244c4.143 0 7.5-3.358 7.5-7.5s-3.357-7.5-7.5-7.5h-24.244c-4.143 0-7.5 3.358-7.5 7.5s3.358 7.5 7.5 7.5z"/></g></g></svg>