<svg id="Capa_1" enable-background="new 0 0 512 512" height="512" viewBox="0 0 512 512" width="512" xmlns="http://www.w3.org/2000/svg"><g><g><path d="m301.457 58.008v32.325l46.413 30.459c11.382 7.469 18.237 20.168 18.237 33.782v48.162c0 8.232-3.27 16.128-9.091 21.949-5.821 5.821-9.091 13.716-9.091 21.949v69.241c0 8.232 3.27 16.128 9.091 21.949 5.821 5.821 9.091 13.716 9.091 21.949v104.322c0 22.316-18.091 40.406-40.406 40.406h-139.402c-22.316 0-40.407-18.091-40.407-40.406v-104.323c0-8.232 3.27-16.128 9.091-21.949 5.821-5.821 9.091-13.716 9.091-21.949v-69.241c0-8.232-3.27-16.128-9.091-21.949-5.821-5.821-9.091-13.716-9.091-21.949v-48.162c0-13.614 6.855-26.312 18.237-33.782l46.413-30.459v-32.324z" fill="#cbe2ff"/></g><g><path d="m357.185 224.517c5.807-5.719 8.923-13.631 8.923-21.781v-48.163c0-13.614-6.855-26.312-18.237-33.782l-46.413-30.459v-32.324h-25.254v42.024c0 3.403 1.714 6.578 4.559 8.445l41.854 27.467c11.382 7.469 18.237 20.168 18.237 33.782v33.01c0 8.15-3.116 16.062-8.923 21.781-5.927 5.837-9.26 13.805-9.26 22.116v69.241c0 8.15 3.116 16.062 8.923 21.781 5.927 5.837 9.26 13.805 9.26 22.116v104.322c0 22.316-18.091 40.406-40.407 40.406h25.254c22.316 0 40.406-18.091 40.406-40.406v-104.321c0-8.15-3.116-16.062-8.923-21.781-5.927-5.837-9.26-13.805-9.26-22.116v-69.241c.001-8.312 3.334-16.28 9.261-22.117z" fill="#bed8fb"/></g><g><path d="m195.39 7.5h121.22v50.508h-121.22z" fill="#9bd069"/></g><g><path d="m294.386 7.5h22.224v50.508h-22.224z" fill="#7dbe3b"/></g><g><path d="m366.108 202.736v-22.498h-220.216v22.498c0 8.232 3.27 16.128 9.091 21.949 5.821 5.821 9.091 13.716 9.091 21.949v69.241c0 8.232-3.27 16.128-9.091 21.949-5.821 5.821-9.091 13.716-9.091 21.949v22.498h220.215v-22.498c0-8.232-3.27-16.128-9.091-21.949-5.821-5.821-9.091-13.716-9.091-21.949v-69.241c0-8.232 3.27-16.128 9.091-21.949 5.821-5.821 9.092-13.716 9.092-21.949z" fill="#f1f4f6"/></g><g><path d="m357.016 224.685c5.821-5.821 9.091-13.716 9.091-21.949v-22.498h-25.254v22.498c0 8.232-3.27 16.128-9.091 21.949s-9.091 13.716-9.091 21.949v69.241c0 8.232 3.27 16.128 9.091 21.949s9.091 13.716 9.091 21.949v22.498h25.254v-22.498c0-8.232-3.27-16.128-9.091-21.949s-9.091-13.716-9.091-21.949v-69.241c0-8.233 3.27-16.128 9.091-21.949z" fill="#dfeaef"/></g><g><g><path d="m256 215.593s24.244 27.215 24.244 46.467c0 13.39-10.854 24.244-24.244 24.244s-24.244-10.854-24.244-24.244c0-19.252 24.244-46.467 24.244-46.467z" fill="#bed8fb"/></g></g><g><path d="m362.319 229.988c7.28-7.279 11.289-16.958 11.289-27.252v-48.163c0-16.194-8.083-31.167-21.623-40.052l-43.028-28.237v-20.776h7.652c4.142 0 7.5-3.358 7.5-7.5v-50.508c0-4.142-3.358-7.5-7.5-7.5h-71.847c-4.142 0-7.5 3.358-7.5 7.5s3.358 7.5 7.5 7.5h64.347v35.508h-106.219v-35.508h6.824c4.142 0 7.5-3.358 7.5-7.5s-3.358-7.5-7.5-7.5h-14.324c-4.142 0-7.5 3.358-7.5 7.5v50.508c0 4.142 3.358 7.5 7.5 7.5h7.652v20.776l-9.703 6.368c-3.463 2.273-4.428 6.922-2.156 10.385 1.44 2.195 3.835 3.386 6.277 3.386 1.412 0 2.84-.398 4.108-1.23l13.088-8.589c2.113-1.387 3.385-3.744 3.385-6.271v-24.825h75.915v24.825c0 2.527 1.272 4.884 3.385 6.271l46.413 30.458c9.3 6.103 14.852 16.388 14.852 27.511v18.164h-205.214v-18.164c0-11.124 5.552-21.408 14.852-27.511l4.02-2.638c3.463-2.272 4.428-6.922 2.156-10.385s-6.922-4.428-10.385-2.156l-4.02 2.638c-13.54 8.885-21.623 23.858-21.623 40.052v48.163c0 10.294 4.009 19.973 11.288 27.252 4.446 4.446 6.895 10.358 6.895 16.646v69.241c0 6.288-2.449 12.199-6.895 16.646-7.28 7.279-11.289 16.958-11.289 27.252v104.321c0 26.416 21.491 47.907 47.907 47.907h139.402c26.416 0 47.907-21.491 47.907-47.907v-23.004c0-4.142-3.358-7.5-7.5-7.5s-7.5 3.358-7.5 7.5v23.004c0 18.145-14.762 32.907-32.907 32.907h-139.401c-18.145 0-32.907-14.762-32.907-32.907v-74.323h205.216v16.301c0 4.142 3.358 7.5 7.5 7.5s7.5-3.358 7.5-7.5v-46.299c0-10.294-4.009-19.973-11.288-27.252-4.446-4.446-6.895-10.358-6.895-16.646v-69.241c0-6.288 2.449-12.199 6.894-16.646zm-10.606 113.138c4.446 4.446 6.895 10.358 6.895 16.646v14.999h-205.216v-14.999c0-6.288 2.449-12.199 6.896-16.646 7.279-7.28 11.288-16.958 11.288-27.252v-69.241c0-10.294-4.009-19.972-11.288-27.252-4.446-4.446-6.895-10.358-6.895-16.646v-14.999h205.216v14.999c0 6.288-2.449 12.199-6.896 16.646-7.279 7.28-11.288 16.958-11.288 27.252v69.241c0 10.294 4.009 19.973 11.288 27.252z"/><path d="m261.6 210.604c-1.423-1.598-3.46-2.511-5.6-2.511s-4.177.914-5.6 2.511c-2.676 3.004-26.144 29.968-26.144 51.457 0 17.503 14.24 31.744 31.744 31.744s31.744-14.24 31.744-31.744c0-21.488-23.468-48.453-26.144-51.457zm-5.6 68.201c-9.232 0-16.744-7.511-16.744-16.744 0-10.295 9.514-25.119 16.744-34.61 7.23 9.492 16.744 24.315 16.744 34.61 0 9.232-7.512 16.744-16.744 16.744z"/><path d="m195.39 325.12h12.122c4.142 0 7.5-3.358 7.5-7.5s-3.358-7.5-7.5-7.5h-12.122c-4.142 0-7.5 3.358-7.5 7.5s3.358 7.5 7.5 7.5z"/><path d="m217.614 342.445h-22.224c-4.142 0-7.5 3.358-7.5 7.5s3.358 7.5 7.5 7.5h22.224c4.142 0 7.5-3.358 7.5-7.5s-3.358-7.5-7.5-7.5z"/><path d="m316.61 310.12h-12.122c-4.142 0-7.5 3.358-7.5 7.5s3.358 7.5 7.5 7.5h12.122c4.142 0 7.5-3.358 7.5-7.5s-3.358-7.5-7.5-7.5z"/><path d="m316.61 342.445h-22.224c-4.142 0-7.5 3.358-7.5 7.5s3.358 7.5 7.5 7.5h22.224c4.142 0 7.5-3.358 7.5-7.5s-3.358-7.5-7.5-7.5z"/></g></g></svg>