<svg id="Capa_1" enable-background="new 0 0 512 512" height="512" viewBox="0 0 512 512" width="512" xmlns="http://www.w3.org/2000/svg"><g><g><path d="m346.915 371.159h32.325v133.341h-32.325z" fill="#665e66"/></g><g><path d="m346.915 371.159h32.325v24.244h-32.325z" fill="#544f57"/></g><g><path d="m494.398 371.159h-262.642c-5.579 0-10.102-4.523-10.102-10.102v-343.455c0-5.579 4.523-10.102 10.102-10.102h262.642c5.579 0 10.102 4.523 10.102 10.102v343.455c0 5.579-4.523 10.102-10.102 10.102z" fill="#dfeaef"/></g><g><path d="m486.317 7.5v335.374c0 5.579-4.523 10.102-10.102 10.102h-254.561v8.081c0 5.579 4.523 10.102 10.102 10.102h262.642c5.579 0 10.102-4.523 10.102-10.102v-343.455c0-5.579-4.523-10.102-10.102-10.102z" fill="#d0e2e7"/></g><g><path d="m213.573 80.232h299.008v218.195h-299.008z" fill="#f6f9f9" transform="matrix(0 1 -1 0 552.407 -173.748)"/></g><g><g><path d="m363.077 72.15v68.691h68.691c0-37.937-30.754-68.691-68.691-68.691z" fill="#cbe2ff"/></g><g><path d="m363.077 140.841 48.572 48.572c12.431-12.431 20.119-29.603 20.119-48.572z" fill="#ffe07d"/></g><g><path d="m363.077 72.15c-37.937 0-68.691 30.754-68.691 68.691s30.754 68.691 68.691 68.691c18.969 0 36.14-7.69 48.57-20.12l-48.57-48.571z" fill="#e28086"/></g></g><g><g><path d="m158.014 386.954 60.554 16.231c22.08 5.919 37.432 25.928 37.432 48.787v52.528h-248.5v-52.528c0-22.859 15.352-42.868 37.431-48.786l60.554-16.231h52.529z" fill="#f6f9f9"/></g><g><path d="m105.486 386.954-30.931 8.291 14.768 50.299 42.427-32.325v-26.265z" fill="#dfeaef"/></g><g><path d="m158.014 386.954 30.931 8.291-14.768 50.299-42.427-32.325v-26.265z" fill="#dfeaef"/></g><g><path d="m226.478 406.027c2.755 6.263 4.268 13.153 4.268 20.324v78.149h25.254v-52.528c0-20.016-11.771-37.846-29.522-45.945z" fill="#f1f4f6"/></g><g><path d="m131.75 413.219c-14.505 0-26.264-11.759-26.264-26.264v-32.325h52.528v32.325c0 14.505-11.759 26.264-26.264 26.264z" fill="#b78b7a"/></g><g><path d="m105.486 375.253c8.198 2.994 17.043 4.63 26.264 4.63s18.067-1.637 26.264-4.63v-20.624h-52.528z" fill="#aa7a63"/></g><g><path d="m73.161 244.522v58.589c0 32.358 26.231 58.589 58.589 58.589s58.589-26.231 58.589-58.589v-58.589z" fill="#b78b7a"/></g><g><path d="m170.136 244.522v78.793c0 10.998-3.037 21.285-8.308 30.078 17.077-10.238 28.511-28.922 28.511-50.281v-58.589h-20.203z" fill="#aa7a63"/></g><g><path d="m172.157 264.725h18.183v-39.396c0-12.274-9.95-22.224-22.224-22.224h-16.163v41.417c0 11.158 9.046 20.203 20.204 20.203z" fill="#544f57"/></g><g><path d="m131.75 264.725h-58.589v-39.396c0-22.316 18.091-40.406 40.407-40.406h20.203c10.042 0 18.183 8.141 18.183 18.183v41.417c-.001 11.157-9.046 20.202-20.204 20.202z" fill="#665e66"/></g></g><g><path d="m494.398 0h-262.642c-9.706 0-17.602 7.896-17.602 17.602v21.492c0 4.142 3.358 7.5 7.5 7.5s7.5-3.358 7.5-7.5v-21.492c0-1.435 1.167-2.602 2.602-2.602h262.643c1.435 0 2.602 1.167 2.602 2.602v343.456c0 1.435-1.167 2.602-2.602 2.602h-262.643c-1.435 0-2.602-1.167-2.602-2.602v-286.915c0-4.142-3.358-7.5-7.5-7.5s-7.5 3.358-7.5 7.5v286.914c0 9.706 7.896 17.602 17.602 17.602h107.659v125.841c0 4.142 3.358 7.5 7.5 7.5s7.5-3.358 7.5-7.5v-125.841h17.325v125.841c0 4.142 3.358 7.5 7.5 7.5s7.5-3.358 7.5-7.5v-125.841h107.659c9.706 0 17.602-7.896 17.602-17.602v-343.455c-.001-9.706-7.897-17.602-17.603-17.602z"/><path d="m416.903 194.761c.016-.016.033-.029.049-.045 14.391-14.391 22.316-33.524 22.316-53.875 0-42.012-34.179-76.191-76.191-76.191s-76.191 34.179-76.191 76.191 34.179 76.191 76.191 76.191c20.327.001 39.44-7.909 53.826-22.271zm-5.576-16.277-30.143-30.143h42.632c-1.34 11.035-5.634 21.393-12.489 30.143zm12.465-45.143h-53.215v-53.214c27.753 3.409 49.806 25.461 53.215 53.214zm-121.906 7.5c0-31.202 23.476-57.024 53.691-60.734v60.734c0 .251.013.501.038.749.018.182.049.359.08.537.011.063.017.128.029.191.042.21.096.416.155.619.009.03.014.061.023.091.063.207.138.409.218.608.011.027.019.055.03.081.078.189.168.372.261.552.019.037.034.075.054.112.089.167.189.327.291.486.03.048.057.098.088.145.101.151.213.295.324.438.039.05.073.102.113.151.156.189.32.371.493.545l42.946 42.947c-10.709 8.39-23.828 12.94-37.645 12.94-33.739 0-61.189-27.45-61.189-61.192z"/><path d="m472.175 236.029c4.142 0 7.5-3.358 7.5-7.5v-188.704c0-4.142-3.358-7.5-7.5-7.5h-218.196c-4.142 0-7.5 3.358-7.5 7.5v299.008c0 4.142 3.358 7.5 7.5 7.5h218.195c4.142 0 7.5-3.358 7.5-7.5v-75.298c0-4.142-3.358-7.5-7.5-7.5s-7.5 3.358-7.5 7.5v67.798h-203.195v-284.008h203.195v181.204c.001 4.142 3.359 7.5 7.501 7.5z"/><path d="m220.51 395.941-54.996-14.741v-21.305c19.339-11.543 32.325-32.672 32.325-56.784v-77.782c0-16.39-13.334-29.724-29.724-29.724h-9.782c-3.217-10.514-13.01-18.183-24.563-18.183h-20.204c-26.416 0-47.906 21.491-47.906 47.907v77.782c0 24.112 12.986 45.241 32.325 56.784v21.305l-54.995 14.741c-25.312 6.785-42.99 29.825-42.99 56.031v5.988c0 4.142 3.358 7.5 7.5 7.5s7.5-3.358 7.5-7.5v-5.988c0-19.429 13.107-36.512 31.874-41.542l22.549-6.044 12.705 43.271c.695 2.369 2.512 4.244 4.858 5.013.765.251 1.554.374 2.338.374 1.621 0 3.222-.526 4.546-1.534l37.881-28.862 37.881 28.862c1.324 1.008 2.924 1.534 4.546 1.534.784 0 1.573-.123 2.338-.374 2.346-.77 4.163-2.645 4.858-5.013l12.705-43.271 22.549 6.044c18.767 5.03 31.874 22.113 31.874 41.542v45.028h-38.539v-12.703c0-4.142-3.358-7.5-7.5-7.5s-7.5 3.358-7.5 7.5v12.703h-126.424v-12.703c0-4.142-3.358-7.5-7.5-7.5s-7.5 3.358-7.5 7.5v12.703h-38.539v-3.964c0-4.142-3.358-7.5-7.5-7.5s-7.5 3.358-7.5 7.5v11.464c0 4.142 3.358 7.5 7.5 7.5h248.5c4.142 0 7.5-3.358 7.5-7.5v-52.528c0-26.206-17.678-49.246-42.99-56.031zm-37.671-170.612v31.896h-10.683c-7.005 0-12.704-5.699-12.704-12.703v-33.917h8.663c8.119 0 14.724 6.605 14.724 14.724zm-102.178 0c0-18.145 14.762-32.907 32.906-32.907h20.204c5.891 0 10.683 4.792 10.683 10.683v41.417c0 7.004-5.699 12.703-12.703 12.703h-51.09zm0 77.782v-30.886h51.089c7.962 0 15.145-3.381 20.203-8.777 5.058 5.396 12.241 8.777 20.204 8.777h10.683v30.886c0 28.171-22.918 51.09-51.089 51.09s-51.09-22.919-51.09-51.09zm51.089 66.09c6.518 0 12.812-.963 18.764-2.729v20.483c0 10.347-8.417 18.764-18.764 18.764s-18.764-8.417-18.764-18.764v-20.483c5.952 1.765 12.246 2.729 18.764 2.729zm-38.301 63.771-9.534-32.471 15.416-4.132c2.489 8.557 8.276 15.718 15.893 20.012zm76.602 0-21.775-16.591c7.616-4.294 13.404-11.456 15.893-20.012l15.416 4.132z"/><path d="m278.805 241.858c0 4.142 3.358 7.5 7.5 7.5h102.027c4.142 0 7.5-3.358 7.5-7.5s-3.358-7.5-7.5-7.5h-102.027c-4.142 0-7.5 3.358-7.5 7.5z"/><path d="m439.85 234.358h-19.193c-4.142 0-7.5 3.358-7.5 7.5s3.358 7.5 7.5 7.5h19.193c4.142 0 7.5-3.358 7.5-7.5s-3.358-7.5-7.5-7.5z"/><path d="m447.35 274.183c0-4.142-3.358-7.5-7.5-7.5h-57.579c-4.142 0-7.5 3.358-7.5 7.5s3.358 7.5 7.5 7.5h57.579c4.142 0 7.5-3.358 7.5-7.5z"/><path d="m286.305 281.683h63.641c4.142 0 7.5-3.358 7.5-7.5s-3.358-7.5-7.5-7.5h-63.641c-4.142 0-7.5 3.358-7.5 7.5s3.358 7.5 7.5 7.5z"/><path d="m286.305 314.008h112.128c4.142 0 7.5-3.358 7.5-7.5s-3.358-7.5-7.5-7.5h-112.128c-4.142 0-7.5 3.358-7.5 7.5s3.358 7.5 7.5 7.5z"/></g></g></svg>