<svg id="Capa_1" enable-background="new 0 0 512 512" height="512" viewBox="0 0 512 512" width="512" xmlns="http://www.w3.org/2000/svg"><g><g><path d="m338.833 7.5h-165.666c-10.042 0-18.183 8.141-18.183 18.183v54.549h36.366v-36.366h129.3v36.366h36.366v-54.549c0-10.042-8.14-18.183-18.183-18.183z" fill="#665e66"/></g><g><path d="m142.862 80.232h60.61v34.346h-60.61z" fill="#ffe07d"/></g><g><path d="m308.528 80.232h60.61v34.346h-60.61z" fill="#ffe07d" transform="matrix(-1 0 0 -1 677.667 194.809)"/></g><g><path d="m468.134 504.5h-424.268c-11.158 0-20.203-9.045-20.203-20.203v-248.5h464.675v248.5c-.001 11.158-9.046 20.203-20.204 20.203z" fill="#b78b7a"/></g><g><path d="m23.663 235.797v61.78c10.177 5.68 21.886 8.931 34.346 8.931h398.004c5.579 0 10.102 4.523 10.102 10.102v167.687c0 11.158-9.045 20.203-20.203 20.203h22.224c11.158 0 20.203-9.045 20.203-20.203v-248.5z" fill="#aa7a63"/></g><g><path d="m453.992 286.305h-395.984c-27.895 0-50.508-22.613-50.508-50.508v-101.017c0-11.158 9.045-20.203 20.203-20.203h456.594c11.158 0 20.203 9.045 20.203 20.203v101.016c0 27.896-22.613 50.509-50.508 50.509z" fill="#c19d8e"/></g><g><path d="m484.297 114.577h-23.234c11.158 0 20.203 9.045 20.203 20.203v101.016c0 27.895-22.613 50.508-50.508 50.508h23.234c27.895 0 50.508-22.613 50.508-50.508v-101.016c0-11.157-9.045-20.203-20.203-20.203z" fill="#b78b7a"/></g><g><path d="m80.232 286.305h32.325v218.195h-32.325z" fill="#ffc250" transform="matrix(-1 0 0 -1 192.789 790.805)"/></g><g><path d="m80.232 286.305h32.325v20.203h-32.325z" fill="#ebb044"/></g><g><path d="m80.232 114.577h32.325v137.382h-32.325z" fill="#ffe07d" transform="matrix(-1 0 0 -1 192.789 366.537)"/></g><g><path d="m66.089 251.959h60.61v34.346h-60.61z" fill="#f1f4f6" transform="matrix(-1 0 0 -1 192.789 538.264)"/></g><g><path d="m399.443 286.305h32.325v218.195h-32.325z" fill="#ffc250"/></g><g><path d="m399.443 286.305h32.325v20.203h-32.325z" fill="#ebb044"/></g><g><path d="m399.443 114.577h32.325v137.382h-32.325z" fill="#ffe07d"/></g><g><path d="m385.301 251.959h60.61v34.346h-60.61z" fill="#f1f4f6"/></g><g><path d="m256 346.915c-16.737 0-30.305-13.568-30.305-30.305v-30.305h60.61v30.305c0 16.737-13.568 30.305-30.305 30.305z" fill="#f1f4f6"/></g><g><path d="m225.695 286.305h60.61v20.203h-60.61z" fill="#dfeaef"/></g><path d="m512 134.78c0-15.275-12.428-27.703-27.703-27.703h-107.658v-26.845c0-4.142-3.357-7.5-7.5-7.5h-4.622v-47.049c0-14.162-11.522-25.683-25.684-25.683h-165.666c-14.162 0-25.684 11.521-25.684 25.683v47.049h-4.622c-4.143 0-7.5 3.358-7.5 7.5v26.845h-107.658c-15.275 0-27.703 12.428-27.703 27.703v101.017c0 15.553 6.164 29.684 16.163 40.111v208.389c0 15.275 12.428 27.703 27.703 27.703h424.268c15.275 0 27.703-12.428 27.703-27.703v-208.389c9.999-10.427 16.163-24.558 16.163-40.111zm-119.199 144.025v-19.345h45.609v19.345zm-319.211-19.346h45.609v19.345h-45.609zm31.467 34.346v203.195h-17.326v-203.195zm15 0h98.139v22.805c0 20.846 16.959 37.805 37.805 37.805s37.805-16.959 37.805-37.805v-22.805h12.588c4.143 0 7.5-3.358 7.5-7.5s-3.357-7.5-7.5-7.5h-172.195v-26.845c0-4.142-3.357-7.5-7.5-7.5h-6.643v-122.383h271.887v122.382h-6.643c-4.143 0-7.5 3.358-7.5 7.5v26.845h-36.302c-4.143 0-7.5 3.358-7.5 7.5s3.357 7.5 7.5 7.5h50.444v203.196h-271.885zm158.748 0v22.805c0 12.575-10.23 22.805-22.805 22.805s-22.805-10.23-22.805-22.805v-22.805zm-75.333-221.073h-4.622v-21.366h114.3v21.366h-4.622c-4.143 0-7.5 3.358-7.5 7.5v26.845h-90.057v-26.845c.001-4.142-3.357-7.5-7.499-7.5zm203.471 171.727v-122.382h17.325v122.382zm-90.915-137.382v-19.345h45.61v19.345zm-153.545-81.394c0-5.891 4.793-10.683 10.684-10.683h165.666c5.891 0 10.684 4.792 10.684 10.683v47.049h-21.367v-28.866c0-4.142-3.357-7.5-7.5-7.5h-129.3c-4.143 0-7.5 3.358-7.5 7.5v28.866h-21.366v-47.049zm-12.122 62.049h45.61v19.345h-45.61zm-135.361 47.048c0-7.004 5.698-12.703 12.703-12.703h45.028v38.829c0 4.142 3.357 7.5 7.5 7.5s7.5-3.358 7.5-7.5v-38.829h17.325v122.382h-17.325v-48.531c0-4.142-3.357-7.5-7.5-7.5s-7.5 3.358-7.5 7.5v48.531h-6.641c-4.143 0-7.5 3.358-7.5 7.5v26.845h-.582c-23.715.001-43.008-19.292-43.008-43.007zm16.163 349.517v-197.102c8.033 4.213 17.162 6.61 26.845 6.61h14.724v203.195h-28.866c-7.005 0-12.703-5.699-12.703-12.703zm436.971 12.703h-28.865v-92.357c0-4.142-3.357-7.5-7.5-7.5s-7.5 3.358-7.5 7.5v92.357h-17.325v-203.195h17.325v75.79c0 4.142 3.357 7.5 7.5 7.5s7.5-3.358 7.5-7.5v-75.79h14.724c9.683 0 18.811-2.397 26.845-6.61v197.102c-.001 7.004-5.699 12.703-12.704 12.703zm28.866-261.203c0 23.715-19.293 43.008-43.008 43.008h-.582v-26.845c0-4.142-3.357-7.5-7.5-7.5h-6.642v-122.383h45.028c7.005 0 12.703 5.699 12.703 12.703v101.017z"/></g></svg>