<svg id="Capa_1" enable-background="new 0 0 512 512" height="512" viewBox="0 0 512 512" width="512" xmlns="http://www.w3.org/2000/svg"><g><g><g><path d="m277.213 158.014 52.028 17.123c16.574 5.455 27.775 20.933 27.775 38.381v56.624h-101.016-101.016v-56.624c0-17.449 11.201-32.926 27.775-38.381l52.028-17.123z" fill="#9bd069"/></g><g><path d="m177.207 257.01v-32.325c0-14.186-4.323-27.38-11.72-38.337-6.602 7.269-10.503 16.876-10.503 27.171v56.624h20.95c.827-4.254 1.273-8.641 1.273-13.133z" fill="#7dbe3b"/></g><g><path d="m334.793 257.01v-32.325c0-14.186 4.323-27.38 11.72-38.337 6.602 7.269 10.503 16.876 10.503 27.171v56.624h-20.95c-.827-4.254-1.273-8.641-1.273-13.133z" fill="#7dbe3b"/></g><g><path d="m256 270.142h68.691v-5.051c0-37.876-30.815-68.691-68.691-68.691s-68.691 30.815-68.691 68.691v5.051z" fill="#7dbe3b"/></g><g><path d="m256 179.228c-11.716 0-21.213-9.498-21.213-21.213v-26.265h42.427v26.264c-.001 11.716-9.498 21.214-21.214 21.214z" fill="#aa7a63"/></g><g><path d="m304.488 55.988c0-26.779-21.709-48.488-48.488-48.488s-48.488 21.709-48.488 48.488v32.325c0 26.779 21.709 48.488 48.488 48.488s48.488-21.709 48.488-48.488z" fill="#b78b7a"/></g><g><path d="m256 7.5c-3.825 0-7.542.457-11.112 1.294 21.421 5.025 37.376 24.24 37.376 47.193v32.325c0 22.954-15.955 42.168-37.376 47.193 3.57.837 7.286 1.294 11.112 1.294 26.779 0 48.488-21.709 48.488-48.488v-32.323c0-26.779-21.709-48.488-48.488-48.488z" fill="#aa7a63"/></g></g><g><g><path d="m424.697 326.711 52.028 17.123c16.574 5.455 27.775 20.933 27.775 38.381v56.624h-101.016-101.017v-56.624c0-17.449 11.201-32.926 27.775-38.381l52.028-17.123z" fill="#cbe2ff"/></g><g><path d="m377.22 422.623c0-26.234-16.743-49.37-41.662-57.572l-24.294-7.995c-5.56 6.987-8.796 15.788-8.796 25.161v56.624h74.752z" fill="#bed8fb"/></g><g><path d="m476.725 343.835-2.53-.833v95.838h30.305v-56.624c0-17.449-11.201-32.927-27.775-38.381z" fill="#bed8fb"/></g><g><path d="m403.484 347.925c-11.716 0-21.213-9.498-21.213-21.213v-26.264h42.427v26.264c-.001 11.715-9.498 21.213-21.214 21.213z" fill="#f1b986"/></g><g><path d="m451.972 224.685c0-26.779-21.709-48.488-48.488-48.488s-48.488 21.709-48.488 48.488v32.325c0 26.779 21.709 48.488 48.488 48.488s48.488-21.709 48.488-48.488z" fill="#f1d0a5"/></g><g><path d="m403.484 176.197c-3.825 0-7.542.457-11.112 1.294 21.421 5.025 37.376 24.24 37.376 47.193v32.325c0 22.954-15.955 42.168-37.376 47.193 3.57.837 7.286 1.294 11.112 1.294 26.779 0 48.488-21.709 48.488-48.488v-32.325c0-26.777-21.709-48.486-48.488-48.486z" fill="#f1b986"/></g></g><g><g><path d="m129.73 326.711 52.028 17.123c16.574 5.455 27.775 20.933 27.775 38.381v56.624h-101.017-101.016v-56.624c0-17.449 11.2-32.926 27.775-38.381l52.028-17.123z" fill="#ffe07d"/></g><g><path d="m181.757 343.834-2.529-.832v18.201c0 1.749-1.123 3.3-2.784 3.847-24.862 8.182-41.663 31.399-41.663 57.573v16.217h74.752v-56.624c0-17.449-11.201-32.927-27.776-38.382z" fill="#ffd064"/></g><g><path d="m108.516 347.925c-11.716 0-21.213-9.498-21.213-21.213v-26.264h42.427v26.264c0 11.715-9.498 21.213-21.214 21.213z" fill="#f1b986"/></g><g><path d="m157.004 224.685c0-26.779-21.709-48.488-48.488-48.488s-48.488 21.709-48.488 48.488v32.325c0 26.779 21.709 48.488 48.488 48.488s48.488-21.709 48.488-48.488z" fill="#f1d0a5"/></g><g><path d="m108.516 176.197c-3.825 0-7.542.457-11.112 1.294 21.421 5.025 37.376 24.24 37.376 47.193v32.325c0 22.954-15.955 42.168-37.376 47.193 3.57.837 7.286 1.294 11.112 1.294 26.779 0 48.488-21.709 48.488-48.488v-32.325c0-26.777-21.709-48.486-48.488-48.486z" fill="#f1b986"/></g></g><g><g><path d="m277.213 367.118 52.028 17.123c16.574 5.455 27.775 20.933 27.775 38.381v81.878h-101.016-101.016v-81.878c0-17.449 11.201-32.926 27.775-38.381l52.028-17.123z" fill="#e28086"/></g><g><path d="m329.242 384.241-2.53-.833v121.092h30.305v-81.878c-.001-17.448-11.201-32.926-27.775-38.381z" fill="#dd636e"/></g><g><path d="m256 388.331c-11.716 0-21.213-9.498-21.213-21.213v-26.264h42.427v26.264c-.001 11.716-9.498 21.213-21.214 21.213z" fill="#aa7a63"/></g><g><path d="m304.488 265.091c0-26.779-21.709-48.488-48.488-48.488s-48.488 21.709-48.488 48.488v32.325c0 26.779 21.709 48.488 48.488 48.488s48.488-21.709 48.488-48.488z" fill="#b78b7a"/></g><g><path d="m256 216.604c-3.825 0-7.542.457-11.112 1.294 21.421 5.025 37.376 24.24 37.376 47.193v32.325c0 22.954-15.955 42.168-37.376 47.193 3.57.837 7.286 1.294 11.112 1.294 26.779 0 48.488-21.709 48.488-48.488v-32.325c0-26.778-21.709-48.486-48.488-48.486z" fill="#aa7a63"/></g></g><path d="m504.5 401.214c4.143 0 7.5-3.358 7.5-7.5v-11.494c0-20.734-13.23-39.024-32.926-45.514l-46.877-15.424v-16.23c16.323-9.793 27.274-27.66 27.274-48.041v-32.325c0-30.872-25.116-55.988-55.988-55.988-18.184 0-34.365 8.72-44.599 22.191-5.665-10.631-15.272-18.922-27.299-22.872l-46.872-15.432v-16.23c16.323-9.793 27.274-27.66 27.274-48.041v-32.326c.001-30.872-25.115-55.988-55.987-55.988s-55.988 25.116-55.988 55.988v32.325c0 20.381 10.951 38.248 27.274 48.041v16.23l-46.867 15.431c-12.03 3.952-21.638 12.243-27.303 22.874-10.234-13.472-26.415-22.191-44.599-22.191-30.872 0-55.988 25.116-55.988 55.988v32.325c0 20.381 10.951 38.248 27.274 48.041v16.23l-46.881 15.425c-19.692 6.489-32.922 24.779-32.922 45.513v11.494c0 4.142 3.357 7.5 7.5 7.5s7.5-3.358 7.5-7.5v-11.494c0-14.244 9.089-26.809 22.613-31.266l43.911-14.449c4.013 11.025 14.597 18.919 26.992 18.919 12.394 0 22.978-7.895 26.991-18.919l43.905 14.447c9.624 3.172 17.081 10.478 20.53 19.737l-19.528 6.427c-19.697 6.482-32.931 24.77-32.931 45.505v8.717h-90.056v-18.765c0-4.142-3.357-7.5-7.5-7.5s-7.5 3.358-7.5 7.5v18.765h-27.427v-2.59c0-4.142-3.357-7.5-7.5-7.5s-7.5 3.358-7.5 7.5v10.09c0 4.142 3.357 7.5 7.5 7.5h139.983v58.16c0 4.142 3.357 7.5 7.5 7.5h202.033c4.143 0 7.5-3.358 7.5-7.5v-10.018c0-4.142-3.357-7.5-7.5-7.5s-7.5 3.358-7.5 7.5v2.52h-27.426v-44.018c0-4.142-3.357-7.5-7.5-7.5s-7.5 3.358-7.5 7.5v44.018h-102.18v-44.018c0-4.142-3.357-7.5-7.5-7.5s-7.5 3.358-7.5 7.5v44.018h-27.427v-74.377c0-14.243 9.09-26.805 22.62-31.257l43.906-14.45c4.014 11.023 14.597 18.917 26.991 18.917s22.977-7.893 26.991-18.917l43.906 14.45c13.53 4.453 22.62 17.014 22.62 31.257v36.842c0 4.142 3.357 7.5 7.5 7.5s7.5-3.358 7.5-7.5v-13.125h139.983c4.143 0 7.5-3.358 7.5-7.5v-10.09c0-4.142-3.357-7.5-7.5-7.5s-7.5 3.358-7.5 7.5v2.59h-27.427v-18.765c0-4.142-3.357-7.5-7.5-7.5s-7.5 3.358-7.5 7.5v18.765h-90.057v-8.717c0-20.736-13.234-39.023-32.931-45.505l-19.528-6.427c3.449-9.258 10.905-16.564 20.526-19.736l43.909-14.448c4.013 11.024 14.597 18.919 26.991 18.919 12.395 0 22.979-7.895 26.992-18.919l43.907 14.448c13.529 4.456 22.618 17.021 22.618 31.265v11.494c0 4.142 3.357 7.5 7.5 7.5zm-101.017-217.517c22.601 0 40.988 18.387 40.988 40.988v32.325c0 22.601-18.388 40.988-40.988 40.988s-40.987-18.387-40.987-40.988v-32.325c0-22.601 18.387-40.988 40.987-40.988zm-188.471-95.384v-32.325c0-22.601 18.387-40.988 40.988-40.988s40.988 18.387 40.988 40.988v32.325c0 22.601-18.388 40.988-40.988 40.988s-40.988-18.387-40.988-40.988zm40.988 55.988c4.73 0 9.323-.595 13.714-1.705v15.217c-.002.071-.001.141 0 .211-.006 7.557-6.155 13.703-13.713 13.703s-13.708-6.146-13.713-13.703c0-.071.001-.141 0-.211v-15.217c4.389 1.109 8.982 1.705 13.712 1.705zm-70.895 37.963 43.903-14.455c4.013 11.024 14.597 18.918 26.991 18.918s22.978-7.894 26.991-18.918l43.908 14.456c12.537 4.118 21.231 15.097 22.446 28.149-1.203 4.558-1.85 9.34-1.85 14.271v32.325c0 1.9.097 3.778.283 5.63h-35.853c-1.288-29.738-25.876-53.537-55.926-53.537s-54.638 23.799-55.926 53.537h-35.853c.186-1.852.283-3.73.283-5.63v-32.325c0-4.931-.647-9.712-1.85-14.271 1.217-13.051 9.912-24.03 22.453-28.15zm70.895 156.14c-22.601 0-40.988-18.387-40.988-40.988v-32.325c0-22.601 18.388-40.988 40.988-40.988s40.988 18.387 40.988 40.988v32.325c0 22.601-18.387 40.988-40.988 40.988zm-188.472-81.394v-32.325c0-22.601 18.388-40.988 40.988-40.988s40.987 18.387 40.987 40.988v32.325c0 22.601-18.387 40.988-40.987 40.988s-40.988-18.387-40.988-40.988zm54.701 69.701c0 7.562-6.151 13.713-13.713 13.713s-13.714-6.152-13.714-13.713v-15.418c4.39 1.11 8.983 1.705 13.714 1.705 4.73 0 9.323-.595 13.713-1.705zm61.875 9.995-46.874-15.424v-16.231c10.489-6.293 18.748-15.924 23.319-27.411h39.463v19.776c0 20.381 10.951 38.248 27.274 48.041v16.233l-13.099 4.311c-4.927-13.743-15.878-24.613-30.083-29.295zm71.896 44.126c-7.562 0-13.714-6.152-13.714-13.714v-.091c0-.015 0-.03 0-.044v-15.283c4.39 1.11 8.983 1.705 13.714 1.705s9.323-.595 13.714-1.705v15.283.044.091c0 7.562-6.152 13.714-13.714 13.714zm71.893-44.125c-14.202 4.681-25.153 15.551-30.079 29.295l-13.1-4.311v-16.233c16.323-9.793 27.274-27.66 27.274-48.041v-19.777h39.463c4.571 11.488 12.83 21.119 23.319 27.411v16.231zm75.59 3.718c-7.562 0-13.713-6.152-13.713-13.713v-15.418c4.39 1.11 8.983 1.705 13.713 1.705s9.323-.595 13.714-1.705v15.418c0 7.561-6.152 13.713-13.714 13.713z"/></g></svg>