<svg id="Capa_1" enable-background="new 0 0 512 512" height="512" viewBox="0 0 512 512" width="512" xmlns="http://www.w3.org/2000/svg"><g><g><path d="m109.526 39.825h325.272v464.675h-325.272z" fill="#dfeaef"/></g><g><path d="m77.201 7.5h325.272v464.675h-325.272z" fill="#f6f9f9"/></g><g><path d="m382.27 7.5h20.203v464.675h-20.203z" fill="#f1f4f6"/></g><g><path d="m111.547 69.12h101.016v101.016h-101.016z" fill="#9bd069"/></g><g><path d="m267.112 69.12h101.016v101.016h-101.016z" fill="#e28086" transform="matrix(-1 0 0 -1 635.24 239.256)"/></g><g><path d="m434.799 114.25c-4.143 0-7.5 3.357-7.5 7.5v375.25h-310.273v-17.325h285.447c4.143 0 7.5-3.357 7.5-7.5v-57.579c0-4.143-3.357-7.5-7.5-7.5s-7.5 3.357-7.5 7.5v50.079h-310.272v-345.69c0-4.143-3.358-7.5-7.5-7.5s-7.5 3.357-7.5 7.5v353.189c0 4.143 3.358 7.5 7.5 7.5h24.825v24.826c0 4.143 3.358 7.5 7.5 7.5h325.272c4.143 0 7.5-3.357 7.5-7.5v-382.75c.001-4.143-3.357-7.5-7.499-7.5z"/><path d="m434.799 32.325h-24.825v-24.825c0-4.143-3.357-7.5-7.5-7.5h-325.273c-4.142 0-7.5 3.357-7.5 7.5v76.405c0 4.143 3.358 7.5 7.5 7.5s7.5-3.357 7.5-7.5v-68.905h310.272v364.516c0 4.143 3.357 7.5 7.5 7.5s7.5-3.357 7.5-7.5v-332.191h17.325v39.337c0 4.143 3.357 7.5 7.5 7.5s7.5-3.357 7.5-7.5v-46.837c.001-4.142-3.357-7.5-7.499-7.5z"/><path d="m220.063 69.12c0-4.143-3.358-7.5-7.5-7.5h-101.016c-4.142 0-7.5 3.357-7.5 7.5v101.016c0 4.143 3.358 7.5 7.5 7.5h101.016c4.142 0 7.5-3.357 7.5-7.5zm-15 93.516h-86.016v-86.016h86.016z"/><path d="m143.872 127.128h10.683v10.683c0 4.143 3.358 7.5 7.5 7.5s7.5-3.357 7.5-7.5v-10.683h10.683c4.142 0 7.5-3.357 7.5-7.5s-3.358-7.5-7.5-7.5h-10.683v-10.683c0-4.143-3.358-7.5-7.5-7.5s-7.5 3.357-7.5 7.5v10.683h-10.683c-4.142 0-7.5 3.357-7.5 7.5s3.358 7.5 7.5 7.5z"/><path d="m375.628 69.12c0-4.143-3.357-7.5-7.5-7.5h-101.017c-4.143 0-7.5 3.357-7.5 7.5v101.016c0 4.143 3.357 7.5 7.5 7.5h101.017c4.143 0 7.5-3.357 7.5-7.5zm-15 93.516h-86.017v-86.016h86.017z"/><path d="m299.437 127.128h36.366c4.143 0 7.5-3.357 7.5-7.5s-3.357-7.5-7.5-7.5h-36.366c-4.143 0-7.5 3.357-7.5 7.5s3.357 7.5 7.5 7.5z"/><path d="m212.563 201.022h-48.488c-4.142 0-7.5 3.357-7.5 7.5s3.358 7.5 7.5 7.5h48.488c4.142 0 7.5-3.357 7.5-7.5s-3.358-7.5-7.5-7.5z"/><path d="m111.547 216.022h20.203c4.142 0 7.5-3.357 7.5-7.5s-3.358-7.5-7.5-7.5h-20.203c-4.142 0-7.5 3.357-7.5 7.5s3.358 7.5 7.5 7.5z"/><path d="m212.563 235.368h-48.488c-4.142 0-7.5 3.357-7.5 7.5s3.358 7.5 7.5 7.5h48.488c4.142 0 7.5-3.357 7.5-7.5s-3.358-7.5-7.5-7.5z"/><path d="m111.547 250.368h20.203c4.142 0 7.5-3.357 7.5-7.5s-3.358-7.5-7.5-7.5h-20.203c-4.142 0-7.5 3.357-7.5 7.5s3.358 7.5 7.5 7.5z"/><path d="m212.563 269.714h-48.488c-4.142 0-7.5 3.357-7.5 7.5s3.358 7.5 7.5 7.5h48.488c4.142 0 7.5-3.357 7.5-7.5s-3.358-7.5-7.5-7.5z"/><path d="m111.547 284.714h20.203c4.142 0 7.5-3.357 7.5-7.5s-3.358-7.5-7.5-7.5h-20.203c-4.142 0-7.5 3.357-7.5 7.5s3.358 7.5 7.5 7.5z"/><path d="m212.563 304.059h-48.488c-4.142 0-7.5 3.357-7.5 7.5s3.358 7.5 7.5 7.5h48.488c4.142 0 7.5-3.357 7.5-7.5s-3.358-7.5-7.5-7.5z"/><path d="m111.547 319.059h20.203c4.142 0 7.5-3.357 7.5-7.5s-3.358-7.5-7.5-7.5h-20.203c-4.142 0-7.5 3.357-7.5 7.5s3.358 7.5 7.5 7.5z"/><path d="m212.563 338.404h-48.488c-4.142 0-7.5 3.357-7.5 7.5s3.358 7.5 7.5 7.5h48.488c4.142 0 7.5-3.357 7.5-7.5s-3.358-7.5-7.5-7.5z"/><path d="m111.547 353.404h20.203c4.142 0 7.5-3.357 7.5-7.5s-3.358-7.5-7.5-7.5h-20.203c-4.142 0-7.5 3.357-7.5 7.5s3.358 7.5 7.5 7.5z"/><path d="m212.563 372.75h-48.488c-4.142 0-7.5 3.357-7.5 7.5s3.358 7.5 7.5 7.5h48.488c4.142 0 7.5-3.357 7.5-7.5s-3.358-7.5-7.5-7.5z"/><path d="m111.547 387.75h20.203c4.142 0 7.5-3.357 7.5-7.5s-3.358-7.5-7.5-7.5h-20.203c-4.142 0-7.5 3.357-7.5 7.5s3.358 7.5 7.5 7.5z"/><path d="m212.563 407.096h-48.488c-4.142 0-7.5 3.357-7.5 7.5s3.358 7.5 7.5 7.5h48.488c4.142 0 7.5-3.357 7.5-7.5s-3.358-7.5-7.5-7.5z"/><path d="m111.547 422.096h20.203c4.142 0 7.5-3.357 7.5-7.5s-3.358-7.5-7.5-7.5h-20.203c-4.142 0-7.5 3.357-7.5 7.5s3.358 7.5 7.5 7.5z"/><path d="m368.128 202.032h-48.487c-4.143 0-7.5 3.357-7.5 7.5s3.357 7.5 7.5 7.5h48.487c4.143 0 7.5-3.357 7.5-7.5s-3.357-7.5-7.5-7.5z"/><path d="m267.111 217.032h20.204c4.143 0 7.5-3.357 7.5-7.5s-3.357-7.5-7.5-7.5h-20.204c-4.143 0-7.5 3.357-7.5 7.5s3.358 7.5 7.5 7.5z"/><path d="m368.128 236.378h-48.487c-4.143 0-7.5 3.357-7.5 7.5s3.357 7.5 7.5 7.5h48.487c4.143 0 7.5-3.357 7.5-7.5s-3.357-7.5-7.5-7.5z"/><path d="m267.111 251.378h20.204c4.143 0 7.5-3.357 7.5-7.5s-3.357-7.5-7.5-7.5h-20.204c-4.143 0-7.5 3.357-7.5 7.5s3.358 7.5 7.5 7.5z"/><path d="m368.128 270.724h-48.487c-4.143 0-7.5 3.357-7.5 7.5s3.357 7.5 7.5 7.5h48.487c4.143 0 7.5-3.357 7.5-7.5s-3.357-7.5-7.5-7.5z"/><path d="m267.111 285.724h20.204c4.143 0 7.5-3.357 7.5-7.5s-3.357-7.5-7.5-7.5h-20.204c-4.143 0-7.5 3.357-7.5 7.5s3.358 7.5 7.5 7.5z"/><path d="m368.128 305.069h-48.487c-4.143 0-7.5 3.357-7.5 7.5s3.357 7.5 7.5 7.5h48.487c4.143 0 7.5-3.357 7.5-7.5s-3.357-7.5-7.5-7.5z"/><path d="m267.111 320.069h20.204c4.143 0 7.5-3.357 7.5-7.5s-3.357-7.5-7.5-7.5h-20.204c-4.143 0-7.5 3.357-7.5 7.5s3.358 7.5 7.5 7.5z"/><path d="m368.128 339.415h-48.487c-4.143 0-7.5 3.357-7.5 7.5s3.357 7.5 7.5 7.5h48.487c4.143 0 7.5-3.357 7.5-7.5s-3.357-7.5-7.5-7.5z"/><path d="m267.111 354.415h20.204c4.143 0 7.5-3.357 7.5-7.5s-3.357-7.5-7.5-7.5h-20.204c-4.143 0-7.5 3.357-7.5 7.5s3.358 7.5 7.5 7.5z"/><path d="m368.128 373.76h-48.487c-4.143 0-7.5 3.357-7.5 7.5s3.357 7.5 7.5 7.5h48.487c4.143 0 7.5-3.357 7.5-7.5s-3.357-7.5-7.5-7.5z"/><path d="m267.111 388.76h20.204c4.143 0 7.5-3.357 7.5-7.5s-3.357-7.5-7.5-7.5h-20.204c-4.143 0-7.5 3.357-7.5 7.5s3.358 7.5 7.5 7.5z"/><path d="m368.128 408.105h-48.487c-4.143 0-7.5 3.357-7.5 7.5s3.357 7.5 7.5 7.5h48.487c4.143 0 7.5-3.357 7.5-7.5s-3.357-7.5-7.5-7.5z"/><path d="m267.111 423.105h20.204c4.143 0 7.5-3.357 7.5-7.5s-3.357-7.5-7.5-7.5h-20.204c-4.143 0-7.5 3.357-7.5 7.5s3.358 7.5 7.5 7.5z"/></g></g></svg>