<svg id="Capa_1" enable-background="new 0 0 512 512" height="512" viewBox="0 0 512 512" width="512" xmlns="http://www.w3.org/2000/svg"><g><g><path d="m79.222 346.915c-30.684 0-55.559-24.875-55.559-55.559s24.875-55.559 55.559-55.559h176.778v111.118z" fill="#f1d0a5"/></g><g><path d="m177.207 306.508c0 15.389 5.59 29.491 14.832 40.407h63.961v-111.118h-78.793z" fill="#f1b986"/></g><g><path d="m79.222 235.797c-5.995 0-11.763.961-17.173 2.718v58.902c0 9.484 7.688 17.173 17.173 17.173s17.173-7.688 17.173-17.173v-12.122c0-9.484 7.688-17.173 17.173-17.173s17.173 7.689 17.173 17.173v1.01c0 9.484 7.688 17.173 17.173 17.173s17.173-7.688 17.173-17.173v-1.01c0-9.484 7.688-17.173 17.173-17.173 9.484 0 17.173 7.689 17.173 17.173v-49.498z" fill="#b78b7a"/></g><g><path d="m177.207 268.88c1.597-.491 3.293-.758 5.051-.758 9.484 0 17.173 7.689 17.173 17.173v-49.498h-22.224z" fill="#aa7a63"/></g><g><path d="m401.463 346.915h-161.626c-22.316 0-40.406-18.091-40.406-40.407v-222.236h242.439v222.236c0 22.316-18.091 40.407-40.407 40.407z" fill="#e28086"/></g><g><path d="m409.545 84.272v222.236c0 22.316-18.091 40.407-40.406 40.407h32.325c22.316 0 40.406-18.091 40.406-40.407v-222.236z" fill="#dd636e"/></g><g><path d="m441.87 427.728h-371.74l-16.162-40.407h404.064z" fill="#dfeaef"/></g><g><path d="m7.5 346.915h497v40.407h-497z" fill="#f1f4f6"/></g><g><path d="m478.236 346.915h26.264v40.407h-26.264z" fill="#dfeaef"/></g><g><path d="m306.508 195.39h-50.508v-55.559l25.254-15.152 25.254 15.152z" fill="#9bd069"/></g><path d="m504.5 339.415h-68.269c8.134-8.59 13.139-20.172 13.139-32.907v-36.947h24.825c15.275 0 27.703-12.428 27.703-27.703v-80.813c0-15.275-12.428-27.703-27.703-27.703h-24.825v-49.07c0-4.143-3.357-7.5-7.5-7.5h-38.728c-4.143 0-7.5 3.357-7.5 7.5s3.357 7.5 7.5 7.5h31.228v214.735c0 18.146-14.762 32.907-32.907 32.907h-161.625c-18.146 0-32.907-14.762-32.907-32.907v-214.735h66.823v28.66l-21.612 12.967c-2.26 1.355-3.642 3.797-3.642 6.432v55.56c0 4.143 3.357 7.5 7.5 7.5h50.508c4.143 0 7.5-3.357 7.5-7.5v-55.56c0-2.635-1.382-5.076-3.642-6.432l-21.612-12.967v-28.66h79.34c4.143 0 7.5-3.357 7.5-7.5s-3.357-7.5-7.5-7.5h-168.663c-4.143 0-7.5 3.357-7.5 7.5v144.024h-54.931c-4.143 0-7.5 3.357-7.5 7.5s3.357 7.5 7.5 7.5h54.931v19.301c-2.972-1.271-6.242-1.976-9.673-1.976-13.604 0-24.673 11.068-24.673 24.673v1.01c0 5.334-4.339 9.673-9.672 9.673-5.334 0-9.673-4.339-9.673-9.673v-1.01c0-13.604-11.068-24.673-24.673-24.673s-24.673 11.068-24.673 24.673v12.122c0 5.334-4.339 9.673-9.673 9.673s-9.673-4.339-9.673-9.673v-53.142c3.125-.641 6.361-.978 9.673-.978h22.613c4.143 0 7.5-3.357 7.5-7.5s-3.357-7.5-7.5-7.5h-22.612c-34.771 0-63.059 28.288-63.059 63.059 0 19.24 8.671 36.484 22.299 48.06h-30.962c-4.143 0-7.5 3.357-7.5 7.5v40.406c0 4.143 3.357 7.5 7.5 7.5h41.39l14.276 35.691c1.14 2.848 3.897 4.715 6.964 4.715h371.74c3.066 0 5.824-1.867 6.964-4.715l14.276-35.691h41.39c4.143 0 7.5-3.357 7.5-7.5v-40.406c0-4.143-3.357-7.5-7.5-7.5zm-30.305-191.073c7.005 0 12.703 5.698 12.703 12.703v80.813c0 7.005-5.698 12.703-12.703 12.703h-24.825v-106.219zm-175.187 39.549h-35.508v-43.813l17.754-10.652 17.754 10.652zm-267.845 103.464c0-17.485 9.388-32.813 23.386-41.223v47.284c0 13.604 11.068 24.673 24.673 24.673s24.673-11.068 24.673-24.673v-12.122c0-5.334 4.339-9.673 9.673-9.673s9.673 4.339 9.673 9.673v1.01c0 13.604 11.068 24.673 24.673 24.673s24.672-11.068 24.672-24.673v-1.01c0-5.334 4.339-9.673 9.673-9.673s9.673 4.339 9.673 9.673v21.213c0 12.736 5.005 24.317 13.139 32.907h-125.849c-26.5.001-48.059-21.559-48.059-48.059zm465.837 88.466h-97.376c-4.143 0-7.5 3.357-7.5 7.5s3.357 7.5 7.5 7.5h47.33l-10.162 25.406h-361.584l-10.162-25.406h299.526c4.143 0 7.5-3.357 7.5-7.5s-3.357-7.5-7.5-7.5h-349.572v-25.406h64.222 417.778z"/></g></svg>