<svg id="Capa_1" enable-background="new 0 0 512 512" height="512" viewBox="0 0 512 512" width="512" xmlns="http://www.w3.org/2000/svg"><g><g><g><path d="m161.381 283.948h101.016v32.325h-101.016z" fill="#ffe07d" transform="matrix(.707 .707 -.707 .707 274.271 -61.928)"/></g><g><path d="m207.299 254.193h60.61v40.407h-60.61z" fill="#665e66" transform="matrix(.707 .707 -.707 .707 263.62 -87.643)"/></g><g><path d="m231.685 278.577h40.406v20.207h-40.406z" fill="#544f57" transform="matrix(.707 -.707 .707 .707 -130.352 262.665)"/></g><g><path d="m76.38 281.065h101.016v208.093h-101.016z" fill="#f1f4f6" transform="matrix(.707 .707 -.707 .707 309.48 23.073)"/></g><g><path d="m39.03 501.541-28.571-28.571c-3.945-3.945-3.945-10.341 0-14.286l21.429-21.429 42.858 42.858-21.429 21.429c-3.946 3.944-10.342 3.944-14.287-.001z" fill="#ffe07d"/></g><g><path d="m59.593 464.96-21.429 21.429c-3.945 3.945-10.341 3.945-14.286 0l15.152 15.152c3.945 3.945 10.341 3.945 14.286 0l21.429-21.429z" fill="#ffd064"/></g><g><path d="m113.317 487.255-8.572-8.572 100.001-100.001 22.857 22.857-85.715 85.715c-7.889 7.891-20.681 7.891-28.571.001z" fill="#ffd064"/></g><g><path d="m223.584 316.856h32.325v22.224h-32.325z" fill="#ffd064" transform="matrix(.707 -.707 .707 .707 -161.688 265.586)"/></g><g><path d="m50.699 401.857h208.093v22.224h-208.093z" fill="#dfeaef" transform="matrix(.707 -.707 .707 .707 -246.689 230.378)"/></g></g><g><circle cx="134.746" cy="377.254" fill="#e28086" r="16.163"/></g><g><circle cx="487.327" cy="24.673" fill="#e28086" r="17.173"/></g><g><path d="m262.497 260.11 3.049-3.049c2.929-2.93 2.929-7.678 0-10.607-2.93-2.928-7.678-2.928-10.607 0l-3.049 3.049-16.125-16.125c-2.93-2.928-7.678-2.928-10.607 0l-23.268 23.268-8.982-8.982c-2.93-2.928-7.678-2.928-10.607 0l-58.39 58.389c-2.929 2.93-2.929 7.678 0 10.607 2.93 2.927 7.678 2.929 10.607 0l30.229-30.229 60.822 60.822-89.251 89.251c-2.929 2.93-2.929 7.678 0 10.607 1.465 1.464 3.385 2.196 5.304 2.196s3.839-.732 5.304-2.196l57.822-57.822 12.251 12.25-80.412 80.412c-4.952 4.954-13.011 4.953-17.965.001l-3.269-3.269 6.702-6.703c2.929-2.929 2.929-7.677-.001-10.606-2.928-2.928-7.677-2.929-10.606.001l-22.415 22.416-60.823-60.823 81.479-81.478c2.929-2.93 2.929-7.678 0-10.607-2.929-2.927-7.677-2.929-10.607 0l-86.782 86.781c-1.406 1.407-2.196 3.314-2.196 5.304s.79 3.896 2.196 5.304l8.982 8.982-16.127 16.126c-3.324 3.325-5.155 7.745-5.155 12.446 0 4.702 1.831 9.122 5.155 12.447l28.571 28.571c3.325 3.324 7.745 5.155 12.447 5.155 4.701 0 9.121-1.831 12.446-5.155l16.125-16.125 8.982 8.982c1.407 1.406 3.314 2.196 5.304 2.196s3.896-.79 5.304-2.196l10.41-10.411 3.268 3.269c5.4 5.4 12.495 8.101 19.589 8.101 7.095 0 14.188-2.7 19.59-8.101l85.715-85.716c2.929-2.93 2.929-7.678 0-10.607l-17.554-17.554 48.982-48.983c2.929-2.93 2.929-7.678 0-10.607l-8.982-8.982 23.268-23.268c2.929-2.93 2.929-7.678 0-10.607zm-214.484 236.127c-1.014 1.015-2.665 1.016-3.679 0l-28.571-28.571c-1.015-1.014-1.015-2.665 0-3.679l16.125-16.125 32.25 32.25zm188.162-159.59-60.822-60.822 12.25-12.251 60.822 60.822zm8.572-37.143-32.25-32.25 17.964-17.965 32.251 32.251z"/><path d="m118.014 393.985c4.469 4.47 10.411 6.932 16.732 6.932 6.32 0 12.263-2.462 16.732-6.931 9.225-9.226 9.226-24.237-.001-33.465-9.228-9.225-24.238-9.225-33.464 0-4.469 4.47-6.931 10.412-6.931 16.732.001 6.322 2.463 12.265 6.932 16.732zm10.607-22.856c1.688-1.689 3.906-2.533 6.125-2.533 2.218 0 4.437.845 6.125 2.532 3.378 3.378 3.378 8.874 0 12.251-1.636 1.637-3.812 2.538-6.125 2.538-2.314 0-4.489-.901-6.126-2.538-1.636-1.636-2.537-3.811-2.537-6.125s.901-4.489 2.538-6.125z"/><path d="m447.678 53.715-4.242 4.242c-2.929 2.93-2.929 7.678 0 10.607 1.465 1.464 3.385 2.196 5.304 2.196s3.839-.732 5.304-2.196l4.242-4.242c2.929-2.93 2.929-7.678 0-10.607-2.931-2.928-7.679-2.928-10.608 0z"/><path d="m427.485 73.907-8.7 8.7c-2.929 2.93-2.929 7.678 0 10.607 1.465 1.464 3.385 2.196 5.304 2.196s3.839-.732 5.304-2.196l8.7-8.7c2.929-2.93 2.929-7.678 0-10.607-2.93-2.928-7.678-2.928-10.608 0z"/><path d="m279.588 221.805-8.699 8.699c-2.929 2.93-2.929 7.678 0 10.607 1.465 1.464 3.385 2.196 5.304 2.196s3.839-.732 5.304-2.196l8.699-8.699c2.929-2.93 2.929-7.678 0-10.607-2.93-2.928-7.678-2.928-10.608 0z"/><path d="m304.237 197.155-8.699 8.699c-2.929 2.93-2.929 7.678 0 10.607 1.465 1.464 3.385 2.196 5.304 2.196s3.839-.732 5.304-2.196l8.699-8.699c2.929-2.93 2.929-7.678 0-10.607-2.93-2.927-7.678-2.927-10.608 0z"/><path d="m378.187 123.206-8.7 8.7c-2.929 2.93-2.929 7.678 0 10.607 1.465 1.464 3.385 2.196 5.304 2.196s3.839-.732 5.304-2.196l8.7-8.7c2.929-2.93 2.929-7.678 0-10.607-2.931-2.928-7.679-2.928-10.608 0z"/><path d="m402.836 98.557-8.7 8.7c-2.929 2.93-2.929 7.678 0 10.607 1.465 1.464 3.385 2.196 5.304 2.196s3.839-.732 5.304-2.196l8.7-8.7c2.929-2.93 2.929-7.678 0-10.607-2.93-2.928-7.678-2.928-10.608 0z"/><path d="m353.537 147.855-8.7 8.7c-2.929 2.93-2.929 7.678 0 10.607 1.465 1.464 3.385 2.196 5.304 2.196s3.839-.732 5.304-2.196l8.7-8.7c2.929-2.93 2.929-7.678 0-10.607-2.93-2.927-7.678-2.927-10.608 0z"/><path d="m328.888 172.505-8.7 8.7c-2.929 2.93-2.929 7.678 0 10.607 1.465 1.464 3.385 2.196 5.304 2.196s3.839-.732 5.304-2.196l8.7-8.7c2.929-2.93 2.929-7.678 0-10.607-2.931-2.928-7.679-2.928-10.608 0z"/><path d="m487.327 0c-13.604 0-24.673 11.068-24.673 24.673s11.068 24.673 24.673 24.673 24.673-11.069 24.673-24.673-11.068-24.673-24.673-24.673zm0 34.346c-5.334 0-9.673-4.339-9.673-9.673s4.339-9.673 9.673-9.673 9.673 4.339 9.673 9.673-4.339 9.673-9.673 9.673z"/><path d="m487.327 66.671c-4.143 0-7.5 3.357-7.5 7.5v14.143c0 4.143 3.357 7.5 7.5 7.5s7.5-3.357 7.5-7.5v-14.143c0-4.143-3.357-7.5-7.5-7.5z"/><path d="m423.687 32.173h14.143c4.143 0 7.5-3.357 7.5-7.5s-3.357-7.5-7.5-7.5h-14.143c-4.143 0-7.5 3.357-7.5 7.5s3.357 7.5 7.5 7.5z"/></g></g></svg>