<svg id="Capa_1" enable-background="new 0 0 512 512" height="512" viewBox="0 0 512 512" width="512" xmlns="http://www.w3.org/2000/svg"><g><g><path d="m420.065 190.726h-328.13c-5.663 0-10.254-4.591-10.254-10.254v-14.356c0-5.663 4.591-10.254 10.254-10.254h328.13c5.663 0 10.254 4.591 10.254 10.254v14.356c0 5.663-4.591 10.254-10.254 10.254z" fill="#665e66"/></g><g><path d="m420.065 155.862h-28.711c5.663 0 10.254 4.591 10.254 10.254v14.356c0 5.663-4.591 10.254-10.254 10.254h28.711c5.663 0 10.254-4.591 10.254-10.254v-14.356c0-5.663-4.591-10.254-10.254-10.254z" fill="#544f57"/></g><g><path d="m399.557 225.589h-287.114c-5.663 0-10.254-4.591-10.254-10.254v-24.61h307.622v24.61c0 5.664-4.591 10.254-10.254 10.254z" fill="#c19d8e"/></g><g><path d="m379.049 190.726v24.61c0 5.663-4.591 10.254-10.254 10.254h30.762c5.663 0 10.254-4.591 10.254-10.254v-24.61z" fill="#b78b7a"/></g><g><path d="m122.697 225.589h266.606v278.911h-266.606z" fill="#b78b7a"/></g><g><path d="m122.697 225.589v26.661h233.793c3.398 0 6.152 2.755 6.152 6.152v246.098h26.661v-278.911z" fill="#aa7a63"/></g><g><path d="m163.713 225.589h184.573v278.911h-184.573z" fill="#c19d8e"/></g><g><path d="m163.713 225.589h184.573v26.661h-184.573z" fill="#b78b7a"/></g><g><circle cx="256" cy="376.324" fill="#ffc250" r="59.474"/></g><g><circle cx="256" cy="376.324" fill="#ffe07d" r="26.661"/></g><g><path d="m420.065 148.361h-64.278v-85.228c0-12.959-5.046-25.143-14.21-34.307l-11.129-11.129c.257-1.074.407-2.189.407-3.342 0-7.928-6.428-14.355-14.356-14.355s-14.356 6.427-14.356 14.356 6.427 14.356 14.356 14.356c1.153 0 2.268-.151 3.342-.407l11.129 11.128c6.33 6.331 9.816 14.748 9.816 23.7v85.229h-169.573v-85.229c0-8.952 3.486-17.369 9.816-23.699l11.129-11.129c1.074.257 2.189.407 3.342.407 7.928 0 14.356-6.427 14.356-14.356s-6.427-14.356-14.355-14.356-14.356 6.427-14.356 14.356c0 1.153.15 2.268.407 3.342l-11.129 11.13c-9.164 9.163-14.21 21.347-14.21 34.306v85.229h-12.417c-4.142 0-7.5 3.357-7.5 7.5s3.358 7.5 7.5 7.5h276.268c1.519 0 2.754 1.235 2.754 2.755v14.355c0 1.519-1.235 2.754-2.754 2.754h-328.129c-1.519 0-2.754-1.235-2.754-2.754v-14.355c0-1.52 1.235-2.755 2.754-2.755h16.779c4.142 0 7.5-3.357 7.5-7.5s-3.358-7.5-7.5-7.5h-16.779c-9.79 0-17.754 7.965-17.754 17.755v14.355c0 9.789 7.964 17.754 17.754 17.754h2.754v17.109c0 9.79 7.964 17.755 17.754 17.755h2.754v271.409c0 4.143 3.358 7.5 7.5 7.5s7.5-3.357 7.5-7.5v-271.41h26.016v158.643c0 4.143 3.358 7.5 7.5 7.5s7.5-3.357 7.5-7.5v-158.643h169.573v271.41c0 4.143 3.358 7.5 7.5 7.5s7.5-3.357 7.5-7.5v-271.41h26.016v48.643c0 4.143 3.358 7.5 7.5 7.5s7.5-3.357 7.5-7.5v-48.643h2.754c9.79 0 17.754-7.965 17.754-17.755v-17.109h2.754c9.79 0 17.754-7.965 17.754-17.754v-14.355c.001-9.791-7.963-17.756-17.753-17.756zm-17.754 66.974c0 1.519-1.235 2.755-2.754 2.755h-287.114c-1.519 0-2.754-1.236-2.754-2.755v-17.109h292.622z"/><path d="m389.303 309.429c-4.142 0-7.5 3.357-7.5 7.5v187.571c0 4.143 3.358 7.5 7.5 7.5s7.5-3.357 7.5-7.5v-187.571c0-4.143-3.358-7.5-7.5-7.5z"/><path d="m163.713 419.429c-4.142 0-7.5 3.357-7.5 7.5v77.571c0 4.143 3.358 7.5 7.5 7.5s7.5-3.357 7.5-7.5v-77.571c0-4.143-3.358-7.5-7.5-7.5z"/><path d="m256 342.164c-18.836 0-34.161 15.324-34.161 34.16s15.324 34.16 34.161 34.16 34.161-15.324 34.161-34.16-15.325-34.16-34.161-34.16zm0 53.32c-10.565 0-19.161-8.595-19.161-19.16s8.595-19.16 19.161-19.16 19.161 8.595 19.161 19.16-8.596 19.16-19.161 19.16z"/><path d="m256 309.351c-36.929 0-66.974 30.044-66.974 66.974s30.044 66.974 66.974 66.974 66.974-30.044 66.974-66.974-30.045-66.974-66.974-66.974zm0 118.947c-28.658 0-51.974-23.315-51.974-51.974s23.315-51.974 51.974-51.974 51.974 23.315 51.974 51.974-23.316 51.974-51.974 51.974z"/></g></g></svg>