<svg id="Capa_1" enable-background="new 0 0 512 512" height="512" viewBox="0 0 512 512" width="512" xmlns="http://www.w3.org/2000/svg"><g><g><path d="m417.626 118.618h-323.252c-5.579 0-10.102-4.523-10.102-10.102v-28.284c0-5.579 4.523-10.102 10.102-10.102h323.252c5.579 0 10.102 4.523 10.102 10.102v28.285c0 5.578-4.523 10.101-10.102 10.101z" fill="#665e66"/></g><g><path d="m397.423 70.13v48.488h20.203c5.579 0 10.102-4.523 10.102-10.102v-28.284c0-5.579-4.523-10.102-10.102-10.102z" fill="#544f57"/></g><g><path d="m104.476 118.618 20.203 385.882h262.642l20.203-385.882z" fill="#f6f9f9"/></g><g><path d="m379.24 118.618-20.203 385.882h28.284l20.203-385.882z" fill="#f1f4f6"/></g><g><path d="m308.922 10.831-52.922 22.933h-131.321c-5.579 0-10.102 4.523-10.102 10.102v26.264h282.846v-52.528c0-5.579-4.523-10.102-10.102-10.102h-62.333c-5.527 0-10.995 1.134-16.066 3.331z" fill="#665e66"/></g><g><path d="m114.577 49.927h282.846v20.203h-282.846z" fill="#544f57"/></g><g><path d="m92.354 193.37 14.142 202.032h299.008l14.142-202.032z" fill="#f1d0a5"/></g><g><path d="m383.28 193.37-9.091 202.032h31.315l14.142-202.032z" fill="#f1b986"/></g><g><g><path d="m298.858 308.672c15.78-15.78 15.78-41.364 0-57.143-15.78-15.78-41.364-15.78-57.143 0-5.206 5.206-23.366 23.366-28.572 28.572-15.78 15.78-15.78 41.364 0 57.143 15.78 15.78 41.364 15.78 57.143 0 5.206-5.206 23.366-23.366 28.572-28.572z" fill="#b78b7a"/></g></g><g><path d="m417.626 62.63h-12.703v-45.028c0-9.706-7.896-17.602-17.602-17.602h-62.333c-6.591 0-13 1.329-19.048 3.949l-51.496 22.315h-129.765c-9.706 0-17.602 7.896-17.602 17.602v18.764h-12.703c-9.706 0-17.602 7.896-17.602 17.602v28.285c0 9.705 7.896 17.602 17.602 17.602h2.988l3.126 59.752h-8.134c-2.08 0-4.067.864-5.485 2.385s-2.142 3.563-1.996 5.639l14.142 202.032c.275 3.93 3.543 6.977 7.482 6.977h5.357l5.338 101.989c.208 3.984 3.5 7.108 7.49 7.108h262.64c3.99 0 7.281-3.124 7.49-7.108l5.338-101.989h5.357c3.939 0 7.207-3.047 7.482-6.977l14.142-202.032c.146-2.075-.578-4.117-1.996-5.639-1.418-1.521-3.405-2.385-5.485-2.385h-8.134l3.126-59.752h2.988c9.706 0 17.602-7.896 17.602-17.602v-28.286c-.004-9.705-7.9-17.601-17.606-17.601zm-21.134 123.24h-225.135c-4.142 0-7.5 3.357-7.5 7.5s3.358 7.5 7.5 7.5h240.246l-13.092 187.032h-65.046c-4.142 0-7.5 3.357-7.5 7.5s3.358 7.5 7.5 7.5h51.663l-4.926 94.098h-248.404l-4.925-94.098h171.556c4.142 0 7.5-3.357 7.5-7.5s-3.358-7.5-7.5-7.5h-184.94l-13.092-187.032h35.951c4.142 0 7.5-3.357 7.5-7.5s-3.358-7.5-7.5-7.5h-20.84l-3.126-59.752h287.235zm23.736-77.353c0 1.435-1.167 2.602-2.602 2.602h-323.252c-1.435 0-2.602-1.167-2.602-2.602v-28.286c0-1.435 1.167-2.602 2.602-2.602h226.555c4.142 0 7.5-3.357 7.5-7.5s-3.358-7.5-7.5-7.5h-198.852v-18.763c0-1.435 1.167-2.602 2.602-2.602h131.321c1.026 0 2.041-.211 2.982-.618l52.922-22.934c4.154-1.8 8.556-2.713 13.084-2.713h62.333c1.435 0 2.602 1.167 2.602 2.602v45.029h-33.886c-4.142 0-7.5 3.357-7.5 7.5s3.358 7.5 7.5 7.5h61.589c1.435 0 2.602 1.167 2.602 2.602z"/><path d="m241.714 356.557c12.268 0 24.536-4.67 33.875-14.009l28.572-28.572c9.048-9.049 14.032-21.079 14.032-33.875s-4.983-24.827-14.032-33.876c-18.679-18.678-49.072-18.678-67.75 0l-28.572 28.572c-9.048 9.049-14.032 21.079-14.032 33.875s4.983 24.827 14.032 33.876c9.34 9.339 21.608 14.009 33.875 14.009zm51.84-53.189-28.572 28.572c-10.941 10.941-27.728 12.544-40.392 4.827 6.628-5.822 11.505-8.656 16.594-11.602 7.091-4.105 14.423-8.35 25.833-19.76s15.655-18.742 19.76-25.833c2.948-5.092 5.783-9.972 11.612-16.605 3.127 5.109 4.804 10.991 4.804 17.133-.001 8.79-3.423 17.053-9.639 23.268zm-75.108-17.964 28.572-28.572c6.416-6.416 14.841-9.623 23.268-9.623 6.101 0 12.199 1.691 17.538 5.055-7.272 8.124-10.697 14.039-14.028 19.793-3.788 6.542-7.365 12.722-17.385 22.741-10.02 10.021-16.2 13.599-22.742 17.386-5.756 3.333-11.671 6.758-19.797 14.031-3.292-5.203-5.064-11.235-5.064-17.543 0-8.789 3.422-17.053 9.638-23.268z"/><path d="m366.108 343.303h12.122c4.142 0 7.5-3.357 7.5-7.5s-3.358-7.5-7.5-7.5h-12.122c-4.142 0-7.5 3.357-7.5 7.5s3.358 7.5 7.5 7.5z"/><path d="m356.006 375.628h22.224c4.142 0 7.5-3.357 7.5-7.5s-3.358-7.5-7.5-7.5h-22.224c-4.142 0-7.5 3.357-7.5 7.5s3.358 7.5 7.5 7.5z"/><path d="m126.271 335.803c0 4.143 3.358 7.5 7.5 7.5h12.122c4.142 0 7.5-3.357 7.5-7.5s-3.358-7.5-7.5-7.5h-12.122c-4.143 0-7.5 3.357-7.5 7.5z"/><path d="m126.271 368.128c0 4.143 3.358 7.5 7.5 7.5h22.224c4.142 0 7.5-3.357 7.5-7.5s-3.358-7.5-7.5-7.5h-22.224c-4.143 0-7.5 3.357-7.5 7.5z"/></g></g></svg>