<svg id="Capa_1" enable-background="new 0 0 512 512" height="512" viewBox="0 0 512 512" width="512" xmlns="http://www.w3.org/2000/svg"><g><g><path d="m7.5 40.674h497.001v371.74h-497.001z" fill="#cbe2ff"/></g><g><path d="m484.297 40.674h20.203v371.74h-20.203z" fill="#bed8fb"/></g><g><path d="m347.166 443.037-29.546 5.394-19.444 22.891-35.356-61.238 48.991-28.285z" fill="#e28086"/></g><g><path d="m164.835 443.037 29.546 5.394 19.444 22.891 35.356-61.238-48.991-28.285z" fill="#e28086"/></g><g><path d="m110.537 18.45h290.927v416.187h-290.927z" fill="#f6f9f9" transform="matrix(0 1 -1 0 482.544 -29.457)"/></g><g><path d="m238.828 29.562h34.346v202.033h-34.346z" fill="#e28086" transform="matrix(0 1 -1 0 386.579 -125.422)"/></g><g><path d="m324.736 404.187-12.925-22.387-48.99 28.285 12.95 22.43c19.193-4.176 36.194-14.293 48.965-28.328z" fill="#dd636e"/></g><g><path d="m187.265 404.187c12.771 14.036 29.773 24.152 48.966 28.327l12.95-22.43-48.99-28.285z" fill="#dd636e"/></g><g><circle cx="256" cy="341.702" fill="#ffe07d" r="70.711"/></g><g><path d="m299.276 285.8c9.274 11.962 14.809 26.968 14.809 43.276 0 39.053-31.659 70.711-70.711 70.711-16.307 0-31.314-5.535-43.276-14.809 12.935 16.685 33.157 27.436 55.903 27.436 39.053 0 70.711-31.659 70.711-70.711 0-22.746-10.751-42.968-27.436-55.903z" fill="#ffd064"/></g><g><circle cx="256" cy="341.702" fill="#ffc250" r="38.386"/></g><g><path d="m504.5 33.174h-422c-4.142 0-7.5 3.357-7.5 7.5s3.358 7.5 7.5 7.5h414.5v356.74h-163.179l-12.078-20.926c.944-1.462 1.847-2.951 2.694-4.478h79.992c4.143 0 7.5-3.357 7.5-7.5s-3.357-7.5-7.5-7.5h-73.618c2.206-7.22 3.401-14.876 3.401-22.808 0-43.126-35.086-78.211-78.212-78.211s-78.211 35.085-78.211 78.211c0 7.932 1.196 15.588 3.401 22.808h-125.779v-275.93h401.18v275.93h-17.091c-4.143 0-7.5 3.357-7.5 7.5s3.357 7.5 7.5 7.5h24.59c4.143 0 7.5-3.357 7.5-7.5v-290.93c0-4.143-3.357-7.5-7.5-7.5h-416.179c-4.142 0-7.5 3.357-7.5 7.5v290.93c0 4.143 3.358 7.5 7.5 7.5h139.653c.847 1.527 1.751 3.016 2.694 4.478l-12.078 20.926h-163.18v-356.74h32.438c4.142 0 7.5-3.357 7.5-7.5s-3.358-7.5-7.5-7.5h-39.938c-4.142 0-7.5 3.357-7.5 7.5v371.74c0 4.143 3.358 7.5 7.5 7.5h162.022l-11.185 19.379c-1.219 2.112-1.335 4.686-.311 6.898 1.024 2.214 3.061 3.791 5.46 4.229l26.912 4.913 17.712 20.849c1.432 1.686 3.526 2.645 5.715 2.645.225 0 .451-.01.678-.03 2.429-.221 4.599-1.607 5.819-3.72l31.898-55.258c1.253.06 2.513.096 3.78.096s2.527-.036 3.781-.096l31.899 55.258c1.219 2.112 3.39 3.499 5.818 3.72.227.021.452.03.678.03 2.189 0 4.283-.959 5.715-2.645l17.711-20.849 26.912-4.913c2.399-.438 4.436-2.015 5.46-4.229 1.024-2.213.908-4.786-.311-6.898l-11.185-19.379h162.022c4.143 0 7.5-3.357 7.5-7.5v-371.74c0-4.143-3.357-7.5-7.5-7.5zm-291.849 425.186-12.555-14.779c-1.121-1.32-2.665-2.212-4.369-2.522l-19.079-3.482 23.673-41.016c9.758 9.903 22.122 17.228 35.976 20.837zm-19.862-116.658c0-34.854 28.356-63.211 63.211-63.211s63.212 28.356 63.212 63.211-28.356 63.212-63.212 63.212c-34.854 0-63.211-28.356-63.211-63.212zm123.485 99.356c-1.704.311-3.248 1.202-4.369 2.522l-12.555 14.78-23.647-40.963c13.854-3.609 26.219-10.934 35.977-20.837l23.672 41.015z"/><path d="m357.017 155.251c4.143 0 7.5-3.357 7.5-7.5v-34.346c0-4.143-3.357-7.5-7.5-7.5h-202.033c-4.142 0-7.5 3.357-7.5 7.5v34.346c0 4.143 3.358 7.5 7.5 7.5zm-194.533-34.345h187.033v19.346h-187.033z"/><path d="m256 295.817c-25.302 0-45.886 20.584-45.886 45.886s20.584 45.886 45.886 45.886 45.886-20.584 45.886-45.886-20.584-45.886-45.886-45.886zm0 76.771c-17.031 0-30.886-13.855-30.886-30.886s13.856-30.885 30.886-30.885 30.886 13.855 30.886 30.886-13.855 30.885-30.886 30.885z"/><path d="m122.23 180.076c0 4.143 3.358 7.5 7.5 7.5h80.813c4.142 0 7.5-3.357 7.5-7.5s-3.358-7.5-7.5-7.5h-80.813c-4.142 0-7.5 3.358-7.5 7.5z"/><path d="m413.586 172.576h-170.718c-4.142 0-7.5 3.357-7.5 7.5s3.358 7.5 7.5 7.5h170.718c4.143 0 7.5-3.357 7.5-7.5s-3.357-7.5-7.5-7.5z"/><path d="m421.086 212.402c0-4.143-3.357-7.5-7.5-7.5h-206.073c-4.142 0-7.5 3.357-7.5 7.5s3.358 7.5 7.5 7.5h206.074c4.142 0 7.499-3.358 7.499-7.5z"/><path d="m90.915 212.402c0 4.143 3.358 7.5 7.5 7.5h76.772c4.142 0 7.5-3.357 7.5-7.5s-3.358-7.5-7.5-7.5h-76.772c-4.142 0-7.5 3.357-7.5 7.5z"/><path d="m98.415 252.227h122.229c4.142 0 7.5-3.357 7.5-7.5s-3.358-7.5-7.5-7.5h-122.229c-4.142 0-7.5 3.357-7.5 7.5s3.358 7.5 7.5 7.5z"/></g></g></svg>