<svg id="Capa_1" enable-background="new 0 0 512 512" height="512" viewBox="0 0 512 512" width="512" xmlns="http://www.w3.org/2000/svg"><g><g><g><path d="m277.213 140.841 52.028 17.123c16.574 5.455 27.775 20.933 27.775 38.381v35.41h-202.032v-35.41c0-17.449 11.201-32.926 27.775-38.381l52.028-17.123z" fill="#cbe2ff"/></g><g><path d="m329.242 157.965-2.53-.833v74.624h30.305v-35.41c-.001-17.449-11.201-32.927-27.775-38.381z" fill="#bed8fb"/></g><g><path d="m256 162.055c-11.716 0-21.213-9.498-21.213-21.213v-17.173h42.427v17.173c-.001 11.715-9.498 21.213-21.214 21.213z" fill="#f1b986"/></g><g><path d="m304.488 55.988c0-26.779-21.709-48.488-48.488-48.488s-48.488 21.709-48.488 48.488v24.244c0 26.779 21.709 48.488 48.488 48.488s48.488-21.709 48.488-48.488z" fill="#f1d0a5"/></g><g><path d="m256 7.5c-3.825 0-7.542.457-11.112 1.294 21.421 5.025 37.376 24.24 37.376 47.193v24.244c0 22.954-15.955 42.168-37.376 47.193 3.57.837 7.286 1.294 11.112 1.294 26.779 0 48.488-21.709 48.488-48.488v-24.242c0-26.779-21.709-48.488-48.488-48.488z" fill="#f1b986"/></g></g><g><g><path d="m424.697 413.585 52.028 17.123c16.574 5.455 27.775 20.933 27.775 38.381v35.41h-202.033v-35.41c0-17.449 11.201-32.926 27.775-38.381l52.028-17.123z" fill="#9bd069"/></g><g><path d="m476.725 430.709-2.53-.833v74.624h30.305v-35.41c0-17.449-11.201-32.927-27.775-38.381z" fill="#7dbe3b"/></g><g><path d="m403.484 434.799c-11.716 0-21.213-9.498-21.213-21.213v-17.173h42.427v17.173c-.001 11.715-9.498 21.213-21.214 21.213z" fill="#aa7a63"/></g><g><path d="m451.972 328.732c0-26.779-21.709-48.488-48.488-48.488s-48.488 21.709-48.488 48.488v24.244c0 26.779 21.709 48.488 48.488 48.488s48.488-21.709 48.488-48.488z" fill="#b78b7a"/></g><g><path d="m403.484 280.244c-3.825 0-7.542.457-11.112 1.294 21.421 5.025 37.376 24.24 37.376 47.193v24.244c0 22.954-15.955 42.168-37.376 47.193 3.57.837 7.286 1.294 11.112 1.294 26.779 0 48.488-21.709 48.488-48.488v-24.244c0-26.777-21.709-48.486-48.488-48.486z" fill="#aa7a63"/></g></g><g><g><path d="m129.73 413.585 52.028 17.123c16.574 5.455 27.775 20.933 27.775 38.381v35.41h-202.033v-35.41c0-17.449 11.2-32.926 27.775-38.381l52.028-17.123z" fill="#e28086"/></g><g><path d="m181.758 430.709-2.53-.833v74.624h30.305v-35.41c0-17.449-11.201-32.927-27.775-38.381z" fill="#dd636e"/></g><g><path d="m108.516 434.799c-11.716 0-21.213-9.498-21.213-21.213v-17.173h42.427v17.173c0 11.715-9.498 21.213-21.214 21.213z" fill="#f1b986"/></g><g><path d="m157.004 328.732c0-26.779-21.709-48.488-48.488-48.488s-48.488 21.709-48.488 48.488v24.244c0 26.779 21.709 48.488 48.488 48.488s48.488-21.709 48.488-48.488z" fill="#f1d0a5"/></g><g><path d="m108.516 280.244c-3.825 0-7.542.457-11.112 1.294 21.421 5.025 37.376 24.24 37.376 47.193v24.244c0 22.954-15.955 42.168-37.376 47.193 3.57.837 7.286 1.294 11.112 1.294 26.779 0 48.488-21.709 48.488-48.488v-24.244c0-26.777-21.709-48.486-48.488-48.486z" fill="#f1b986"/></g></g><g><circle cx="256" cy="335.803" fill="#ffe07d" r="27.274"/></g><g><path d="m479.07 423.585-46.873-15.427v-7.141c16.323-9.793 27.274-27.66 27.274-48.042v-24.244c0-30.871-25.116-55.987-55.988-55.987-30.871 0-55.987 25.116-55.987 55.987v24.244c0 20.382 10.951 38.249 27.274 48.042v7.14l-46.873 15.427c-19.696 6.481-32.93 24.769-32.93 45.505v35.41c0 4.143 3.357 7.5 7.5 7.5h83.509c4.143 0 7.5-3.357 7.5-7.5s-3.357-7.5-7.5-7.5h-33.582v-12.703c0-4.143-3.357-7.5-7.5-7.5s-7.5 3.357-7.5 7.5v12.704h-27.427v-27.91c0-14.243 9.09-26.805 22.619-31.257l43.906-14.451c4.014 11.023 14.597 18.917 26.99 18.917 12.394 0 22.977-7.894 26.991-18.917l43.906 14.451c13.531 4.452 22.621 17.014 22.621 31.257v27.91h-27.427v-12.703c0-4.143-3.357-7.5-7.5-7.5s-7.5 3.357-7.5 7.5v12.703h-33.583c-4.143 0-7.5 3.357-7.5 7.5s3.357 7.5 7.5 7.5h83.51c4.143 0 7.5-3.357 7.5-7.5v-35.41c0-20.736-13.233-39.024-32.93-45.505zm-116.574-70.609v-24.244c0-22.601 18.387-40.987 40.987-40.987s40.988 18.387 40.988 40.987v24.244c0 22.601-18.388 40.988-40.988 40.988s-40.987-18.388-40.987-40.988zm40.987 74.323c-7.562 0-13.713-6.152-13.713-13.714v-.091c0-.015 0-.03 0-.044v-6.191c4.39 1.11 8.983 1.705 13.713 1.705s9.323-.595 13.714-1.705v6.191.044.091c0 7.561-6.152 13.714-13.714 13.714z"/><path d="m184.103 423.585-46.873-15.427v-7.14c16.323-9.793 27.274-27.66 27.274-48.042v-24.244c0-30.871-25.116-55.987-55.987-55.987-30.872 0-55.988 25.116-55.988 55.987v24.244c0 20.382 10.951 38.249 27.274 48.042v7.141l-46.873 15.426c-19.697 6.481-32.93 24.769-32.93 45.505v35.41c0 4.143 3.357 7.5 7.5 7.5h83.51c4.143 0 7.5-3.357 7.5-7.5s-3.357-7.5-7.5-7.5h-33.583v-12.703c0-4.143-3.357-7.5-7.5-7.5s-7.5 3.357-7.5 7.5v12.703h-27.427v-27.91c0-14.243 9.09-26.805 22.619-31.257l43.906-14.451c4.014 11.023 14.597 18.917 26.991 18.917 12.393 0 22.976-7.894 26.99-18.917l43.906 14.451c13.529 4.452 22.619 17.014 22.619 31.257v27.91h-27.427v-12.703c0-4.143-3.357-7.5-7.5-7.5s-7.5 3.357-7.5 7.5v12.703h-33.582c-4.143 0-7.5 3.357-7.5 7.5s3.357 7.5 7.5 7.5h83.509c4.143 0 7.5-3.357 7.5-7.5v-35.41c.001-20.736-13.232-39.024-32.928-45.505zm-116.575-70.609v-24.244c0-22.601 18.388-40.987 40.988-40.987s40.987 18.387 40.987 40.987v24.244c0 22.601-18.387 40.988-40.987 40.988s-40.988-18.388-40.988-40.988zm40.989 74.323c-7.562 0-13.714-6.152-13.714-13.714v-.091c0-.015 0-.03 0-.044v-6.191c4.39 1.11 8.983 1.705 13.714 1.705 4.73 0 9.323-.595 13.713-1.705v6.191.044.091c-.001 7.561-6.152 13.714-13.713 13.714z"/><path d="m227.286 128.273v7.141l-46.872 15.426c-19.697 6.482-32.931 24.77-32.931 45.505v35.41c0 4.143 3.357 7.5 7.5 7.5h83.51c4.143 0 7.5-3.357 7.5-7.5s-3.357-7.5-7.5-7.5h-33.583v-12.703c0-4.143-3.357-7.5-7.5-7.5s-7.5 3.357-7.5 7.5v12.703h-27.427v-27.91c0-14.242 9.09-26.804 22.62-31.257l43.906-14.45c4.014 11.023 14.597 18.916 26.991 18.916s22.977-7.893 26.991-18.916l43.906 14.45c13.53 4.453 22.62 17.015 22.62 31.257v27.91h-27.427v-12.703c0-4.143-3.357-7.5-7.5-7.5s-7.5 3.357-7.5 7.5v12.703h-33.583c-4.143 0-7.5 3.357-7.5 7.5s3.357 7.5 7.5 7.5h83.51c4.143 0 7.5-3.357 7.5-7.5v-35.41c0-20.735-13.233-39.022-32.931-45.505l-46.872-15.426v-7.141c16.323-9.793 27.274-27.66 27.274-48.042v-24.243c0-30.872-25.116-55.988-55.988-55.988s-55.988 25.116-55.988 55.988v24.243c0 20.382 10.951 38.249 27.274 48.042zm42.428 12.433v.044.091c0 7.562-6.152 13.713-13.714 13.713s-13.714-6.151-13.714-13.713v-.091c0-.015 0-.03 0-.044v-6.192c4.39 1.11 8.983 1.705 13.714 1.705s9.323-.595 13.714-1.705zm-54.702-84.718c0-22.6 18.387-40.988 40.988-40.988s40.988 18.388 40.988 40.988v24.243c0 22.601-18.388 40.988-40.988 40.988s-40.988-18.388-40.988-40.988z"/><path d="m199.981 391.821c1.465 1.464 3.385 2.196 5.304 2.196s3.839-.732 5.304-2.196l26.719-26.719c5.403 3.459 11.815 5.474 18.693 5.474s13.29-2.015 18.693-5.474l26.719 26.719c1.465 1.464 3.385 2.196 5.304 2.196s3.839-.732 5.304-2.196c2.929-2.93 2.929-7.678 0-10.607l-26.721-26.719c3.459-5.403 5.474-11.815 5.474-18.693 0-16.6-11.694-30.511-27.274-33.951v-37.771c0-4.143-3.357-7.5-7.5-7.5s-7.5 3.357-7.5 7.5v37.771c-15.58 3.44-27.274 17.351-27.274 33.951 0 6.878 2.015 13.29 5.474 18.693l-26.719 26.719c-2.928 2.93-2.928 7.678 0 10.607zm56.019-75.793c10.903 0 19.774 8.871 19.774 19.774s-8.871 19.774-19.774 19.774-19.774-8.871-19.774-19.774 8.871-19.774 19.774-19.774z"/><path d="m107.506 255.419c4.143 0 7.5-3.357 7.5-7.5v-100.006c0-15.773 12.718-28.624 28.438-28.855v7.641c0 2.727 1.479 5.238 3.864 6.56 1.133.628 2.385.94 3.636.94 1.382 0 2.762-.382 3.975-1.14l24.243-15.152c4.01-2.349 5.233-9.584 0-12.721l-24.243-15.152c-2.313-1.444-5.227-1.521-7.61-.199-2.385 1.321-3.864 3.833-3.864 6.56v7.663c-23.99.232-43.438 19.812-43.438 43.855v100.006c-.001 4.143 3.356 7.5 7.499 7.5z"/><path d="m336.813 119.047h31.314c15.917 0 28.866 12.949 28.866 28.866v68.262h-7.652c-2.727 0-5.238 1.479-6.56 3.864s-1.245 5.299.199 7.61l15.152 24.244c2.349 4.01 9.584 5.233 12.721 0l15.152-24.244c1.444-2.312 1.521-5.226.199-7.61-1.321-2.385-3.833-3.864-6.56-3.864h-7.652v-68.262c0-24.188-19.679-43.866-43.866-43.866h-31.314c-4.143 0-7.5 3.357-7.5 7.5s3.359 7.5 7.501 7.5z"/><path d="m271.152 467.705h-30.305c-4.143 0-7.5 3.357-7.5 7.5s3.357 7.5 7.5 7.5h30.305c4.143 0 7.5-3.357 7.5-7.5s-3.357-7.5-7.5-7.5z"/></g></g></svg>