<svg id="Capa_1" enable-background="new 0 0 512 512" height="512" viewBox="0 0 512 512" width="512" xmlns="http://www.w3.org/2000/svg"><g><g><g><path d="m108.516 7.5h294.967v497h-294.967z" fill="#f1f4f6"/></g><g><path d="m383.28 7.5h20.203v497h-20.203z" fill="#dfeaef"/></g><g><path d="m142.862 41.846h32.325v60.61h-32.325z" fill="#bed8fb"/></g><g><path d="m207.512 41.846h32.325v60.61h-32.325z" fill="#bed8fb"/></g><g><path d="m272.163 41.846h32.325v60.61h-32.325z" fill="#bed8fb"/></g><g><path d="m336.813 41.846h32.325v60.61h-32.325z" fill="#bed8fb"/></g><g><path d="m142.862 134.78h32.325v60.61h-32.325z" fill="#bed8fb"/></g><g><path d="m207.512 134.78h32.325v60.61h-32.325z" fill="#bed8fb"/></g><g><path d="m272.163 134.78h32.325v60.61h-32.325z" fill="#bed8fb"/></g><g><path d="m336.813 134.78h32.325v60.61h-32.325z" fill="#bed8fb"/></g><g><path d="m142.862 227.715h32.325v60.61h-32.325z" fill="#bed8fb"/></g><g><path d="m207.512 227.715h32.325v60.61h-32.325z" fill="#bed8fb"/></g><g><path d="m272.163 227.715h32.325v60.61h-32.325z" fill="#bed8fb"/></g><g><path d="m336.813 227.715h32.325v60.61h-32.325z" fill="#bed8fb"/></g><g><path d="m142.862 320.65h32.325v60.61h-32.325z" fill="#bed8fb"/></g><g><path d="m207.512 320.65h32.325v60.61h-32.325z" fill="#bed8fb"/></g><g><path d="m272.163 320.65h32.325v60.61h-32.325z" fill="#bed8fb"/></g><g><path d="m336.813 320.65h32.325v60.61h-32.325z" fill="#bed8fb"/></g><g><path d="m320.65 413.585h48.488v60.61h-48.488z" fill="#bed8fb"/></g><g><path d="m142.862 413.585h48.488v60.61h-48.488z" fill="#bed8fb"/></g><g><path d="m223.675 413.585h64.65v90.915h-64.65z" fill="#665e66"/></g></g><g><g><circle cx="473.185" cy="323.681" fill="#ffe07d" r="31.315"/></g><g><path d="m485.01 294.683c1.49 3.65 2.317 7.64 2.317 11.825 0 17.295-14.02 31.315-31.315 31.315-4.185 0-8.176-.827-11.825-2.317 4.667 11.431 15.888 19.49 28.998 19.49 17.295 0 31.315-14.02 31.315-31.315 0-13.11-8.059-24.331-19.49-28.998z" fill="#ffd064"/></g></g><g><g><circle cx="38.815" cy="323.681" fill="#ffe07d" r="31.315"/></g><g><path d="m50.64 294.683c1.49 3.65 2.317 7.64 2.317 11.825 0 17.295-14.02 31.315-31.315 31.315-4.185 0-8.176-.827-11.825-2.317 4.667 11.431 15.888 19.49 28.998 19.49 17.295 0 31.315-14.02 31.315-31.315 0-13.11-8.059-24.331-19.49-28.998z" fill="#ffd064"/></g></g><g><path d="m142.861 109.955h32.325c4.143 0 7.5-3.357 7.5-7.5v-60.609c0-4.143-3.357-7.5-7.5-7.5h-32.325c-4.143 0-7.5 3.357-7.5 7.5v60.609c0 4.143 3.358 7.5 7.5 7.5zm7.5-60.609h17.325v45.609h-17.325z"/><path d="m247.337 41.846c0-4.143-3.357-7.5-7.5-7.5h-32.325c-4.143 0-7.5 3.357-7.5 7.5v60.609c0 4.143 3.357 7.5 7.5 7.5h32.325c4.143 0 7.5-3.357 7.5-7.5zm-15 53.109h-17.325v-45.609h17.325z"/><path d="m311.988 41.846c0-4.143-3.357-7.5-7.5-7.5h-32.325c-4.143 0-7.5 3.357-7.5 7.5v60.609c0 4.143 3.357 7.5 7.5 7.5h32.325c4.143 0 7.5-3.357 7.5-7.5zm-15 53.109h-17.325v-45.609h17.325z"/><path d="m376.639 41.846c0-4.143-3.357-7.5-7.5-7.5h-32.325c-4.143 0-7.5 3.357-7.5 7.5v60.609c0 4.143 3.357 7.5 7.5 7.5h32.325c4.143 0 7.5-3.357 7.5-7.5zm-15 53.109h-17.325v-45.609h17.325z"/><path d="m135.361 195.391c0 4.143 3.357 7.5 7.5 7.5h32.325c4.143 0 7.5-3.357 7.5-7.5v-60.61c0-4.143-3.357-7.5-7.5-7.5h-32.325c-4.143 0-7.5 3.357-7.5 7.5zm15-53.111h17.325v45.61h-17.325z"/><path d="m247.337 134.78c0-4.143-3.357-7.5-7.5-7.5h-32.325c-4.143 0-7.5 3.357-7.5 7.5v60.61c0 4.143 3.357 7.5 7.5 7.5h32.325c4.143 0 7.5-3.357 7.5-7.5zm-15 53.111h-17.325v-45.61h17.325z"/><path d="m311.988 134.78c0-4.143-3.357-7.5-7.5-7.5h-32.325c-4.143 0-7.5 3.357-7.5 7.5v60.61c0 4.143 3.357 7.5 7.5 7.5h32.325c4.143 0 7.5-3.357 7.5-7.5zm-15 53.111h-17.325v-45.61h17.325z"/><path d="m376.639 134.78c0-4.143-3.357-7.5-7.5-7.5h-32.325c-4.143 0-7.5 3.357-7.5 7.5v60.61c0 4.143 3.357 7.5 7.5 7.5h32.325c4.143 0 7.5-3.357 7.5-7.5zm-15 53.111h-17.325v-45.61h17.325z"/><path d="m135.361 288.325c0 4.143 3.357 7.5 7.5 7.5h32.325c4.143 0 7.5-3.357 7.5-7.5v-60.609c0-4.143-3.357-7.5-7.5-7.5h-32.325c-4.143 0-7.5 3.357-7.5 7.5zm15-53.109h17.325v45.609h-17.325z"/><path d="m247.337 227.716c0-4.143-3.357-7.5-7.5-7.5h-32.325c-4.143 0-7.5 3.357-7.5 7.5v60.609c0 4.143 3.357 7.5 7.5 7.5h32.325c4.143 0 7.5-3.357 7.5-7.5zm-15 53.109h-17.325v-45.609h17.325z"/><path d="m311.988 227.716c0-4.143-3.357-7.5-7.5-7.5h-32.325c-4.143 0-7.5 3.357-7.5 7.5v60.609c0 4.143 3.357 7.5 7.5 7.5h32.325c4.143 0 7.5-3.357 7.5-7.5zm-15 53.109h-17.325v-45.609h17.325z"/><path d="m376.639 227.716c0-4.143-3.357-7.5-7.5-7.5h-32.325c-4.143 0-7.5 3.357-7.5 7.5v60.609c0 4.143 3.357 7.5 7.5 7.5h32.325c4.143 0 7.5-3.357 7.5-7.5zm-15 53.109h-17.325v-45.609h17.325z"/><path d="m135.361 381.26c0 4.143 3.357 7.5 7.5 7.5h32.325c4.143 0 7.5-3.357 7.5-7.5v-60.61c0-4.143-3.357-7.5-7.5-7.5h-32.325c-4.143 0-7.5 3.357-7.5 7.5zm15-53.11h17.325v45.609h-17.325z"/><path d="m239.837 313.15h-32.325c-4.143 0-7.5 3.357-7.5 7.5v60.609c0 4.143 3.357 7.5 7.5 7.5h32.325c4.143 0 7.5-3.357 7.5-7.5v-60.609c0-4.142-3.358-7.5-7.5-7.5zm-7.5 60.61h-17.325v-45.61h17.325z"/><path d="m304.488 313.15h-32.325c-4.143 0-7.5 3.357-7.5 7.5v60.609c0 4.143 3.357 7.5 7.5 7.5h32.325c4.143 0 7.5-3.357 7.5-7.5v-60.609c0-4.142-3.357-7.5-7.5-7.5zm-7.5 60.61h-17.325v-45.61h17.325z"/><path d="m376.639 320.65c0-4.143-3.357-7.5-7.5-7.5h-32.325c-4.143 0-7.5 3.357-7.5 7.5v60.609c0 4.143 3.357 7.5 7.5 7.5h32.325c4.143 0 7.5-3.357 7.5-7.5zm-15 53.11h-17.325v-45.61h17.325z"/><path d="m369.139 406.085h-48.489c-4.143 0-7.5 3.357-7.5 7.5v60.61c0 4.143 3.357 7.5 7.5 7.5h48.488c4.143 0 7.5-3.357 7.5-7.5v-60.61c.001-4.143-3.357-7.5-7.499-7.5zm-7.5 60.61h-33.489v-45.61h33.488v45.61z"/><path d="m135.361 474.195c0 4.143 3.357 7.5 7.5 7.5h48.488c4.143 0 7.5-3.357 7.5-7.5v-60.61c0-4.143-3.357-7.5-7.5-7.5h-48.488c-4.143 0-7.5 3.357-7.5 7.5zm15-53.11h33.488v45.61h-33.488z"/><path d="m108.517 289.714c4.143 0 7.5-3.357 7.5-7.5v-267.214h279.967v66.832c0 4.143 3.357 7.5 7.5 7.5s7.5-3.357 7.5-7.5v-74.332c0-4.143-3.357-7.5-7.5-7.5h-294.967c-4.143 0-7.5 3.357-7.5 7.5v274.714c0 4.142 3.357 7.5 7.5 7.5z"/><path d="m503.065 348.426c5.577-6.723 8.935-15.349 8.935-24.745 0-21.402-17.412-38.814-38.815-38.814-21.402 0-38.814 17.412-38.814 38.814 0 9.397 3.358 18.023 8.935 24.746-2.315 1.277-3.884 3.739-3.884 6.57 0 4.143 3.357 7.5 7.5 7.5h18.764v134.503h-12.703c-4.143 0-7.5 3.357-7.5 7.5s3.357 7.5 7.5 7.5h40.407c4.143 0 7.5-3.357 7.5-7.5s-3.357-7.5-7.5-7.5h-12.704v-134.504h18.765c4.143 0 7.5-3.357 7.5-7.5-.002-2.831-1.571-5.293-3.886-6.57zm-29.88-48.56c13.132 0 23.815 10.684 23.815 23.814 0 13.132-10.684 23.815-23.815 23.815s-23.814-10.684-23.814-23.815c-.001-13.13 10.683-23.814 23.814-23.814z"/><path d="m38.815 284.866c-21.403 0-38.815 17.412-38.815 38.815 0 9.397 3.358 18.023 8.935 24.745-2.315 1.277-3.884 3.739-3.884 6.57 0 4.143 3.357 7.5 7.5 7.5h18.765v134.504h-12.705c-4.143 0-7.5 3.357-7.5 7.5s3.357 7.5 7.5 7.5h40.407c4.143 0 7.5-3.357 7.5-7.5s-3.357-7.5-7.5-7.5h-12.703v-134.504h18.764c4.143 0 7.5-3.357 7.5-7.5 0-2.831-1.569-5.293-3.884-6.57 5.577-6.723 8.935-15.349 8.935-24.746 0-21.402-17.412-38.814-38.815-38.814zm0 15c13.131 0 23.814 10.684 23.814 23.814 0 13.132-10.684 23.815-23.814 23.815-13.131.001-23.815-10.682-23.815-23.814 0-13.131 10.684-23.815 23.815-23.815z"/><path d="m420.656 497h-9.673v-380.107c0-4.143-3.357-7.5-7.5-7.5s-7.5 3.357-7.5 7.5v380.107h-100.158v-83.415c0-4.143-3.357-7.5-7.5-7.5h-64.65c-4.143 0-7.5 3.357-7.5 7.5v83.415h-100.158v-179.696c0-4.143-3.357-7.5-7.5-7.5s-7.5 3.357-7.5 7.5v179.696h-9.673c-4.143 0-7.5 3.357-7.5 7.5s3.357 7.5 7.5 7.5h329.313c4.143 0 7.5-3.357 7.5-7.5s-3.358-7.5-7.501-7.5zm-139.831 0h-17.325v-75.915h17.325zm-49.65-75.915h17.325v75.915h-17.325z"/></g></g></svg>