<svg id="Capa_1" enable-background="new 0 0 512 512" height="512" viewBox="0 0 512 512" width="512" xmlns="http://www.w3.org/2000/svg"><g><g><path d="m43.869 7.5h351.537v497h-351.537z" fill="#f6f9f9"/></g><g><path d="m373.182 7.5h22.224v497h-22.224z" fill="#f1f4f6"/></g><g><path d="m203.474-22.805h32.325v161.626h-32.325z" fill="#9bd069" transform="matrix(0 1 -1 0 277.645 -161.629)"/></g><g><g><path d="m319.516 294.114h70.711v32.325h-70.711z" fill="#ffe07d" transform="matrix(.866 .5 -.5 .866 202.682 -135.867)"/></g><g><path d="m361.437 169.985h70.711v135.362h-70.711z" fill="#665e66" transform="matrix(.866 .5 -.5 .866 171.993 -166.555)"/></g><g><path d="m463.084 151.13-24.495-14.142c-4.832-2.789-11.01-1.134-13.799 3.697l-15.152 26.245 41.992 24.244 15.152-26.245c2.789-4.831 1.134-11.009-3.698-13.799z" fill="#dfeaef"/></g><g><path d="m316.171 306.596-70.711 122.475c-3.786 6.558-5.654 14.049-5.389 21.617l.928 26.515 26.245 15.152 23.427-12.453c6.687-3.555 12.24-8.917 16.027-15.475l70.711-122.476z" fill="#665e66"/></g><g><path d="m359.705 311.286h32.325v22.224h-32.325z" fill="#ffd064" transform="matrix(.5 -.866 .866 .5 -91.271 486.71)"/></g><g><path d="m350.108 238.676h135.362v22.224h-135.362z" fill="#544f57" transform="matrix(.5 -.866 .866 .5 -7.428 486.71)"/></g><g><path d="m358.163 330.839-70.711 122.476c-3.786 6.558-9.34 11.921-16.027 15.475l-23.427 12.453 19.246 11.112 23.427-12.453c6.687-3.555 12.24-8.917 16.027-15.475l70.711-122.476s-10.951-6.322-19.246-11.112z" fill="#544f57"/></g></g><g><path d="m300.45 34.346h-161.626c-4.142 0-7.5 3.357-7.5 7.5v32.325c0 4.143 3.358 7.5 7.5 7.5h161.626c4.142 0 7.5-3.357 7.5-7.5v-32.325c0-4.143-3.358-7.5-7.5-7.5zm-7.5 32.325h-146.626v-17.325h146.626z"/><path d="m149.936 288.906c-4.142 0-7.5 3.357-7.5 7.5s3.358 7.5 7.5 7.5h78.792c4.142 0 7.5-3.357 7.5-7.5s-3.358-7.5-7.5-7.5z"/><path d="m78.214 303.906h39.396c4.142 0 7.5-3.357 7.5-7.5s-3.358-7.5-7.5-7.5h-39.396c-4.142 0-7.5 3.357-7.5 7.5s3.358 7.5 7.5 7.5z"/><path d="m123.135 372.299c-.346.043-.851-.004-1.297-.448-3.579-3.578-8.511-5.311-13.544-4.754-5.03.558-9.467 3.329-12.175 7.604l-13.129 20.73c-2.216 3.499-1.176 8.133 2.324 10.349 3.5 2.22 8.133 1.175 10.349-2.323l13.128-20.729c.334-.527.813-.684 1.155-.722.346-.033.844.011 1.286.452 3.615 3.614 8.6 5.343 13.675 4.737 5.077-.604 9.517-3.452 12.183-7.814l7.401-12.111c.325-.533.799-.8 1.429-.749.624.034 1.073.339 1.337.904l21.136 45.293c1.035 2.217 3.085 3.79 5.495 4.215.434.076.869.113 1.302.113 1.971 0 3.884-.778 5.303-2.196l19.698-19.698c2.929-2.93 2.929-7.678 0-10.607-2.929-2.928-7.678-2.928-10.606 0l-12.127 12.127-16.608-35.59c-2.586-5.541-7.986-9.195-14.091-9.537-6.115-.338-11.879 2.688-15.067 7.904l-7.401 12.11c-.329.537-.811.699-1.156.74z"/><path d="m276.635 264.081c0-4.143-3.358-7.5-7.5-7.5h-119.199c-4.142 0-7.5 3.357-7.5 7.5s3.358 7.5 7.5 7.5h119.199c4.142 0 7.5-3.357 7.5-7.5z"/><path d="m78.214 271.581h39.396c4.142 0 7.5-3.357 7.5-7.5s-3.358-7.5-7.5-7.5h-39.396c-4.142 0-7.5 3.357-7.5 7.5s3.358 7.5 7.5 7.5z"/><path d="m78.214 239.256h39.396c4.142 0 7.5-3.357 7.5-7.5s-3.358-7.5-7.5-7.5h-39.396c-4.142 0-7.5 3.357-7.5 7.5s3.358 7.5 7.5 7.5z"/><path d="m149.936 191.931c-4.142 0-7.5 3.357-7.5 7.5s3.358 7.5 7.5 7.5h119.199c4.142 0 7.5-3.357 7.5-7.5s-3.358-7.5-7.5-7.5z"/><path d="m78.214 206.931h39.396c4.142 0 7.5-3.357 7.5-7.5s-3.358-7.5-7.5-7.5h-39.396c-4.142 0-7.5 3.357-7.5 7.5s3.358 7.5 7.5 7.5z"/><path d="m368.56 167.105c0-4.143-3.358-7.5-7.5-7.5h-211.124c-4.142 0-7.5 3.357-7.5 7.5s3.358 7.5 7.5 7.5h211.124c4.142 0 7.5-3.357 7.5-7.5z"/><path d="m78.214 174.605h39.396c4.142 0 7.5-3.357 7.5-7.5s-3.358-7.5-7.5-7.5h-39.396c-4.142 0-7.5 3.357-7.5 7.5s3.358 7.5 7.5 7.5z"/><path d="m361.06 127.28h-211.124c-4.142 0-7.5 3.357-7.5 7.5s3.358 7.5 7.5 7.5h211.124c4.142 0 7.5-3.357 7.5-7.5s-3.358-7.5-7.5-7.5z"/><path d="m78.214 142.28h39.396c4.142 0 7.5-3.357 7.5-7.5s-3.358-7.5-7.5-7.5h-39.396c-4.142 0-7.5 3.357-7.5 7.5s3.358 7.5 7.5 7.5z"/><path d="m466.834 144.635-24.495-14.142c-4.072-2.353-8.816-2.977-13.357-1.759-4.541 1.217-8.337 4.129-10.688 8.201l-11.403 19.75-3.128-1.806c-.278-.16-.567-.295-.859-.418v-146.961c0-4.143-3.358-7.5-7.5-7.5h-351.535c-4.142 0-7.5 3.357-7.5 7.5v45.073c0 4.143 3.358 7.5 7.5 7.5s7.5-3.357 7.5-7.5v-37.573h336.537v152.105c0 .075.009.148.011.223l-32.867 56.927h-205.114c-4.142 0-7.5 3.357-7.5 7.5s3.358 7.5 7.5 7.5h196.453l-107.424 186.066c-4.495 7.784-6.704 16.647-6.389 25.63l.925 26.434.198 19.615h-182.33v-409.393c0-4.143-3.358-7.5-7.5-7.5s-7.5 3.357-7.5 7.5v416.893c0 4.143 3.358 7.5 7.5 7.5h351.537c4.142 0 7.5-3.357 7.5-7.5v-73.286c0-4.143-3.358-7.5-7.5-7.5s-7.5 3.357-7.5 7.5v65.786h-113.42l19.706-10.476c7.937-4.219 14.507-10.563 19.001-18.348l74.728-129.432.035 57.406c.002 4.141 3.36 7.495 7.5 7.495h.004c4.142-.003 7.498-3.362 7.496-7.505l-.049-83.353 64.841-112.308c2.071-3.587.842-8.174-2.745-10.245l-3.128-1.806 11.404-19.75c4.85-8.404 1.96-19.19-6.445-24.043zm-92.17 187.071-48.248-27.856 8.662-15.004 48.248 27.856zm-74.461 128.971c-3.087 5.347-7.601 9.705-13.052 12.604l-19.756 10.502-19.045-10.996-.783-22.36c-.216-6.17 1.301-12.258 4.388-17.604l66.961-115.981 48.248 27.856zm90.623-156.965-48.248-27.856 60.181-104.237 3.118 1.8c.003.002.006.004.01.006s.007.003.01.005l45.109 26.044zm29.057-139.527 11.403-19.75c.469-.813 1.191-1.108 1.58-1.213.39-.103 1.162-.208 1.974.261l24.495 14.142c1.243.718 1.67 2.313.953 3.555l-11.403 19.75z"/></g></g></svg>