<svg id="Capa_1" enable-background="new 0 0 512 512" height="512" viewBox="0 0 512 512" width="512" xmlns="http://www.w3.org/2000/svg"><g><g><path d="m49.927 114.577h412.146v282.846h-412.146z" fill="#cbe2ff" transform="matrix(0 1 -1 0 512 0)"/></g><g><path d="m369.138 49.927h28.285v412.146h-28.285z" fill="#bed8fb"/></g><g><path d="m114.577 484.297c0 11.158 9.045 20.203 20.203 20.203h242.44c11.158 0 20.203-9.045 20.203-20.203v-22.224h-282.846z" fill="#665e66"/></g><g><path d="m369.138 462.073v22.224c0 11.158-9.045 20.203-20.203 20.203h28.285c11.158 0 20.203-9.045 20.203-20.203v-22.224z" fill="#544f57"/></g><g><g><path d="m277.213 243.878 52.028 17.123c16.574 5.455 27.775 20.933 27.775 38.381v35.41h-202.032v-35.41c0-17.449 11.201-32.926 27.775-38.381l52.028-17.123z" fill="#e28086"/></g><g><path d="m329.242 261.001-2.53-.833v74.624h30.305v-35.41c-.001-17.448-11.201-32.926-27.775-38.381z" fill="#dd636e"/></g><g><path d="m256 265.091c-11.716 0-21.213-9.498-21.213-21.213v-17.173h42.427v17.173c-.001 11.716-9.498 21.213-21.214 21.213z" fill="#f1b986"/></g><g><path d="m304.488 159.024c0-26.779-21.709-48.488-48.488-48.488s-48.488 21.709-48.488 48.488v24.244c0 26.779 21.709 48.488 48.488 48.488s48.488-21.709 48.488-48.488z" fill="#f1d0a5"/></g><g><path d="m256 110.537c-3.825 0-7.542.457-11.112 1.294 21.421 5.025 37.376 24.24 37.376 47.193v24.244c0 22.954-15.955 42.168-37.376 47.193 3.57.837 7.286 1.294 11.112 1.294 26.779 0 48.488-21.709 48.488-48.488v-24.244c0-26.778-21.709-48.486-48.488-48.486z" fill="#f1b986"/></g></g><g><path d="m377.22 7.5h-242.44c-11.158 0-20.203 9.045-20.203 20.203v22.224h80.813l10.102 22.224h101.016l10.102-22.224h80.813v-22.224c0-11.158-9.046-20.203-20.203-20.203z" fill="#665e66"/></g><g><path d="m377.22 7.5h-28.285c11.158 0 20.203 9.045 20.203 20.203v22.224h28.285v-22.224c0-11.158-9.046-20.203-20.203-20.203z" fill="#544f57"/></g><g><path d="m205.492 375.199h101.016v40.407h-101.016z" fill="#9bd069"/></g><g><path d="m397.423 139.25c-4.143 0-7.5 3.357-7.5 7.5v307.823h-267.846v-42.287c0-4.143-3.358-7.5-7.5-7.5s-7.5 3.357-7.5 7.5v72.011c0 15.275 12.428 27.703 27.703 27.703h242.44c15.275 0 27.703-12.428 27.703-27.703v-337.547c0-4.143-3.358-7.5-7.5-7.5zm-7.5 345.047c0 7.005-5.698 12.703-12.703 12.703h-242.44c-7.004 0-12.703-5.698-12.703-12.703v-14.724h267.846z"/><path d="m180.414 253.877c-19.696 6.482-32.93 24.77-32.93 45.506v35.41c0 4.143 3.358 7.5 7.5 7.5h83.382c4.142 0 7.5-3.357 7.5-7.5s-3.358-7.5-7.5-7.5h-33.456v-12.703c0-4.143-3.358-7.5-7.5-7.5s-7.5 3.357-7.5 7.5v12.703h-27.427v-27.91c0-14.243 9.09-26.805 22.619-31.258l43.906-14.45c4.014 11.023 14.597 18.917 26.99 18.917 12.394 0 22.977-7.894 26.991-18.917l43.906 14.45c13.529 4.453 22.62 17.015 22.62 31.258v27.91h-27.425v-12.703c0-4.143-3.357-7.5-7.5-7.5s-7.5 3.357-7.5 7.5v12.703h-33.527c-4.143 0-7.5 3.357-7.5 7.5s3.357 7.5 7.5 7.5h83.454c4.143 0 7.5-3.357 7.5-7.5v-35.41c0-20.735-13.233-39.023-32.931-45.506l-46.872-15.426v-7.141c16.323-9.793 27.274-27.66 27.274-48.041v-24.244c0-30.872-25.116-55.988-55.988-55.988s-55.988 25.116-55.988 55.988v24.244c0 20.381 10.951 38.248 27.274 48.041v7.141zm34.598-70.608v-24.244c0-22.601 18.387-40.988 40.988-40.988s40.988 18.388 40.988 40.988v24.244c0 22.601-18.388 40.987-40.988 40.987s-40.988-18.387-40.988-40.987zm40.988 55.987c4.73 0 9.323-.595 13.714-1.705v6.192.044.091c0 7.562-6.152 13.714-13.714 13.714s-13.713-6.152-13.713-13.714v-.091c0-.015 0-.03 0-.044v-6.192c4.39 1.11 8.983 1.705 13.713 1.705z"/><path d="m377.22 0h-242.44c-15.275 0-27.703 12.428-27.703 27.703v349.561c0 4.143 3.358 7.5 7.5 7.5s7.5-3.357 7.5-7.5v-319.837h68.483l8.104 17.827c1.217 2.678 3.887 4.396 6.828 4.396h101.016c2.941 0 5.61-1.719 6.828-4.396l8.103-17.827h68.484v54.282c0 4.143 3.357 7.5 7.5 7.5s7.5-3.357 7.5-7.5v-84.006c0-15.275-12.428-27.703-27.703-27.703zm-60.611 42.427c-2.941 0-5.61 1.719-6.828 4.396l-8.103 17.827h-91.357l-8.104-17.827c-1.217-2.678-3.887-4.396-6.828-4.396h-73.313v-14.724c0-7.005 5.699-12.703 12.703-12.703h242.441c7.005 0 12.703 5.698 12.703 12.703v14.724z"/><path d="m205.492 367.699c-4.142 0-7.5 3.357-7.5 7.5v40.406c0 4.143 3.358 7.5 7.5 7.5h101.016c4.143 0 7.5-3.357 7.5-7.5v-40.406c0-4.143-3.357-7.5-7.5-7.5zm93.516 40.406h-86.016v-25.406h86.016z"/></g></g></svg>