<svg id="Capa_1" enable-background="new 0 0 512 512" height="512" viewBox="0 0 512 512" width="512" xmlns="http://www.w3.org/2000/svg"><g><g><g><path d="m239.837 261.051h32.325v46.467h-32.325z" fill="#454545"/></g></g><g><path d="m7.5 228.726h497v32.325h-497z" fill="#665e66"/></g><g><path d="m480.256 228.726h24.244v32.325h-24.244z" fill="#544f57"/></g><g><path d="m363.077 196.4h121.219v32.325h-121.219z" fill="#dfeaef"/></g><g><path d="m27.703 196.4h121.219v32.325h-121.219z" fill="#dfeaef" transform="matrix(-1 0 0 -1 176.626 425.126)"/></g><g><path d="m346.915 448.941h-181.83l30.305-141.423h121.22z" fill="#ffe07d"/></g><g><path d="m316.61 307.518h-25.254l30.305 141.423h25.254z" fill="#ffd064"/></g><g><circle cx="256" cy="378.23" fill="#f1f4f6" r="30.305"/></g><g><g><circle cx="88.313" cy="113.567" fill="#9bd069" r="50.508"/></g></g><g><g><circle cx="423.687" cy="113.567" fill="#e28086" r="50.508"/></g></g><g><path d="m183.839 84.57 24.243 15.153c1.214.759 2.594 1.141 3.976 1.141 1.251 0 2.503-.313 3.636-.94 2.385-1.321 3.864-3.833 3.864-6.56v-7.652h104.628c4.143 0 7.5-3.357 7.5-7.5s-3.357-7.5-7.5-7.5h-104.628v-7.653c0-2.727-1.479-5.238-3.864-6.56-2.383-1.321-5.299-1.244-7.61.199l-24.244 15.153c-2.193 1.371-3.525 3.774-3.525 6.36s1.331 4.989 3.524 6.359z"/><path d="m504.5 221.226h-12.703v-24.826c0-4.143-3.357-7.5-7.5-7.5h-121.22c-4.143 0-7.5 3.357-7.5 7.5v24.825h-199.154v-24.825c0-4.143-3.357-7.5-7.5-7.5h-121.22c-4.143 0-7.5 3.357-7.5 7.5v24.825h-12.703c-4.143 0-7.5 3.357-7.5 7.5v32.325c0 4.143 3.357 7.5 7.5 7.5h224.838v31.468h-36.947c-3.536 0-6.593 2.471-7.334 5.929l-30.306 141.423c-.474 2.215.077 4.525 1.502 6.286 1.424 1.762 3.567 2.785 5.832 2.785h15.79c4.143 0 7.5-3.357 7.5-7.5s-3.357-7.5-7.5-7.5h-6.513l27.092-126.423h109.092l27.092 126.423h-121.674c-4.143 0-7.5 3.357-7.5 7.5s3.357 7.5 7.5 7.5h130.951c2.265 0 4.408-1.023 5.832-2.785 1.425-1.761 1.976-4.071 1.502-6.286l-30.306-141.423c-.741-3.458-3.798-5.929-7.334-5.929h-36.947v-31.468h146.624c4.143 0 7.5-3.357 7.5-7.5s-3.357-7.5-7.5-7.5h-411.286v-17.325h82.705c4.143 0 7.5-3.357 7.5-7.5s-3.357-7.5-7.5-7.5h-62.502v-17.325h106.22v17.325h-8.44c-4.143 0-7.5 3.357-7.5 7.5s3.357 7.5 7.5 7.5h230.095 121.22 12.702v17.325h-35.651c-4.143 0-7.5 3.357-7.5 7.5s3.357 7.5 7.5 7.5h43.151c4.143 0 7.5-3.357 7.5-7.5v-32.325c0-4.142-3.357-7.499-7.5-7.499zm-239.838 78.793h-17.324v-31.468h17.324zm105.915-78.793v-17.326h106.22v17.325h-106.22z"/><path d="m293.805 378.229c0-20.846-16.959-37.805-37.805-37.805s-37.805 16.959-37.805 37.805 16.959 37.805 37.805 37.805 37.805-16.959 37.805-37.805zm-60.61 0c0-12.574 10.23-22.805 22.805-22.805s22.805 10.23 22.805 22.805-10.23 22.805-22.805 22.805-22.805-10.23-22.805-22.805z"/><path d="m88.313 171.575c31.985 0 58.008-26.022 58.008-58.008s-26.022-58.009-58.008-58.009-58.009 26.022-58.009 58.009c.001 31.986 26.023 58.008 58.009 58.008zm0-101.016c23.715 0 43.008 19.294 43.008 43.009s-19.293 43.008-43.008 43.008-43.009-19.293-43.009-43.008 19.295-43.009 43.009-43.009z"/><path d="m70.13 121.067h10.684v10.683c0 4.143 3.357 7.5 7.5 7.5s7.5-3.357 7.5-7.5v-10.683h10.683c4.143 0 7.5-3.357 7.5-7.5s-3.357-7.5-7.5-7.5h-10.684v-10.683c0-4.143-3.357-7.5-7.5-7.5s-7.5 3.357-7.5 7.5v10.684h-10.683c-4.143 0-7.5 3.357-7.5 7.5s3.357 7.499 7.5 7.499z"/><path d="m423.687 171.575c31.986 0 58.009-26.022 58.009-58.008s-26.022-58.009-58.009-58.009c-31.985 0-58.008 26.022-58.008 58.009 0 31.986 26.022 58.008 58.008 58.008zm0-101.016c23.715 0 43.009 19.294 43.009 43.009s-19.294 43.008-43.009 43.008-43.008-19.293-43.008-43.008 19.293-43.009 43.008-43.009z"/><path d="m405.504 121.067h36.366c4.143 0 7.5-3.357 7.5-7.5s-3.357-7.5-7.5-7.5h-36.366c-4.143 0-7.5 3.357-7.5 7.5s3.357 7.5 7.5 7.5z"/><path d="m187.814 156.423h104.628v7.652c0 2.727 1.479 5.238 3.864 6.56 1.133.628 2.385.94 3.636.94 1.382 0 2.762-.382 3.975-1.14l24.243-15.152c2.193-1.371 3.525-3.774 3.525-6.36s-1.332-4.989-3.525-6.36l-24.243-15.152c-2.313-1.444-5.226-1.521-7.61-.199s-3.864 3.833-3.864 6.56v7.652h-104.629c-4.143 0-7.5 3.357-7.5 7.5s3.358 7.499 7.5 7.499z"/></g></g></svg>