<svg id="Capa_1" enable-background="new 0 0 512 512" height="512" viewBox="0 0 512 512" width="512" xmlns="http://www.w3.org/2000/svg"><g><g><path d="m425.707 371.159h32.325v133.341h-32.325z" fill="#665e66"/></g><g><path d="m425.707 371.159h32.325v24.244h-32.325z" fill="#544f57"/></g><g><path d="m53.967 371.159h32.325v133.341h-32.325z" fill="#665e66"/></g><g><path d="m53.967 371.159h32.325v24.244h-32.325z" fill="#544f57"/></g><g><path d="m7.5 7.5h497v363.659h-497z" fill="#dfeaef"/></g><g><path d="m482.204 7.5v331.261c0 5.579-4.523 10.102-10.102 10.102h-464.602v22.296h497v-363.659z" fill="#d0e2e7"/></g><g><path d="m106.496-26.846h299.008v432.35h-299.008z" fill="#f6f9f9" transform="matrix(0 1 -1 0 445.329 -66.671)"/></g><g><g><path d="m158.014 47.907h32.325v80.813h-32.325z" fill="#9bd069" transform="matrix(0 1 -1 0 262.49 -85.864)"/></g></g><g><g><path d="m158.014 112.557h32.325v80.813h-32.325z" fill="#9bd069" transform="matrix(0 1 -1 0 327.14 -21.213)"/></g></g><g><g><path d="m158.014 177.207h32.325v80.813h-32.325z" fill="#9bd069" transform="matrix(0 1 -1 0 391.791 43.437)"/></g></g><g><path d="m142.862 218.624h32.325v143.443h-32.325z" fill="#e28086" transform="matrix(0 1 -1 0 449.37 131.321)"/></g><g><path d="m504.5 0h-44.444c-4.143 0-7.5 3.357-7.5 7.5s3.357 7.5 7.5 7.5h36.944v348.658h-243.651c-4.143 0-7.5 3.357-7.5 7.5s3.357 7.5 7.5 7.5h164.858v125.842c0 4.143 3.357 7.5 7.5 7.5s7.5-3.357 7.5-7.5v-125.842h17.325v125.842c0 4.143 3.357 7.5 7.5 7.5s7.5-3.357 7.5-7.5v-125.842h38.968c4.143 0 7.5-3.357 7.5-7.5v-363.658c0-4.143-3.357-7.5-7.5-7.5z"/><path d="m218.286 363.658h-203.286v-348.658h410c4.143 0 7.5-3.357 7.5-7.5s-3.357-7.5-7.5-7.5h-417.5c-4.143 0-7.5 3.357-7.5 7.5v363.658c0 4.143 3.357 7.5 7.5 7.5h38.968v125.842c0 4.143 3.357 7.5 7.5 7.5s7.5-3.357 7.5-7.5v-125.842h17.325v125.842c0 4.143 3.357 7.5 7.5 7.5s7.5-3.357 7.5-7.5v-125.842h124.493c4.143 0 7.5-3.357 7.5-7.5s-3.357-7.5-7.5-7.5z"/><path d="m82.857 32.325h-43.032c-4.143 0-7.5 3.357-7.5 7.5v299.008c0 4.143 3.357 7.5 7.5 7.5h432.35c4.143 0 7.5-3.357 7.5-7.5v-299.008c0-4.143-3.357-7.5-7.5-7.5h-354.274c-4.143 0-7.5 3.357-7.5 7.5s3.357 7.5 7.5 7.5h346.773v284.008h-417.349v-284.008h35.532c4.143 0 7.5-3.357 7.5-7.5s-3.357-7.5-7.5-7.5z"/><path d="m133.771 111.976h80.813c4.143 0 7.5-3.357 7.5-7.5v-32.326c0-4.143-3.357-7.5-7.5-7.5h-80.813c-4.143 0-7.5 3.357-7.5 7.5v32.325c0 4.143 3.357 7.501 7.5 7.501zm7.5-32.326h65.813v17.325h-65.813z"/><path d="m126.271 169.126c0 4.143 3.357 7.5 7.5 7.5h80.813c4.143 0 7.5-3.357 7.5-7.5v-32.325c0-4.143-3.357-7.5-7.5-7.5h-80.813c-4.143 0-7.5 3.357-7.5 7.5zm15-24.825h65.813v17.325h-65.813z"/><path d="m126.271 233.776c0 4.143 3.357 7.5 7.5 7.5h80.813c4.143 0 7.5-3.357 7.5-7.5v-32.325c0-4.143-3.357-7.5-7.5-7.5h-80.813c-4.143 0-7.5 3.357-7.5 7.5zm15-24.825h65.813v17.325h-65.813z"/><path d="m336.465 119.387-.066 20.327-64.881 32.821c-3.696 1.87-5.177 6.382-3.307 10.078 1.32 2.61 3.96 4.116 6.698 4.116 1.139 0 2.294-.261 3.38-.81l68.98-34.896c2.516-1.272 4.105-3.849 4.114-6.668l.065-20.067 47.327-21.068 3.2 7.104c1.119 2.486 3.5 4.168 6.217 4.395.208.017.416.025.622.025 2.49 0 4.837-1.24 6.235-3.333l15.883-23.772c1.437-2.15 1.664-4.89.602-7.247-1.062-2.358-3.264-4.002-5.826-4.352l-28.328-3.858c-2.696-.37-5.39.76-7.021 2.943-1.632 2.185-1.949 5.082-.829 7.568l3.085 6.85-51.702 23.015c-2.696 1.203-4.438 3.876-4.448 6.829z"/><path d="m101.445 80.813h-14.142c-4.143 0-7.5 3.357-7.5 7.5s3.357 7.5 7.5 7.5h14.143c4.143 0 7.5-3.357 7.5-7.5s-3.358-7.5-7.501-7.5z"/><path d="m87.303 160.464h14.143c4.143 0 7.5-3.357 7.5-7.5s-3.357-7.5-7.5-7.5h-14.143c-4.143 0-7.5 3.357-7.5 7.5s3.357 7.5 7.5 7.5z"/><path d="m87.303 225.114h14.143c4.143 0 7.5-3.357 7.5-7.5s-3.357-7.5-7.5-7.5h-14.143c-4.143 0-7.5 3.357-7.5 7.5s3.357 7.5 7.5 7.5z"/><path d="m255.571 212.563c0 4.143 3.357 7.5 7.5 7.5h161.626c4.143 0 7.5-3.357 7.5-7.5s-3.357-7.5-7.5-7.5h-161.626c-4.142 0-7.5 3.358-7.5 7.5z"/><path d="m263.071 249.357h110.107c4.143 0 7.5-3.357 7.5-7.5s-3.357-7.5-7.5-7.5h-110.107c-4.143 0-7.5 3.357-7.5 7.5s3.358 7.5 7.5 7.5z"/><path d="m424.697 234.357h-19.193c-4.143 0-7.5 3.357-7.5 7.5s3.357 7.5 7.5 7.5h19.193c4.143 0 7.5-3.357 7.5-7.5s-3.357-7.5-7.5-7.5z"/><path d="m424.697 266.683h-74.752c-4.143 0-7.5 3.357-7.5 7.5s3.357 7.5 7.5 7.5h74.752c4.143 0 7.5-3.357 7.5-7.5s-3.357-7.5-7.5-7.5z"/><path d="m263.071 281.683h54.549c4.143 0 7.5-3.357 7.5-7.5s-3.357-7.5-7.5-7.5h-54.549c-4.143 0-7.5 3.357-7.5 7.5s3.358 7.5 7.5 7.5z"/><path d="m263.071 314.008h120.209c4.143 0 7.5-3.357 7.5-7.5s-3.357-7.5-7.5-7.5h-120.209c-4.143 0-7.5 3.357-7.5 7.5s3.358 7.5 7.5 7.5z"/><path d="m79.803 274.183v32.325c0 4.143 3.357 7.5 7.5 7.5h143.443c4.143 0 7.5-3.357 7.5-7.5v-32.325c0-4.143-3.357-7.5-7.5-7.5h-143.443c-4.143 0-7.5 3.357-7.5 7.5zm15 7.5h128.443v17.325h-128.443z"/></g></g></svg>