<svg id="Capa_1" enable-background="new 0 0 512 512" height="512" viewBox="0 0 512 512" width="512" xmlns="http://www.w3.org/2000/svg"><g><g><path d="m474.195 442.88h-436.39c-16.737 0-30.305-13.568-30.305-30.305v-20.203c0-5.579 4.523-10.102 10.102-10.102h476.797c5.579 0 10.102 4.523 10.102 10.102v20.203c-.001 16.737-13.569 30.305-30.306 30.305z" fill="#665e66"/></g><g><path d="m494.398 382.27h-28.285c5.579 0 10.102 4.523 10.102 10.102v20.203c0 16.737-13.568 30.305-30.305 30.305h28.285c16.737 0 30.305-13.568 30.305-30.305v-20.203c0-5.579-4.523-10.102-10.102-10.102z" fill="#544f57"/></g><g><path d="m482.276 382.27h-452.552v-292.947c0-11.158 9.045-20.203 20.203-20.203h412.146c11.158 0 20.203 9.045 20.203 20.203z" fill="#665e66"/></g><g><path d="m462.073 69.12h-2.02v280.825c0 5.579-4.523 10.102-10.102 10.102h-420.227v22.224h452.553v-292.948c-.001-11.158-9.046-20.203-20.204-20.203z" fill="#544f57"/></g><g><path d="m131.75 31.744h248.5v387.902h-248.5z" fill="#cbe2ff" transform="matrix(0 1 -1 0 481.695 -30.305)"/></g><g><g><g><path d="m296.406 213.573h40.406v92.935h-40.406z" fill="#e28086"/></g><g><path d="m256 253.98h40.406v52.528h-40.406z" fill="#ffe07d"/></g><g><path d="m336.813 183.268h40.406v123.24h-40.406z" fill="#ebb044"/></g><g><path d="m377.219 144.882h40.406v161.626h-40.406z" fill="#9bd069"/></g></g></g><g><path d="m494.398 374.771h-4.622v-285.448c0-15.275-12.428-27.703-27.703-27.703h-327.344c-4.143 0-7.5 3.357-7.5 7.5s3.357 7.5 7.5 7.5h327.344c7.005 0 12.703 5.698 12.703 12.703v285.447h-328.938c-4.143 0-7.5 3.357-7.5 7.5s3.357 7.5 7.5 7.5h348.561c1.435 0 2.602 1.167 2.602 2.602v20.203c0 12.574-10.23 22.805-22.805 22.805h-436.391c-12.575 0-22.805-10.231-22.805-22.805v-20.203c0-1.435 1.167-2.602 2.602-2.602h93.112c4.143 0 7.5-3.357 7.5-7.5s-3.357-7.5-7.5-7.5h-73.49v-285.447c0-7.005 5.698-12.703 12.703-12.703h49.787c4.143 0 7.5-3.357 7.5-7.5s-3.357-7.5-7.5-7.5h-49.787c-15.275 0-27.703 12.428-27.703 27.703v285.447h-4.622c-9.706.001-17.602 7.897-17.602 17.602v20.203c0 20.846 16.959 37.805 37.805 37.805h436.391c20.846 0 37.805-16.959 37.805-37.805v-20.203c-.001-9.705-7.897-17.601-17.603-17.601z"/><path d="m384.179 93.945h-322.13c-4.143 0-7.5 3.357-7.5 7.5v248.5c0 4.143 3.357 7.5 7.5 7.5h387.902c4.143 0 7.5-3.357 7.5-7.5v-248.5c0-4.143-3.357-7.5-7.5-7.5h-30.737c-4.143 0-7.5 3.357-7.5 7.5s3.357 7.5 7.5 7.5h23.237v233.5h-372.902v-233.5h314.63c4.143 0 7.5-3.357 7.5-7.5s-3.358-7.5-7.5-7.5z"/><path d="m165.085 266.683h-70.711c-4.143 0-7.5 3.357-7.5 7.5s3.357 7.5 7.5 7.5h70.711c4.143 0 7.5-3.357 7.5-7.5s-3.357-7.5-7.5-7.5z"/><path d="m165.085 299.008h-70.711c-4.143 0-7.5 3.357-7.5 7.5s3.357 7.5 7.5 7.5h70.711c4.143 0 7.5-3.357 7.5-7.5s-3.357-7.5-7.5-7.5z"/><path d="m94.374 152.382h110.107c4.143 0 7.5-3.357 7.5-7.5s-3.357-7.5-7.5-7.5h-110.107c-4.143 0-7.5 3.357-7.5 7.5s3.357 7.5 7.5 7.5z"/><path d="m256 152.382c4.143 0 7.5-3.357 7.5-7.5s-3.357-7.5-7.5-7.5h-19.193c-4.143 0-7.5 3.357-7.5 7.5s3.357 7.5 7.5 7.5z"/><path d="m263.5 177.207c0-4.143-3.357-7.5-7.5-7.5h-60.609c-4.143 0-7.5 3.357-7.5 7.5s3.357 7.5 7.5 7.5h60.609c4.143 0 7.5-3.357 7.5-7.5z"/><path d="m94.374 184.707h68.691c4.143 0 7.5-3.357 7.5-7.5s-3.357-7.5-7.5-7.5h-68.691c-4.143 0-7.5 3.357-7.5 7.5s3.357 7.5 7.5 7.5z"/><path d="m222.083 209.532c0-4.143-3.357-7.5-7.5-7.5h-120.209c-4.143 0-7.5 3.357-7.5 7.5s3.357 7.5 7.5 7.5h120.209c4.143 0 7.5-3.357 7.5-7.5z"/><path d="m256 314.008h161.626c4.143 0 7.5-3.357 7.5-7.5v-161.626c0-4.143-3.357-7.5-7.5-7.5h-40.406c-4.143 0-7.5 3.357-7.5 7.5v30.887h-32.907c-4.143 0-7.5 3.357-7.5 7.5v22.805h-32.906c-4.143 0-7.5 3.357-7.5 7.5v32.906h-32.907c-4.143 0-7.5 3.357-7.5 7.5v52.528c0 4.142 3.357 7.5 7.5 7.5zm128.72-161.626h25.406v146.626h-25.406zm-40.407 38.387h25.407v108.239h-25.407zm-40.407 30.304h25.406v77.935h-25.406zm-40.406 40.406h25.406v37.528h-25.406z"/></g></g></svg>