<svg id="Capa_1" enable-background="new 0 0 512 512" height="512" viewBox="0 0 512 512" width="512" xmlns="http://www.w3.org/2000/svg"><g><g><g><path d="m424.697 413.585 52.028 17.123c16.574 5.455 27.775 20.933 27.775 38.381v35.41h-202.033v-35.41c0-17.449 11.201-32.926 27.775-38.381l52.028-17.123z" fill="#9bd069"/></g><g><path d="m476.725 430.709-2.53-.833v74.624h30.305v-35.41c0-17.449-11.201-32.927-27.775-38.381z" fill="#7dbe3b"/></g><g><path d="m403.484 434.799c-11.716 0-21.213-9.498-21.213-21.213v-17.173h42.427v17.173c-.001 11.715-9.498 21.213-21.214 21.213z" fill="#f1b986"/></g><g><path d="m451.972 328.732c0-26.779-21.709-48.488-48.488-48.488s-48.488 21.709-48.488 48.488v24.244c0 26.779 21.709 48.488 48.488 48.488s48.488-21.709 48.488-48.488z" fill="#f1d0a5"/></g><g><path d="m403.484 280.244c-3.825 0-7.542.457-11.112 1.294 21.421 5.025 37.376 24.24 37.376 47.193v24.244c0 22.954-15.955 42.168-37.376 47.193 3.57.837 7.286 1.294 11.112 1.294 26.779 0 48.488-21.709 48.488-48.488v-24.244c0-26.777-21.709-48.486-48.488-48.486z" fill="#f1b986"/></g></g><g><g><path d="m129.73 413.585 52.028 17.123c16.574 5.455 27.775 20.933 27.775 38.381v35.41h-202.033v-35.41c0-17.449 11.2-32.926 27.775-38.381l52.028-17.123z" fill="#ffe07d"/></g><g><path d="m181.758 430.709-2.53-.833v74.624h30.305v-35.41c0-17.449-11.201-32.927-27.775-38.381z" fill="#ffd064"/></g><g><path d="m108.516 434.799c-11.716 0-21.213-9.498-21.213-21.213v-17.173h42.427v17.173c0 11.715-9.498 21.213-21.214 21.213z" fill="#aa7a63"/></g><g><path d="m157.004 328.732c0-26.779-21.709-48.488-48.488-48.488s-48.488 21.709-48.488 48.488v24.244c0 26.779 21.709 48.488 48.488 48.488s48.488-21.709 48.488-48.488z" fill="#b78b7a"/></g><g><path d="m108.516 280.244c-3.825 0-7.542.457-11.112 1.294 21.421 5.025 37.376 24.24 37.376 47.193v24.244c0 22.954-15.955 42.168-37.376 47.193 3.57.837 7.286 1.294 11.112 1.294 26.779 0 48.488-21.709 48.488-48.488v-24.244c0-26.777-21.709-48.486-48.488-48.486z" fill="#aa7a63"/></g></g><g><path d="m411.565 7.5h-311.13c-11.158 0-20.203 9.045-20.203 20.203v200.012c0 11.158 9.045 20.203 20.203 20.203h111.118l44.447 58.59 44.447-58.589h111.118c11.158 0 20.203-9.045 20.203-20.203v-200.013c0-11.158-9.045-20.203-20.203-20.203z" fill="#cbe2ff"/></g><g><path d="m411.565 7.5h-25.254c11.158 0 20.203 9.045 20.203 20.203v200.012c0 11.158-9.045 20.203-20.203 20.203h25.254c11.158 0 20.203-9.045 20.203-20.203v-200.012c0-11.158-9.045-20.203-20.203-20.203z" fill="#bed8fb"/></g><g><g><g><path d="m343.884 141.285v-27.151l-26.103-4.279c-1.341-4.632-3.19-9.049-5.482-13.189l15.444-21.5-19.199-19.199-21.5 15.444c-4.14-2.292-8.557-4.141-13.189-5.482l-4.279-26.103h-27.151l-4.279 26.103c-4.632 1.341-9.049 3.19-13.189 5.482l-21.5-15.444-19.199 19.199 15.444 21.5c-2.292 4.14-4.141 8.557-5.482 13.189l-26.103 4.279v27.151l26.103 4.279c1.341 4.632 3.19 9.049 5.482 13.189l-15.444 21.5 19.199 19.199 21.5-15.444c4.14 2.292 8.557 4.141 13.189 5.482l4.279 26.103h27.151l4.279-26.103c4.632-1.341 9.049-3.19 13.189-5.482l21.5 15.444 19.199-19.199-15.444-21.5c2.292-4.14 4.141-8.557 5.482-13.189zm-87.884 8.064c-11.951 0-21.639-9.688-21.639-21.639s9.688-21.64 21.639-21.64 21.639 9.688 21.639 21.639-9.688 21.64-21.639 21.64z" fill="#e28086"/></g></g></g><g><path d="m479.07 423.585-46.873-15.427v-7.141c16.323-9.793 27.274-27.66 27.274-48.042v-24.244c0-30.871-25.116-55.987-55.988-55.987-30.871 0-55.987 25.116-55.987 55.987v24.244c0 20.382 10.951 38.249 27.274 48.042v7.14l-46.873 15.427c-19.696 6.481-32.93 24.769-32.93 45.505v35.41c0 4.143 3.357 7.5 7.5 7.5h106.465c4.143 0 7.5-3.357 7.5-7.5s-3.357-7.5-7.5-7.5h-56.538v-12.703c0-4.143-3.357-7.5-7.5-7.5s-7.5 3.357-7.5 7.5v12.704h-27.427v-27.91c0-14.243 9.09-26.805 22.619-31.257l43.906-14.451c4.014 11.023 14.597 18.917 26.99 18.917 12.394 0 22.977-7.894 26.991-18.917l43.906 14.451c13.531 4.452 22.621 17.014 22.621 31.257v27.91h-27.427v-12.703c0-4.143-3.357-7.5-7.5-7.5s-7.5 3.357-7.5 7.5v12.703h-10.645c-4.143 0-7.5 3.357-7.5 7.5s3.357 7.5 7.5 7.5h60.572c4.143 0 7.5-3.357 7.5-7.5v-35.41c0-20.736-13.233-39.024-32.93-45.505zm-116.574-70.609v-24.244c0-22.601 18.387-40.987 40.987-40.987s40.988 18.387 40.988 40.987v24.244c0 22.601-18.388 40.988-40.988 40.988s-40.987-18.388-40.987-40.988zm40.987 74.323c-7.562 0-13.713-6.152-13.713-13.714v-.091c0-.015 0-.03 0-.044v-6.191c4.39 1.11 8.983 1.705 13.713 1.705s9.323-.595 13.714-1.705v6.191.044.091c0 7.561-6.152 13.714-13.714 13.714z"/><path d="m184.103 423.585-46.873-15.427v-7.14c16.323-9.793 27.274-27.66 27.274-48.042v-24.244c0-30.871-25.116-55.987-55.987-55.987-30.872 0-55.988 25.116-55.988 55.987v24.244c0 20.382 10.951 38.249 27.274 48.042v7.141l-46.873 15.426c-19.697 6.481-32.93 24.769-32.93 45.505v35.41c0 4.143 3.357 7.5 7.5 7.5h60.571c4.143 0 7.5-3.357 7.5-7.5s-3.357-7.5-7.5-7.5h-10.644v-12.703c0-4.143-3.357-7.5-7.5-7.5s-7.5 3.357-7.5 7.5v12.703h-27.427v-27.91c0-14.243 9.09-26.805 22.619-31.257l43.906-14.451c4.014 11.023 14.597 18.917 26.991 18.917 12.393 0 22.976-7.894 26.99-18.917l43.906 14.451c13.529 4.452 22.619 17.014 22.619 31.257v27.91h-27.427v-12.703c0-4.143-3.357-7.5-7.5-7.5s-7.5 3.357-7.5 7.5v12.703h-56.538c-4.143 0-7.5 3.357-7.5 7.5s3.357 7.5 7.5 7.5h106.465c4.143 0 7.5-3.357 7.5-7.5v-35.41c.001-20.736-13.232-39.024-32.928-45.505zm-116.575-70.609v-24.244c0-22.601 18.388-40.987 40.988-40.987s40.987 18.387 40.987 40.987v24.244c0 22.601-18.387 40.988-40.987 40.988s-40.988-18.388-40.988-40.988zm40.989 74.323c-7.562 0-13.714-6.152-13.714-13.714v-.091c0-.015 0-.03 0-.044v-6.191c4.39 1.11 8.983 1.705 13.714 1.705 4.73 0 9.323-.595 13.713-1.705v6.191.044.091c-.001 7.561-6.152 13.714-13.713 13.714z"/><path d="m411.565 255.419c15.275 0 27.703-12.428 27.703-27.703v-200.013c.001-15.275-12.427-27.703-27.703-27.703h-311.13c-15.276 0-27.704 12.428-27.704 27.703v25.904c0 4.143 3.357 7.5 7.5 7.5s7.5-3.357 7.5-7.5v-25.904c0-7.005 5.699-12.703 12.704-12.703h311.131c7.005 0 12.703 5.698 12.703 12.703v200.013c0 7.005-5.698 12.703-12.703 12.703h-111.119c-2.346 0-4.558 1.098-5.976 2.967l-38.471 50.713-38.472-50.713c-1.418-1.869-3.63-2.967-5.976-2.967h-111.117c-7.005 0-12.703-5.698-12.703-12.703v-139.02c0-4.143-3.357-7.5-7.5-7.5s-7.5 3.357-7.5 7.5v139.02c0 15.275 12.428 27.703 27.703 27.703h107.394l42.196 55.622c1.419 1.869 3.63 2.967 5.976 2.967s4.557-1.098 5.976-2.967l42.196-55.622z"/><path d="m256 156.849c16.067 0 29.14-13.072 29.14-29.14s-13.073-29.139-29.14-29.139-29.14 13.071-29.14 29.139 13.073 29.14 29.14 29.14zm0-43.279c7.797 0 14.14 6.343 14.14 14.139 0 7.797-6.343 14.14-14.14 14.14s-14.14-6.343-14.14-14.14c0-7.796 6.343-14.139 14.14-14.139z"/><path d="m166.903 106.732c-3.626.595-6.287 3.728-6.287 7.401v27.151c0 3.674 2.661 6.807 6.287 7.401l21.607 3.542c.724 1.985 1.536 3.941 2.435 5.858l-12.78 17.791c-2.143 2.984-1.81 7.082.789 9.68l19.199 19.198c2.599 2.599 6.696 2.93 9.678.788l17.792-12.78c1.916.898 3.872 1.711 5.858 2.436l3.542 21.607c.595 3.626 3.728 6.287 7.401 6.287h27.15c3.674 0 6.807-2.661 7.401-6.287l3.542-21.607c1.986-.725 3.942-1.537 5.858-2.436l17.792 12.78c2.98 2.143 7.081 1.81 9.678-.788l19.199-19.198c2.599-2.598 2.932-6.695.789-9.68l-12.78-17.791c.898-1.917 1.711-3.873 2.435-5.858l21.607-3.542c3.626-.595 6.287-3.728 6.287-7.401v-27.151c0-3.674-2.661-6.807-6.287-7.401l-21.607-3.542c-.724-1.986-1.536-3.941-2.435-5.858l12.779-17.791c2.144-2.984 1.811-7.082-.788-9.68l-19.199-19.198c-2.598-2.598-6.694-2.929-9.678-.788l-17.792 12.779c-1.917-.898-3.872-1.711-5.858-2.435l-3.542-21.607c-.595-3.626-3.728-6.287-7.401-6.287h-27.15c-3.674 0-6.807 2.661-7.401 6.287l-3.542 21.607c-1.986.724-3.941 1.536-5.858 2.435l-17.792-12.779c-2.982-2.144-7.082-1.812-9.678.788l-19.199 19.198c-2.599 2.598-2.932 6.695-.788 9.68l12.779 17.791c-.898 1.917-1.711 3.872-2.435 5.858zm38.889-14.443-11.727-16.325 10.189-10.189 16.326 11.728c2.354 1.691 5.472 1.875 8.007.47 3.693-2.044 7.61-3.673 11.644-4.84 2.778-.805 4.848-3.136 5.315-5.991l3.248-19.815h14.41l3.248 19.815c.468 2.855 2.537 5.187 5.315 5.991 4.033 1.167 7.95 2.796 11.644 4.84 2.536 1.405 5.655 1.222 8.007-.47l16.326-11.728 10.189 10.189-11.727 16.325c-1.691 2.354-1.875 5.473-.471 8.008 2.044 3.693 3.673 7.61 4.84 11.644.805 2.778 3.136 4.848 5.991 5.315l19.815 3.248v14.411l-19.815 3.248c-2.855.468-5.187 2.537-5.991 5.315-1.168 4.033-2.796 7.95-4.84 11.642-1.404 2.536-1.221 5.654.47 8.009l11.729 16.326-10.19 10.189-16.326-11.728c-2.352-1.69-5.471-1.874-8.007-.47-3.691 2.043-7.608 3.671-11.644 4.839-2.778.805-4.848 3.136-5.315 5.991l-3.248 19.816h-14.41l-3.248-19.816c-.468-2.855-2.537-5.187-5.315-5.991-4.035-1.168-7.952-2.796-11.644-4.839-2.535-1.404-5.653-1.221-8.007.47l-16.326 11.728-10.19-10.189 11.729-16.326c1.69-2.354 1.874-5.473.47-8.009-2.044-3.691-3.672-7.608-4.84-11.642-.805-2.778-3.136-4.848-5.991-5.315l-19.815-3.248v-14.411l19.815-3.248c2.855-.468 5.187-2.537 5.991-5.315 1.167-4.033 2.796-7.95 4.84-11.644 1.404-2.535 1.22-5.653-.471-8.008z"/><path d="m399.443 182.687c4.143 0 7.5-3.357 7.5-7.5s-3.357-7.5-7.5-7.5h-33.336c-4.143 0-7.5 3.357-7.5 7.5s3.357 7.5 7.5 7.5z"/><path d="m348.506 207.512c0 4.143 3.357 7.5 7.5 7.5h43.438c4.143 0 7.5-3.357 7.5-7.5s-3.357-7.5-7.5-7.5h-43.438c-4.143 0-7.5 3.357-7.5 7.5z"/><path d="m112.557 182.687h33.336c4.143 0 7.5-3.357 7.5-7.5s-3.357-7.5-7.5-7.5h-33.336c-4.143 0-7.5 3.357-7.5 7.5s3.357 7.5 7.5 7.5z"/><path d="m112.557 215.012h43.438c4.143 0 7.5-3.357 7.5-7.5s-3.357-7.5-7.5-7.5h-43.438c-4.143 0-7.5 3.357-7.5 7.5s3.357 7.5 7.5 7.5z"/></g></g></svg>