<svg id="Capa_1" enable-background="new 0 0 512 512" height="512" viewBox="0 0 512 512" width="512" xmlns="http://www.w3.org/2000/svg"><g><g><path d="m504.5 278.243v226.256h-287.744l217.103-335.373z" fill="#f1f4f6"/></g><g><path d="m372.659 263.666-155.903 240.833h287.744v-37.177z" fill="#dfeaef"/></g><g><path d="m7.501 278.243v226.256h287.744l-217.104-335.373z" fill="#f1f4f6"/></g><g><path d="m139.342 263.666 155.903 240.833h-287.744v-37.177z" fill="#dfeaef"/></g><g><path d="m256 504.499h248.5l-248.5-383.861-248.499 383.861z" fill="#cbe2ff"/></g><g><path d="m256 120.638-14.647 22.626c25.943 40.074 233.852 361.235 233.852 361.235h29.295z" fill="#bed8fb"/></g><g><path d="m256 258.02 26.769-26.769 21.719 18.688 22.966-18.925-71.454-110.376-71.453 110.376 22.966 18.925 21.718-18.688z" fill="#f6f9f9"/></g><g><path d="m308.35 246.756 19.103-15.742-71.453-110.376-14.647 22.626c8.214 12.689 34.674 53.561 66.997 103.492z" fill="#f1f4f6"/></g><g><path d="m367.118 88.313h-111.118v-80.813h111.118l-20.203 40.407z" fill="#e28086"/></g><g><path d="m409.039 343.239c-2.251-3.476-6.896-4.472-10.372-2.22-3.477 2.251-4.471 6.895-2.22 10.372l101.756 157.184c1.436 2.217 3.844 3.425 6.303 3.425 1.396 0 2.81-.39 4.069-1.205 3.477-2.251 4.471-6.895 2.22-10.372z"/><path d="m113.333 341.019c-3.478-2.251-8.12-1.258-10.372 2.22l-101.756 157.184c-2.251 3.478-1.257 8.121 2.22 10.372 1.26.815 2.672 1.205 4.069 1.205 2.458 0 4.867-1.208 6.303-3.425l101.756-157.184c2.251-3.477 1.257-8.121-2.22-10.372z"/><path d="m369.558 282.252 64.301-99.325 64.345 99.393c2.25 3.476 6.895 4.47 10.372 2.22 3.477-2.251 4.471-6.895 2.22-10.372l-70.64-109.118c-1.382-2.135-3.752-3.424-6.296-3.424-2.543 0-4.914 1.289-6.296 3.424l-66.94 103.401-97.124-150.028v-22.609h103.617c2.599 0 5.013-1.346 6.38-3.557 1.367-2.212 1.491-4.973.328-7.298l-18.525-37.052 18.526-37.052c1.163-2.325 1.039-5.086-.328-7.298-1.367-2.211-3.781-3.557-6.38-3.557h-58.618c-4.142 0-7.5 3.357-7.5 7.5s3.358 7.5 7.5 7.5h46.482l-14.776 29.552c-1.056 2.112-1.056 4.597 0 6.709l14.776 29.553h-91.482v-65.814h9.942c4.142 0 7.5-3.357 7.5-7.5s-3.358-7.5-7.5-7.5h-17.442c-4.142 0-7.5 3.357-7.5 7.5v110.922l-97.123 150.028-66.94-103.4c-1.382-2.135-3.752-3.424-6.296-3.424-2.543 0-4.914 1.289-6.296 3.424l-70.64 109.118c-2.251 3.478-1.257 8.121 2.22 10.372 3.476 2.249 8.12 1.256 10.372-2.22l64.345-99.393 64.301 99.325-20.322 31.391c-2.251 3.478-1.257 8.121 2.22 10.372 3.476 2.25 8.121 1.257 10.372-2.22l51.558-79.643 16.472 13.575c2.817 2.322 6.895 2.277 9.662-.104l16.443-14.149 21.849 21.85c1.464 1.464 3.384 2.196 5.303 2.196s3.839-.732 5.303-2.196l21.849-21.85 16.443 14.149c2.767 2.381 6.845 2.426 9.662.104l16.472-13.575 51.558 79.643c1.436 2.218 3.844 3.425 6.303 3.425 1.396 0 2.81-.39 4.069-1.205 3.477-2.251 4.471-6.895 2.22-10.372zm-64.966-42.117-16.931-14.568c-2.975-2.561-7.42-2.394-10.195.381l-21.466 21.466-21.466-21.467c-2.775-2.773-7.22-2.943-10.195-.381l-16.931 14.568-12.932-10.657 61.524-95.037 61.524 95.038z"/><path d="m334.035 127.456c-2.929-2.928-7.678-2.929-10.606.001l-16.163 16.163c-2.929 2.929-2.929 7.677 0 10.606 1.464 1.464 3.384 2.196 5.303 2.196s3.839-.732 5.303-2.197l16.163-16.163c2.929-2.928 2.929-7.676 0-10.606z"/><path d="m332.768 184.709c.658 0 1.328-.088 1.993-.271l22.039-6.061c3.994-1.099 6.341-5.227 5.243-9.22-1.098-3.994-5.227-6.339-9.22-5.243l-22.039 6.061c-3.994 1.099-6.341 5.227-5.243 9.22.915 3.329 3.935 5.514 7.227 5.514z"/><path d="m194.128 154.226c1.464 1.465 3.384 2.197 5.303 2.197s3.839-.732 5.303-2.196c2.929-2.93 2.929-7.678 0-10.606l-16.163-16.163c-2.928-2.93-7.677-2.929-10.606-.001-2.929 2.93-2.929 7.678 0 10.606z"/><path d="m155.2 178.378 22.039 6.061c.666.184 1.335.271 1.993.271 3.292 0 6.312-2.185 7.227-5.514 1.099-3.993-1.249-8.121-5.243-9.22l-22.039-6.061c-3.996-1.103-8.122 1.248-9.22 5.243-1.098 3.993 1.25 8.121 5.243 9.22z"/></g></g></svg>