<svg id="Capa_1" enable-background="new 0 0 512 512" height="512" viewBox="0 0 512 512" width="512" xmlns="http://www.w3.org/2000/svg"><g><g><path d="m49.927 114.577h412.146v282.846h-412.146z" fill="#cbe2ff" transform="matrix(0 1 -1 0 512 0)"/></g><g><path d="m369.138 49.927h28.285v412.146h-28.285z" fill="#bed8fb"/></g><g><path d="m114.577 484.297c0 11.158 9.045 20.203 20.203 20.203h242.44c11.158 0 20.203-9.045 20.203-20.203v-22.224h-282.846z" fill="#665e66"/></g><g><path d="m369.138 462.073v22.224c0 11.158-9.045 20.203-20.203 20.203h28.285c11.158 0 20.203-9.045 20.203-20.203v-22.224z" fill="#544f57"/></g><g><path d="m377.22 7.5h-242.44c-11.158 0-20.203 9.045-20.203 20.203v22.224h80.813l10.102 22.224h101.016l10.102-22.224h80.813v-22.224c0-11.158-9.046-20.203-20.203-20.203z" fill="#665e66"/></g><g><path d="m377.22 7.5h-28.285c11.158 0 20.203 9.045 20.203 20.203v22.224h28.285v-22.224c0-11.158-9.046-20.203-20.203-20.203z" fill="#544f57"/></g><g><g><path d="m302.325 208.392-14.995 14.995c-2.764 2.764-7.246 2.764-10.01 0l-54.31-54.31c-2.764-2.764-2.764-7.246 0-10.01l14.995-14.995-33.535-33.535-17.965 17.965c-13.822 13.822-13.822 36.231 0 50.052l81.338 81.338c13.822 13.822 36.231 13.822 50.052 0l17.965-17.965z" fill="#9bd069"/></g></g><g><g><path d="m146.902 302.467h40.407v40.407h-40.407z" fill="#f1f4f6"/></g></g><g><g><path d="m235.797 302.467h40.407v40.407h-40.407z" fill="#f1f4f6"/></g></g><g><g><path d="m324.691 302.467h40.407v40.407h-40.407z" fill="#f1f4f6"/></g></g><g><g><path d="m146.902 375.199h40.407v40.407h-40.407z" fill="#f1f4f6"/></g></g><g><g><path d="m235.797 375.199h40.407v40.407h-40.407z" fill="#f1f4f6"/></g></g><g><g><path d="m324.691 375.199h40.407v40.407h-40.407z" fill="#f1f4f6"/></g></g><g><path d="m397.423 137.497c-4.143 0-7.5 3.357-7.5 7.5v309.576h-267.846v-77.966c0-4.143-3.358-7.5-7.5-7.5s-7.5 3.357-7.5 7.5v107.689c0 15.275 12.428 27.703 27.703 27.703h242.44c15.275 0 27.703-12.428 27.703-27.703v-339.3c0-4.142-3.358-7.499-7.5-7.499zm-7.5 346.8c0 7.005-5.698 12.703-12.703 12.703h-242.44c-7.004 0-12.703-5.698-12.703-12.703v-14.724h267.846z"/><path d="m377.22 0h-242.44c-15.275 0-27.703 12.428-27.703 27.703v313.868c0 4.143 3.358 7.5 7.5 7.5s7.5-3.357 7.5-7.5v-284.144h68.483l8.104 17.827c1.217 2.678 3.887 4.396 6.828 4.396h101.016c2.941 0 5.61-1.719 6.828-4.396l8.103-17.827h68.484v52.479c0 4.143 3.357 7.5 7.5 7.5s7.5-3.357 7.5-7.5v-82.203c0-15.275-12.428-27.703-27.703-27.703zm-60.611 42.427c-2.941 0-5.61 1.719-6.828 4.396l-8.103 17.827h-91.357l-8.104-17.827c-1.217-2.678-3.887-4.396-6.828-4.396h-73.313v-14.724c0-7.005 5.699-12.703 12.703-12.703h242.441c7.005 0 12.703 5.698 12.703 12.703v14.724z"/><path d="m273.62 120.172c28.171 0 51.09 22.918 51.09 51.089 0 4.143 3.357 7.5 7.5 7.5s7.5-3.357 7.5-7.5c0-36.441-29.647-66.089-66.09-66.089-4.143 0-7.5 3.357-7.5 7.5s3.358 7.5 7.5 7.5z"/><path d="m273.62 152.497c10.347 0 18.765 8.417 18.765 18.764 0 4.143 3.357 7.5 7.5 7.5s7.5-3.357 7.5-7.5c0-18.617-15.146-33.764-33.765-33.764-4.143 0-7.5 3.357-7.5 7.5s3.358 7.5 7.5 7.5z"/><path d="m243.309 138.768-33.535-33.535c-1.406-1.406-3.314-2.196-5.303-2.196s-3.897.79-5.303 2.197l-17.964 17.964c-16.724 16.724-16.724 43.936 0 60.659l81.337 81.337c8.102 8.103 18.873 12.563 30.329 12.563 11.457 0 22.229-4.461 30.329-12.563l17.965-17.964c1.407-1.407 2.197-3.314 2.197-5.304s-.79-3.896-2.196-5.304l-33.535-33.535c-2.93-2.928-7.678-2.928-10.607 0l-14.696 14.697-53.714-53.714 14.697-14.696c2.928-2.929 2.928-7.677-.001-10.606zm28.708 89.922c2.754 2.753 6.414 4.269 10.309 4.269s7.555-1.516 10.309-4.269l9.691-9.692 22.929 22.929-12.662 12.661c-5.268 5.268-12.272 8.169-19.723 8.169-7.449 0-14.454-2.901-19.722-8.17l-81.338-81.338c-10.875-10.875-10.875-28.569 0-39.445l12.661-12.661 22.929 22.929-9.692 9.692c-5.683 5.684-5.683 14.933 0 20.617z"/><path d="m139.402 302.468v40.406c0 4.143 3.358 7.5 7.5 7.5h40.407c4.142 0 7.5-3.357 7.5-7.5v-40.406c0-4.143-3.358-7.5-7.5-7.5h-40.407c-4.142 0-7.5 3.357-7.5 7.5zm15 7.5h25.407v25.406h-25.407z"/><path d="m283.703 302.468c0-4.143-3.357-7.5-7.5-7.5h-40.406c-4.142 0-7.5 3.357-7.5 7.5v40.406c0 4.143 3.358 7.5 7.5 7.5h40.406c4.143 0 7.5-3.357 7.5-7.5zm-15 32.906h-25.406v-25.406h25.406z"/><path d="m372.598 302.468c0-4.143-3.357-7.5-7.5-7.5h-40.406c-4.143 0-7.5 3.357-7.5 7.5v40.406c0 4.143 3.357 7.5 7.5 7.5h40.406c4.143 0 7.5-3.357 7.5-7.5zm-15 32.906h-25.406v-25.406h25.406z"/><path d="m139.402 415.605c0 4.143 3.358 7.5 7.5 7.5h40.407c4.142 0 7.5-3.357 7.5-7.5v-40.406c0-4.143-3.358-7.5-7.5-7.5h-40.407c-4.142 0-7.5 3.357-7.5 7.5zm15-32.906h25.407v25.406h-25.407z"/><path d="m276.203 367.699h-40.406c-4.142 0-7.5 3.357-7.5 7.5v40.406c0 4.143 3.358 7.5 7.5 7.5h40.406c4.143 0 7.5-3.357 7.5-7.5v-40.406c0-4.142-3.357-7.5-7.5-7.5zm-7.5 40.406h-25.406v-25.406h25.406z"/><path d="m365.098 367.699h-40.406c-4.143 0-7.5 3.357-7.5 7.5v40.406c0 4.143 3.357 7.5 7.5 7.5h40.406c4.143 0 7.5-3.357 7.5-7.5v-40.406c0-4.142-3.358-7.5-7.5-7.5zm-7.5 40.406h-25.406v-25.406h25.406z"/></g></g></svg>