<svg id="Capa_1" enable-background="new 0 0 512 512" height="512" viewBox="0 0 512 512" width="512" xmlns="http://www.w3.org/2000/svg"><g><g><path d="m256 7.5c94.843 0 171.728 76.885 171.728 171.728 0 150.514-171.728 325.272-171.728 325.272s-171.728-174.758-171.728-325.272c0-94.843 76.885-171.728 171.728-171.728z" fill="#e28086"/></g><g><path d="m356.236 39.785c14.627 25.269 23.004 54.607 23.004 85.904 0 143.8-156.743 309.724-170.727 324.24 26.908 33.627 47.487 54.571 47.487 54.571s171.728-174.758 171.728-325.272c0-57.428-28.195-108.265-71.492-139.443z" fill="#dd636e"/></g><g><circle cx="256" cy="179.228" fill="#f6f9f9" r="137.382"/></g><g><path d="m341.629 71.88c18.785 23.501 30.035 53.274 30.035 85.629 0 75.752-61.63 137.382-137.382 137.382-32.355 0-62.128-11.25-85.629-30.035 25.195 31.522 63.95 51.754 107.347 51.754 75.752 0 137.382-61.63 137.382-137.382 0-43.397-20.232-82.153-51.753-107.348z" fill="#f1f4f6"/></g><g><path d="m265.393 104.254 16.007 32.433c1.526 3.092 4.475 5.234 7.887 5.73l35.792 5.201c8.592 1.248 12.022 11.807 5.805 17.867l-25.9 25.246c-2.469 2.406-3.595 5.874-3.013 9.272l6.114 35.648c1.468 8.557-7.514 15.082-15.198 11.042l-32.014-16.831c-3.052-1.604-6.697-1.604-9.749 0l-32.014 16.831c-7.685 4.04-16.666-2.485-15.198-11.042l6.114-35.648c.583-3.398-.544-6.865-3.012-9.272l-25.9-25.246c-6.217-6.06-2.786-16.618 5.805-17.867l35.792-5.201c3.412-.496 6.361-2.639 7.887-5.73l16.007-32.433c3.844-7.786 14.946-7.786 18.788 0z" fill="#ffe07d"/></g><g><path d="m140.188 105.016c-3.6-2.051-8.18-.79-10.227 2.813-12.328 21.681-18.844 46.371-18.844 71.399 0 79.888 64.994 144.882 144.882 144.882s144.882-64.994 144.882-144.882-64.993-144.882-144.881-144.882c-39.443 0-76.342 15.626-103.899 44-2.886 2.972-2.816 7.72.154 10.605 2.973 2.888 7.721 2.816 10.605-.154 24.708-25.44 57.786-39.451 93.14-39.451 71.617 0 129.882 58.265 129.882 129.882s-58.265 129.881-129.882 129.881-129.882-58.265-129.882-129.882c0-22.434 5.838-44.56 16.883-63.985 2.048-3.6.788-8.179-2.813-10.226z"/><path d="m417.626 497h-144.379c20.101-22.168 62.095-71.126 97.944-130.21 2.148-3.541 1.02-8.154-2.521-10.303-3.539-2.146-8.153-1.021-10.303 2.521-39.543 65.172-86.7 117.795-102.369 134.599-12.754-13.667-46.36-51.038-79.68-99.547-38.569-56.152-84.546-139.006-84.546-214.833 0-90.555 73.672-164.227 164.228-164.227s164.228 73.672 164.228 164.228c0 43.686-15.042 94.055-44.707 149.708-1.948 3.655-.565 8.198 3.09 10.146 3.657 1.951 8.199.565 10.146-3.09 30.836-57.849 46.471-110.592 46.471-156.765 0-98.826-80.402-179.227-179.228-179.227s-179.228 80.401-179.228 179.228c0 35.354 9.231 74.812 27.439 117.277 14.438 33.674 34.537 69.354 59.742 106.048 29.293 42.648 58.885 76.916 74.792 94.447h-144.371c-4.143 0-7.5 3.357-7.5 7.5s3.357 7.5 7.5 7.5h323.252c4.143 0 7.5-3.357 7.5-7.5s-3.357-7.5-7.5-7.5z"/><path d="m359.794 438.587-28.284 28.284c-2.929 2.93-2.929 7.678 0 10.607 1.465 1.464 3.385 2.196 5.304 2.196s3.839-.732 5.304-2.196l28.284-28.284c2.929-2.93 2.929-7.678 0-10.607-2.93-2.928-7.678-2.928-10.608 0z"/><path d="m175.187 479.675c1.919 0 3.839-.732 5.304-2.196 2.929-2.93 2.929-7.678 0-10.607l-28.284-28.284c-2.93-2.928-7.678-2.928-10.607 0-2.929 2.93-2.929 7.678 0 10.607l28.284 28.284c1.464 1.463 3.384 2.196 5.303 2.196z"/><path d="m336.12 170.855c4.935-4.811 6.678-11.871 4.548-18.426-2.13-6.556-7.69-11.243-14.511-12.233l-35.793-5.201c-.969-.141-1.805-.749-2.238-1.627l-16.007-32.434c-3.051-6.181-9.228-10.02-16.119-10.02s-13.068 3.839-16.119 10.02l-16.007 32.434c-.434.878-1.27 1.486-2.239 1.627l-35.792 5.201c-6.82.99-12.381 5.678-14.511 12.233s-.387 13.615 4.548 18.426l25.9 25.246c.701.683 1.021 1.667.855 2.633l-6.113 35.648c-1.166 6.792 1.574 13.528 7.15 17.58s12.83 4.575 18.93 1.368l32.013-16.831c.867-.455 1.903-.455 2.769 0l32.014 16.831c2.653 1.395 5.525 2.084 8.382 2.084 3.711 0 7.397-1.163 10.548-3.452 5.576-4.052 8.316-10.788 7.151-17.58l-6.114-35.649c-.165-.965.154-1.949.855-2.632zm-36.371 14.504c-4.237 4.131-6.169 10.078-5.168 15.91l6.113 35.648c.271 1.586-.625 2.504-1.184 2.909-.559.406-1.709.976-3.133.227l-32.015-16.831c-2.618-1.376-5.49-2.064-8.363-2.064-2.872 0-5.745.688-8.364 2.064l-32.014 16.831c-1.422.749-2.573.182-3.133-.227-.559-.405-1.455-1.323-1.183-2.909l6.112-35.647c1.001-5.833-.931-11.78-5.168-15.911l-25.9-25.246c-1.152-1.122-.966-2.392-.753-3.049.214-.656.81-1.793 2.401-2.024l35.791-5.201c5.856-.85 10.916-4.525 13.535-9.832l16.007-32.434c.712-1.442 1.978-1.658 2.668-1.658s1.956.216 2.668 1.658l16.007 32.434c2.619 5.307 7.679 8.982 13.534 9.832l35.792 5.201c1.592.231 2.188 1.368 2.401 2.024.213.657.399 1.927-.753 3.049z"/></g></g></svg>